SplineFontDB: 3.2
FontName: CPRMStratigrPaleontRegular
FullName: CPRM Stratigraphy and Paleontology Regular
FamilyName: CPRM Stratigraphy/Paleontology
Weight: Regular
Copyright: Copyright (c) 2022, CPRM
Version: 001.000
ItalicAngle: 0
UnderlinePosition: -100
UnderlineWidth: 50
Ascent: 800
Descent: 200
InvalidEm: 0
sfntRevision: 0x00010000
LayerCount: 2
Layer: 0 0 "Back" 1
Layer: 1 0 "Fore" 0
XUID: [1021 151 -1074695341 7750]
StyleMap: 0x0000
FSType: 0
OS2Version: 4
OS2_WeightWidthSlopeOnly: 0
OS2_UseTypoMetrics: 1
CreationTime: 1589405284
ModificationTime: 1649345662
PfmFamily: 17
TTFWeight: 400
TTFWidth: 5
LineGap: 90
VLineGap: 0
Panose: 2 0 5 9 0 0 0 0 0 0
OS2TypoAscent: 800
OS2TypoAOffset: 0
OS2TypoDescent: -200
OS2TypoDOffset: 0
OS2TypoLinegap: 90
OS2WinAscent: 813
OS2WinAOffset: 0
OS2WinDescent: 205
OS2WinDOffset: 0
HheadAscent: 813
HheadAOffset: 0
HheadDescent: -205
HheadDOffset: 0
OS2SubXSize: 650
OS2SubYSize: 699
OS2SubXOff: 0
OS2SubYOff: 140
OS2SupXSize: 650
OS2SupYSize: 699
OS2SupXOff: 0
OS2SupYOff: 479
OS2StrikeYSize: 49
OS2StrikeYPos: 258
OS2CapHeight: 781
OS2Vendor: 'PfEd'
OS2CodePages: 00000001.00000000
OS2UnicodeRanges: 00000001.00000000.00000000.00000000
MarkAttachClasses: 1
DEI: 91125
LangName: 1033 "" "" "" "CPRMStratigrPaleontRegular" "" "" "" "" "" "Carlos Eduardo Mota" "CPRM Paleontological Symbols" "" "carlos.mota@cprm.gov.br" "CC-BY-SA 4.0" "https://creativecommons.org/licenses/by-nc/4.0/legalcode"
Encoding: UnicodeBmp
UnicodeInterp: none
NameList: AGL For New Fonts
DisplaySize: -48
AntiAlias: 1
FitToEm: 0
WinInfo: 52 26 11
BeginPrivate: 3
BlueValues 23 [-20 0 640 640 645 802]
BlueScale 10 0.00833333
BlueShift 2 20
EndPrivate
BeginChars: 65537 124

StartChar: exclam
Encoding: 33 33 0
Width: 1000
GlyphClass: 2
HStem: 0 18<77.4626 159.793> 12 21<53.9473 67.8504> 12 6<950.664 951.903> 207 19<424.906 606.987> 768.002 20G<470.998 480.665>
VStem: 501.999 18.9971<357.176 518.845> 515 18.9961<498.552 665.877>
LayerCount: 2
Fore
SplineSet
480 761 m 1x9a
 478.666992188 754.333007812 473.665039062 726.001953125 464.998046875 676.001953125 c 0
 435.665039062 497.334960938 406.33203125 381.66796875 376.999023438 329.000976562 c 0
 356.33203125 292.333984375 294.33203125 226.333984375 190.999023438 131.000976562 c 0
 157.666015625 100.333984375 135.999023438 80.6669921875 125.999023438 72 c 0
 109.999023438 58 93.666015625 42.6669921875 76.9990234375 26 c 1
 90.33203125 20.6669921875 101.665039062 18 110.998046875 18 c 0
 151.665039062 18 183.998046875 32.6669921875 207.998046875 62 c 0
 246.665039062 109.333007812 284.33203125 146.333007812 320.999023438 173 c 0
 351.666015625 195.666992188 390.666015625 211.333984375 437.999023438 220.000976562 c 0
 445.33203125 221.333984375 463.665039062 222.666992188 492.998046875 224 c 2
 536.998046875 226 l 1
 538.998046875 226 l 2
 550.331054688 226 574.331054688 222.666992188 610.998046875 216 c 0
 647.665039062 209.333007812 678.33203125 200 702.999023438 188 c 0
 729.666015625 176 768.666015625 152 819.999023438 116 c 0
 871.33203125 80 899.999023438 59.8330078125 905.999023438 55.5 c 0
 911.999023438 51.1669921875 918.999023438 46.333984375 926.999023438 41.0009765625 c 1
 882.999023438 121.000976562 837.33203125 178.333984375 789.999023438 213.000976562 c 0
 767.33203125 229.66796875 719.999023438 250.000976562 647.999023438 274.000976562 c 0
 581.999023438 296.000976562 540.666015625 316.000976562 523.999023438 334.000976562 c 0
 509.33203125 350.000976562 501.999023438 375.66796875 501.999023438 411.000976562 c 0x9c
 501.999023438 436.333984375 503.666015625 461.000976562 506.999023438 485.000976562 c 0
 511.666015625 518.333984375 514.333007812 543.000976562 515 559.000976562 c 0
 515.666992188 574.333984375 516.166992188 585.166992188 516.5 591.5 c 0
 516.833007812 597.833007812 516.333007812 602.333007812 515 605 c 0
 507.666992188 672.333007812 496 724.333007812 480 761 c 1x9a
470.998046875 785.001953125 m 2
 476.998046875 788.001953125 l 2
 484.331054688 788.001953125 490.1640625 783.334960938 494.497070312 774.001953125 c 0
 498.830078125 764.668945312 505.163085938 745.168945312 513.49609375 715.501953125 c 0
 521.829101562 685.834960938 528.329101562 649.334960938 532.99609375 606.001953125 c 0
 534.329101562 602.001953125 534.829101562 596.834960938 534.49609375 590.501953125 c 0
 534.163085938 584.168945312 533.99609375 578.001953125 533.99609375 572.001953125 c 2x5a
 523.99609375 459.001953125 l 2
 521.99609375 440.334960938 520.99609375 425.66796875 520.99609375 415.000976562 c 0
 520.99609375 404.333984375 521.663085938 392.666992188 522.99609375 380 c 0
 524.329101562 367.333007812 528.99609375 356.333007812 536.99609375 347 c 0
 551.663085938 331.666992188 590.330078125 313 652.997070312 291 c 0
 654.997070312 290.333007812 658.330078125 289.333007812 662.997070312 288 c 0
 728.997070312 266 774.6640625 246 799.997070312 228 c 1
 800.997070312 228 l 1
 836.997070312 202.666992188 873.6640625 161 910.997070312 103 c 0
 938.997070312 61 952.997070312 34.3330078125 952.997070312 23 c 0
 952.997070312 22.3330078125 952.497070312 21.3330078125 951.497070312 20 c 0
 950.497070312 18.6669921875 950.6640625 18 951.997070312 18 c 1
 949.997070312 14 946.997070312 12 942.997070312 12 c 2
 940.997070312 12 l 2x3c
 931.6640625 12 895.997070312 36 833.997070312 84 c 1
 767.330078125 130 721.330078125 159 695.997070312 171 c 0
 670.6640625 183 640.997070312 192 606.997070312 198 c 0
 572.997070312 204 548.997070312 207 534.997070312 207 c 2
 508.997070312 207 l 2
 446.997070312 205.666992188 396.330078125 194.666992188 356.997070312 174 c 0
 331.6640625 160.666992188 310.331054688 145.333984375 292.998046875 128.000976562 c 0
 270.331054688 105.333984375 247.998046875 81.333984375 225.998046875 56.0009765625 c 0
 200.665039062 26.0009765625 169.998046875 8.0009765625 133.998046875 2.0009765625 c 0
 129.998046875 1.333984375 121.665039062 0.6669921875 108.998046875 0 c 0x9c
 98.998046875 0 89.498046875 2 80.498046875 6 c 0
 71.498046875 10 66.3310546875 12 64.998046875 12 c 0x5c
 56.998046875 14.6669921875 52.998046875 17.333984375 52.998046875 20.0009765625 c 0
 52.998046875 20.66796875 53.998046875 23.0009765625 55.998046875 27.0009765625 c 0
 57.998046875 31.0009765625 59.1650390625 33.0009765625 59.498046875 33.0009765625 c 0
 59.8310546875 33.0009765625 60.3310546875 33.333984375 60.998046875 34.0009765625 c 0
 64.998046875 42.66796875 104.665039062 79.3349609375 179.998046875 144.001953125 c 0
 273.331054688 224.001953125 334.331054688 290.001953125 362.998046875 342.001953125 c 0
 396.331054688 401.334960938 426.998046875 528.66796875 454.998046875 724.000976562 c 0
 458.998046875 752.66796875 463.665039062 772.334960938 468.998046875 783.001953125 c 2
 469.998046875 784.001953125 l 2
 469.998046875 784.668945312 470.331054688 785.001953125 470.998046875 785.001953125 c 2
EndSplineSet
Validated: 524289
EndChar

StartChar: quotedbl
Encoding: 34 34 1
Width: 1000
GlyphClass: 2
HStem: 0 16.8438<465.864 470.279> 460.555 16.6386<954.499 971.512> 479 16.0137<19.8075 26.6358 26.8869 99.0747> 508 16.7129<792.745 894> 618.199 16.5445<609.175 649.549> 681.135 16.9543<85.168 88.0913> 773.71 16.29<180.389 272.031 338.027 488.169 689.004 747.187>
VStem: 2.99902 16.3184<488.309 572.311> 326.729 16.8027<420.618 570.572> 387.116 20.155<721.727 729.892> 416.822 15.6533<157.931 298.933 362.743 457.082> 446.52 15.8418<496.991 596.096> 467.309 14.6914<16.8438 92.3417> 507.001 16.21<225.861 360.555> 543.54 17.459<322.829 455.739> 650.46 16.54<634.002 678.399> 667 16.0801<742.112 768.097> 695 15.8604<648.524 721.818> 976.169 16.8301<477.987 568.13>
LayerCount: 2
Fore
SplineSet
306 772 m 1xfffee0
 347.333007812 787.333007812 376.666015625 794.999023438 393.999023438 794.999023438 c 2
 399.999023438 794.999023438 l 2
 429.999023438 794.999023438 458.666015625 791.33203125 485.999023438 783.999023438 c 0
 532.666015625 771.33203125 555.999023438 758.33203125 555.999023438 744.999023438 c 1
 554.999023438 743.999023438 l 1
 554.999023438 742.999023438 l 1
 611.666015625 724.33203125 647.333007812 703.33203125 662 679.999023438 c 0
 665.333007812 674.666015625 667 665.999023438 667 653.999023438 c 0xffff60
 667 631.999023438 659.666992188 619.999023438 645 617.999023438 c 0
 642.666503906 617.665527344 640.083007812 617.498779297 637.249511719 617.498779297 c 0
 634.416015625 617.498779297 631.332519532 617.665527344 627.999023438 617.999023438 c 0
 626.39855478 618.132460949 624.864804878 618.199179705 623.397765912 618.199179705 c 0
 617.53175798 618.199179705 612.732343785 617.132460949 608.999023438 614.999023438 c 0
 600.999023438 610.33203125 592.999023438 588.33203125 584.999023438 548.999023438 c 0
 567.666015625 463.666015625 558.999023438 405.333007812 558.999023438 374 c 0
 558.999023438 340 559.666015625 323 560.999023438 323 c 1
 560.999023438 322 l 1
 563.666015625 325.333007812 564.999023438 328 564.999023438 330 c 0
 589.666015625 374 617.333007812 438.333007812 648 523 c 0
 679.333007812 609 695 668 695 700 c 0
 695 712.666992188 693.666992188 719.666992188 691 721 c 0
 675 727.666992188 667 740 667 758 c 2
 667 760 l 2
 669 780 683.333007812 790 710 790 c 0
 755.333007812 790 817.666015625 756 896.999023438 688 c 0
 960.999023438 633.333007812 992.999023438 579 992.999023438 525 c 0
 992.999023438 516.333007812 991.666015625 505.333007812 988.999023438 492 c 0
 986.33203125 478.666992188 982.999023438 470 978.999023438 466 c 0
 975.368887425 462.369863987 972.142296806 460.554795981 969.319251581 460.554795981 c 0
 968.512920395 460.554795981 967.739511014 460.7028718 966.999023438 460.999023438 c 0
 958.999023438 463.666015625 950.33203125 468.333007812 940.999023438 475 c 0
 911.666015625 497 878.333007812 508 841 508 c 0
 764.333007812 508 702 463.666992188 654 375 c 0
 626 323 584 257 528 177 c 0
 497.333007812 127.666992188 482 83.333984375 482 44.0009765625 c 0
 482 41.333984375 483.666992188 26.6669921875 487 0 c 1
 456 0 l 1
 454 6 l 2
 437.333007812 66 417.666015625 124.666992188 394.999023438 182 c 0
 343.666015625 309.333007812 298.666015625 384.333007812 259.999023438 407 c 0
 218.666015625 431 172.666015625 450.333007812 121.999023438 465 c 0
 89.9990234375 474.333007812 65.666015625 479 48.9990234375 479 c 0
 41.666015625 479 35.9990234375 478 31.9990234375 476 c 0
 28.1098632815 474.184931993 24.5232144598 473.27739799 21.2390769726 473.27739799 c 0
 16.0788785223 473.27739799 11.6655273439 475.517939806 7.9990234375 479.999023438 c 0
 4.666015625 483.999023438 2.9990234375 496.999023438 2.9990234375 518.999023438 c 0
 2.9990234375 540.33203125 7.9990234375 566.33203125 17.9990234375 596.999023438 c 0
 28.666015625 629.666015625 39.9990234375 653.999023438 51.9990234375 669.999023438 c 0
 64.666015625 687.33203125 76.3330078125 696.665039062 87 697.998046875 c 0
 87.3637816243 698.05870675 87.7275632486 698.089036688 88.0913448728 698.089036688 c 0
 99 688.998046875 l 0
 105.666992188 676.998046875 128 654.331054688 166 620.998046875 c 0
 204 587.665039062 227 563.33203125 235 547.999023438 c 1
 235 546.999023438 l 2
 235.666992188 546.33203125 250.666992188 518.33203125 280 462.999023438 c 0
 284 456.999023438 289.333007812 448.33203125 296 436.999023438 c 1
 296 444.999023438 277.333007812 487.666015625 240 564.999023438 c 0
 190.666992188 666.999023438 156 721.666015625 136 728.999023438 c 0
 130.666992188 730.999023438 126.666992188 734.666015625 124 739.999023438 c 0
 122.666992188 742.666015625 122 745.333007812 122 748 c 0
 122 758.666992188 134.333007812 768 159 776 c 0
 185.666992188 784.666992188 207.651367188 789.0078125 224.953125 789.022460938 c 0
 224.983909334 789.022488083 225.014710555 789.022501656 225.045528662 789.022501656 c 0
 244.97115097 789.022501656 271.955974749 783.348658454 306 772 c 1xfffee0
446.51953125 498.479492188 m 2
 445.532226562 538.58203125 l 2
 445.532226562 577.522460938 454.772460938 617.782226562 473.251953125 659.362304688 c 0
 481.171875 677.181640625 496.3515625 697.641601562 518.791992188 720.7421875 c 0
 520.771484375 722.721679688 523.741210938 726.846679688 527.701171875 733.1171875 c 0
 531.661132812 739.38671875 534.9609375 743.181640625 537.600585938 744.501953125 c 2
 538.590820312 744.501953125 l 1
 539.581054688 745.4921875 l 1
 532.49609375 752.569335938 513.89453125 759.783203125 483.776367188 767.133789062 c 0
 453.658203125 774.485351562 428.69921875 778.161132812 408.899414062 778.161132812 c 0
 389.099609375 778.161132812 376.724609375 777.666015625 371.774414062 776.67578125 c 0
 366.82421875 775.685546875 354.119140625 771.560546875 333.659179688 764.30078125 c 1
 360.372070312 757.62109375 376.78515625 751.661132812 382.8984375 746.420898438 c 0
 389.012695312 741.180664062 393.224609375 738.065429688 395.534179688 737.076171875 c 0
 403.359092559 733.721790293 407.271229856 729.257563157 407.271229856 723.683490468 c 0
 407.271229856 722.834591638 407.180493632 721.959951585 406.999023438 721.059570312 c 0
 405.625976562 714.247070312 402.134765625 709.026367188 396.524414062 705.396484375 c 0
 390.9140625 701.766601562 384.138671875 691.018554688 376.198242188 673.153320312 c 0
 368.2578125 655.287109375 360.677734375 630.559570312 353.458007812 598.970703125 c 1
 371.9375 575.2109375 392.067382812 545.180664062 413.84765625 508.880859375 c 0
 423.087890625 493.172851562 427.708007812 471.260742188 427.708007812 443.14453125 c 0
 427.708007812 365.749023438 421.438476562 312.420898438 408.8984375 283.16015625 c 0
 405.214485673 273.9527644 400.366030024 269.349068475 394.352694021 269.349068475 c 0
 392.104075864 269.349068475 389.692572441 269.992803463 387.118164062 271.280273438 c 0
 377.797851562 277.4921875 365.403320312 306.98828125 349.93359375 359.767578125 c 0
 334.463867188 412.546875 326.728515625 454.223632812 326.728515625 484.798828125 c 0
 326.728515625 515.373046875 330.688476562 551.780273438 338.608398438 594.01953125 c 1
 337.618164062 597.979492188 l 1
 337.618164062 604.91015625 l 2
 337.618164062 607.55078125 339.762695312 616.791015625 344.052734375 632.629882812 c 0
 348.342773438 648.469726562 351.3125 657.709960938 352.961914062 660.349609375 c 0
 354.612304688 662.989257812 355.602539062 664.969726562 355.932617188 666.290039062 c 0
 356.26171875 667.609375 356.591796875 669.094726562 356.921875 670.745117188 c 0
 357.251953125 672.39453125 357.912109375 674.209960938 358.901367188 676.190429688 c 0
 359.891601562 678.169921875 361.541992188 680.64453125 363.852539062 683.614257812 c 0
 366.162109375 686.583984375 367.647460938 688.893554688 368.307617188 690.54296875 c 0
 368.966796875 692.192382812 370.122070312 694.501953125 371.772460938 697.471679688 c 0
 373.421875 700.44140625 374.6875 703.6875 375.568359375 707.208984375 c 0
 376.448242188 710.73046875 378.427734375 714.030273438 381.506835938 717.109375 c 0
 384.5859375 720.1875 386.456054688 721.7265625 387.116210938 721.7265625 c 1
 387.116210938 726.786132812 369.130859375 735.146484375 333.161132812 746.806640625 c 0
 297.19140625 758.466796875 273.76171875 765.6171875 262.872070312 768.256835938 c 0
 251.982421875 770.896484375 238.452148438 772.216796875 222.282226562 772.216796875 c 0
 206.112304688 772.216796875 189.204101562 769.168945312 171.55859375 763.073242188 c 0
 153.913085938 756.977539062 142.60546875 751.4453125 137.63671875 746.4765625 c 1
 138.296875 745.817382812 141.266601562 744.33203125 146.546875 742.021484375 c 0
 168.977539062 732.208007812 203.459960938 678.97265625 249.994140625 582.315429688 c 0
 296.529296875 485.658203125 319.796875 428.838867188 319.796875 411.857421875 c 2
 319.796875 405.916992188 l 1
 317.817382812 401.95703125 l 2
 314.735847123 398.87549556 311.744875167 397.334790767 308.844466943 397.334790767 c 0
 306.00654802 397.334790767 303.255332476 398.809821761 300.590820312 401.759765625 c 0
 285.80859375 418.124023438 259.541015625 464.059570312 221.787109375 539.567382812 c 0
 213.20703125 553.427734375 194.7265625 573.0625 166.346679688 598.47265625 c 0
 137.966796875 623.881835938 118.166992188 642.03125 106.947265625 652.920898438 c 0
 95.7275390625 663.810546875 89.4580078125 671.235351562 88.138671875 675.1953125 c 0
 86.818359375 679.155273438 85.828125 681.134765625 85.16796875 681.134765625 c 2
 84.177734375 680.14453125 l 2
 80.2177734375 678.825195312 73.123046875 671.400390625 62.892578125 657.870117188 c 0
 52.6630859375 644.33984375 42.763671875 622.39453125 33.1943359375 592.034179688 c 0
 23.943359375 562.686523438 19.3173828125 539.3515625 19.3173828125 522.030273438 c 0
 19.3173828125 504.3828125 20.1474609375 493.067382812 21.80859375 488.083984375 c 0
 22.46875 488.083984375 24.119140625 489.239257812 26.7587890625 491.548828125 c 0
 29.3984375 493.858398438 38.0615234375 495.013671875 52.7470703125 495.013671875 c 0
 67.4326171875 495.013671875 95.3173828125 489.404296875 136.40234375 478.184570312 c 0
 177.487304688 466.96484375 220.059570312 448.765625 264.120117188 423.587890625 c 0
 308.181640625 398.41015625 355.78125 321.8984375 406.918945312 194.053710938 c 0
 430.678710938 133.994140625 451.138671875 74.923828125 468.298828125 16.84375 c 1
 470.279296875 16.84375 l 1
 468.298828125 26.744140625 467.30859375 36.314453125 467.30859375 45.5537109375 c 0
 467.30859375 87.1337890625 483.1484375 133.6640625 514.829101562 185.143554688 c 0
 522.749023438 198.34375 542.053710938 227.87890625 572.744140625 273.749023438 c 0
 603.434570312 319.619140625 625.874023438 356.249023438 640.063476562 383.638671875 c 0
 654.25390625 411.028320312 671.083984375 434.458007812 690.553710938 453.927734375 c 0
 727.321289062 490.6953125 764.446289062 512.310546875 801.928710938 518.7734375 c 0
 817.109375 522.733398438 828.82421875 524.712890625 837.07421875 524.712890625 c 2
 853.409179688 524.712890625 l 2
 882.099609375 522.323242188 903.626953125 517.10546875 917.9921875 509.060546875 c 0
 932.356445312 501.015625 943.333984375 494.0234375 950.923828125 488.083007812 c 0
 958.513671875 482.142578125 962.638671875 478.842773438 963.298828125 478.182617188 c 0
 963.958984375 477.5234375 965.279296875 477.193359375 967.258789062 477.193359375 c 0
 973.19921875 484.6171875 976.168945312 500.126953125 976.168945312 523.72265625 c 0
 976.168945312 573.22265625 946.138671875 624.04296875 886.079101562 676.182617188 c 0
 843.1796875 713.142578125 806.879882812 738.717773438 777.1796875 752.908203125 c 0
 748.155273438 766.776367188 727.24609375 773.709960938 714.452148438 773.709960938 c 0
 714.154296875 773.709960938 713.861328125 773.706054688 713.573242188 773.698242188 c 0
 700.868164062 773.368164062 692.618164062 771.552734375 688.823242188 768.252929688 c 0
 684.994140625 764.923828125 683.080078125 761.524414062 683.080078125 758.0546875 c 0xfffee0
 683.080078125 749.903320312 689.037109375 741.752929688 700.950195312 733.602539062 c 0
 707.556640625 729.197265625 710.860351562 719.0703125 710.860351562 703.22265625 c 0
 710.860351562 666.754882812 693.3671875 599.991210938 658.379882812 502.931640625 c 0
 633.116210938 432.553710938 607.045898438 371.833984375 580.169921875 320.772460938 c 0
 576.209960938 314.171875 573.405273438 310.211914062 571.755859375 308.891601562 c 0
 570.10546875 307.572265625 568.620117188 306.251953125 567.299804688 304.931640625 c 0
 565.98046875 303.612304688 564.990234375 302.952148438 564.330078125 302.952148438 c 0
 563.669921875 302.952148438 562.6796875 302.622070312 561.360351562 301.961914062 c 2
 558.389648438 301.961914062 l 2
 548.490234375 303.612304688 543.540039062 318.21484375 543.540039062 345.770507812 c 0
 543.540039062 393.25390625 549.150390625 445.837890625 560.370117188 503.5234375 c 0
 571.58984375 561.208984375 579.344726562 595.662109375 583.634765625 606.881835938 c 0
 587.924804688 618.1015625 593.700195312 625.69140625 600.959960938 629.651367188 c 0
 607.183713498 633.046217421 614.135241563 634.743642537 621.814545133 634.743642537 c 0
 623.092850906 634.743642537 624.391322841 634.696608046 625.709960938 634.602539062 c 0
 634.950195312 633.942382812 640.23046875 633.612304688 641.549804688 633.612304688 c 0
 647.490234375 635.09765625 650.459960938 640.749023438 650.459960938 650.56640625 c 0
 650.459960938 660.383789062 648.479492188 669.251953125 644.51953125 677.171875 c 0
 640.559570312 685.091796875 623.688476562 696.271484375 593.90625 710.711914062 c 0
 569.444335938 722.572265625 553.970703125 728.502929688 547.485351562 728.502929688 c 0
 546.075195312 728.502929688 545.08984375 728.22265625 544.530273438 727.662109375 c 0
 524.73046875 716.442382812 506.0859375 690.702148438 488.596679688 650.442382812 c 0
 471.106445312 610.181640625 462.361328125 571.901367188 462.361328125 535.6015625 c 2
 462.361328125 496.991210938 l 1
 463.350585938 496.000976562 l 1
 464.340820312 496.000976562 l 1
 475.22265625 482.3984375 490.127929688 445.465820312 509.056640625 385.203125 c 0
 518.493164062 355.159179688 523.2109375 324.830078125 523.2109375 294.216796875 c 0
 523.2109375 263.426757812 518.4375 232.348632812 508.891601562 200.982421875 c 0
 500.076171875 171.890625 487.206054688 147.470703125 470.28125 127.721679688 c 0
 465.000976562 122.44140625 460.05078125 119.801757812 455.430664062 119.801757812 c 0
 448.171875 119.801757812 441.572265625 126.072265625 435.631835938 138.612304688 c 0
 423.091796875 165.083984375 416.822265625 198.744140625 416.822265625 239.592773438 c 0
 416.822265625 249.493164062 417.317382812 257.248046875 418.306640625 262.858398438 c 0
 419.296875 268.46875 421.442382812 280.84375 424.7421875 299.983398438 c 0
 428.041992188 319.123046875 430.516601562 336.283203125 432.166015625 351.462890625 c 0
 433.815429688 366.643554688 436.125 385.124023438 439.094726562 406.904296875 c 0
 444.044921875 443.202148438 446.51953125 473.727539062 446.51953125 498.479492188 c 2
352.001953125 572.006835938 m 1
 346.354492188 534.830078125 343.53125 505.4609375 343.53125 483.897460938 c 0
 343.53125 474.912109375 344.021484375 467.282226562 345.001953125 461.0078125 c 0
 357.668945312 378.340820312 373.668945312 320.673828125 393.001953125 288.006835938 c 1
 393.001953125 289.006835938 l 1
 405.001953125 317.006835938 411.001953125 355.772460938 411.001953125 405.303710938 c 0
 411.001953125 454.834960938 407.001953125 487.001953125 399.001953125 501.803710938 c 0
 391.001953125 516.60546875 375.334960938 540.006835938 352.001953125 572.006835938 c 1
457.001953125 476.0078125 m 1
 452.334960938 400.674804688 447.169921875 345.513671875 441.502929688 310.513671875 c 0
 435.484375 273.340820312 432.475585938 248.967773438 432.475585938 237.39453125 c 0
 432.475585938 225.029296875 435.151367188 206.569335938 440.502929688 182.013671875 c 0
 446.169921875 156.013671875 451.002929688 141.013671875 455.002929688 137.013671875 c 0
 458.3359375 138.346679688 463.668945312 144.1796875 471.001953125 154.512695312 c 0
 478.334960938 164.845703125 486.16796875 183.178710938 494.500976562 209.51171875 c 0
 502.833984375 235.844726562 507.000976562 264.177734375 507.000976562 294.510742188 c 0
 507.000976562 324.84375 501.500976562 357.176757812 490.500976562 391.509765625 c 0
 479.500976562 425.842773438 471.333984375 448.17578125 466.000976562 458.508789062 c 0
 460.66796875 468.841796875 457.834960938 474.174804688 457.501953125 474.5078125 c 0
 457.168945312 474.840820312 457.001953125 475.340820312 457.001953125 476.0078125 c 1
EndSplineSet
Validated: 524289
EndChar

StartChar: numbersign
Encoding: 35 35 2
Width: 800
GlyphClass: 2
Flags: W
HStem: -0.0332031 17.0332<255.629 418.918> 186.999 18.207<611.246 639.93> 263 16.7656<533.319 563.481> 297.063 16.5722<600.31 627.615> 344 15.9375<455.373 483.375> 377 16.6113<523.151 550.925> 419.999 16.9082<377.707 404.434> 455.166 17.0148<443.822 472.893> 482.894 17.7144<470.068 489.124> 534.51 17.1797<567.968 585.669> 557.404 17.4033<234.689 236.444 236.445 245.11> 582.824 17.005<355.47 366.349 663.833 678.484> 596.278 16.25<496.596 513.172> 608.479 15.9805<279.944 291.158 413.814 445.698> 627.9 20G<213.488 217.429> 647.766 16.7119<589.969 606.916> 697.928 17.4795<361.167 425.197> 784.863 16.9033<419.245 478.235>
VStem: 51.2422 17.7559<115.417 175.61> 153.062 16.7031<478.561 580.658> 217.603 16.7874<578.939 631.525> 291.926 17.9414<549.343 608.393> 344.452 16.5156<717.39 729.795> 363.094 17.6643<437.022 474.336 569.391 582.263 633.262 638.15> 406.157 15.9337<767.91 778.623> 425.656 16.5575<684.444 696.196> 438.997 16.3213<360.093 389.847 595.517 611.946> 472.997 16.3829<425.895 455.13 567.483 595.256> 491.136 16.8237<500.765 555.524> 516.999 16.0654<279.806 307.233> 550.999 15.7627<347.695 376.745> 573.848 15.7803<597.106 647.691> 585.804 17.2832<552.076 609.755> 593.999 16.8594<205.03 233.007> 627.999 17.334<267.567 296.936> 731.92 16.834<331.22 490.02>
LayerCount: 2
Fore
SplineSet
459 344 m 0xffe0ffbe70
 445.666992188 344 438.997070312 351.333007812 438.997070312 366 c 0
 438.997070312 374.666992188 444.6640625 389 455.997070312 409 c 0
 467.330078125 429 472.997070312 443 472.997070312 451 c 0
 472.997070312 453.77723527 471.839662937 455.165852905 469.525413162 455.165852905 c 0
 469.06229198 455.165852905 468.552842854 455.110243083 467.997070312 454.999023438 c 0
 459.330078125 453.666015625 447.330078125 448.999023438 431.997070312 440.999023438 c 0
 410.6640625 429.666015625 399.331054688 423.666015625 397.998046875 422.999023438 c 0
 395.331054688 420.999023438 389.6640625 419.999023438 380.997070312 419.999023438 c 0
 374.330078125 419.999023438 369.330078125 421.999023438 365.997070312 425.999023438 c 0
 362.6640625 429.999023438 360.997070312 435.999023438 360.997070312 443.999023438 c 0
 360.997070312 452.666015625 363.997070312 462.333007812 369.997070312 473 c 2
 379.997070312 491 l 1
 381.997070312 495 l 1
 382.997070312 497 l 1
 382.997070312 500 l 2
 383.6640625 501.333007812 384.331054688 502.333007812 384.998046875 503 c 1
 230.998046875 378 l 1
 231.998046875 377 l 1
 223.998046875 372 l 2
 211.998046875 365.333007812 193.998046875 350.333007812 169.998046875 327 c 0
 146.665039062 304.333007812 127.998046875 282 113.998046875 260 c 0
 99.998046875 238 89.3310546875 215.333007812 81.998046875 192 c 0
 73.3310546875 164.666992188 68.998046875 141.666992188 68.998046875 123 c 1
 104.331054688 89.6669921875 144.998046875 63.6669921875 190.998046875 45 c 0
 236.998046875 26.3330078125 285.665039062 17 336.998046875 17 c 0
 408.998046875 17 475.998046875 35 537.998046875 71 c 0
 598.665039062 106.333007812 646.33203125 154.666015625 680.999023438 215.999023438 c 1
 656.999023438 203.999023438 l 2
 634.33203125 192.666015625 620.33203125 186.999023438 614.999023438 186.999023438 c 0
 600.999023438 187.666015625 593.999023438 195.333007812 593.999023438 210 c 0
 593.999023438 218.666992188 598.666015625 231 607.999023438 247 c 0
 621.33203125 269.666992188 627.999023438 284 627.999023438 290 c 0
 627.999023438 294 626.666015625 296.333007812 623.999023438 297 c 2
 622.999023438 297 l 2
 622.70722795 297.041702515 622.389373967 297.062553653 622.045461252 297.062553653 c 0
 616.888816129 297.062553653 605.873605059 292.374767567 588.999023438 283 c 0
 564.999023438 269.666992188 548.999023438 263 540.999023438 263 c 2
 539.999023438 263 l 2
 532.666015625 263.666992188 526.999023438 266 522.999023438 270 c 1
 518.999023438 274.666992188 516.999023438 279.333984375 516.999023438 284.000976562 c 0
 516.999023438 295.333984375 521.999023438 309.666992188 531.999023438 327 c 0
 544.666015625 349 550.999023438 362.666992188 550.999023438 368 c 0
 550.999023438 374 549.33203125 377 545.999023438 377 c 0
 539.999023438 377 527.999023438 372 509.999023438 362 c 0
 495.982421875 354.657226562 484.37890625 348.9765625 475.189453125 344.958007812 c 0
 473.729492188 344.319335938 468.333007812 344 459 344 c 0xffe0ffbe70
384.764648438 539.530273438 m 2
 386.90234375 536.323242188 389.241210938 534.719726562 391.780273438 534.719726562 c 0
 394.318359375 534.719726562 397.591796875 536.323242188 401.600585938 539.530273438 c 0
 401.600585938 540.064453125 401.8671875 540.866210938 402.401367188 541.935546875 c 2
 397.592773438 550.754882812 l 1
 387.168945312 547.547851562 l 1
 384.764648438 539.530273438 l 2
306.595703125 533.91796875 m 0
 296.815429688 537.831054688 291.92578125 549.16796875 291.92578125 567.932617188 c 2
 292.072265625 581.341796875 l 2
 292.072265625 599.432617188 290.900390625 608.478515625 288.557617188 608.478515625 c 2
 287.754882812 608.478515625 l 2
 284.498046875 606.846679688 279.006835938 600.55859375 271.28125 589.615234375 c 0
 259.5 572.92578125 250.827148438 562.911132812 245.262695312 559.571289062 c 0
 242.01171875 558.126953125 239.015625 557.404296875 236.274414062 557.404296875 c 0
 227.66015625 557.404296875 221.5703125 564.541015625 218.00390625 578.813476562 c 0
 217.736816406 581.485839844 217.603271484 584.893310547 217.603271484 589.035766601 c 0
 217.603271484 593.178222656 217.736816406 598.055664062 218.00390625 603.66796875 c 0
 218.217253518 608.14911023 218.323939029 612.094647363 218.323939029 615.504603903 c 0
 218.323939029 623.863473535 217.682872861 629.004074872 216.400390625 630.926757812 c 2
 216.400390625 631.727539062 l 1
 214.54296875 630.80078125 209.53515625 624.422851562 201.377929688 612.59375 c 0
 192.03125 599.040039062 183.943359375 588.849609375 177.115234375 582.021484375 c 1
 173.106445312 581.220703125 l 1
 170.87890625 569.194335938 169.765625 557.91015625 169.765625 547.368164062 c 0
 169.765625 545.259765625 169.810546875 543.181640625 169.899414062 541.1328125 c 0
 169.899414062 485.545898438 186.735351562 435.5703125 220.408203125 391.20703125 c 1
 381.55859375 521.08984375 l 1
 371.403320312 526.434570312 366.326171875 534.184570312 366.326171875 544.33984375 c 0
 366.326171875 547.012695312 367.127929688 549.952148438 368.73046875 553.158203125 c 0
 367.661132812 557.434570312 366.993164062 563.180664062 366.7265625 570.396484375 c 0
 366.459960938 577.612304688 365.256835938 581.754882812 363.118164062 582.82421875 c 2
 362.31640625 582.82421875 l 2xfff4ff9e30
 359.016601562 581.174804688 353.782226562 575.016601562 346.61328125 564.350585938 c 0
 334.66015625 546.56640625 326.004882812 536.647460938 320.646484375 534.59375 c 0
 317.637130258 533.440356213 314.840616838 532.863572825 312.256944116 532.863572825 c 0
 310.240178559 532.863572825 308.353098229 533.215010709 306.595703125 533.91796875 c 0
624.485351562 313.438476562 m 0
 638.3828125 313.438476562 645.333007812 306.491210938 645.333007812 292.594726562 c 0
 645.333007812 283.2421875 640.254882812 269.946289062 630.099609375 252.708007812 c 0
 619.944335938 235.470703125 614.198242188 224.1796875 612.862304688 218.834960938 c 0
 611.526367188 213.490234375 610.858398438 210.015625 610.858398438 208.411132812 c 0
 610.858398438 206.80859375 611.125976562 205.740234375 611.66015625 205.206054688 c 2
 612.461914062 205.206054688 l 2
 612.99609375 204.671875 613.930664062 204.404296875 615.266601562 204.404296875 c 0
 620.345703125 204.404296875 633.173828125 209.8828125 653.750976562 220.83984375 c 0
 674.329101562 231.796875 687.0234375 237.809570312 691.833984375 238.87890625 c 0
 718.557617188 293.397460938 731.919921875 351.255859375 731.919921875 412.455078125 c 0
 731.919921875 473.655273438 717.221679688 533.1171875 687.825195312 590.840820312 c 1
 682.960322279 587.19321551 678.513895244 585.369413109 674.485554572 585.369413109 c 0
 672.893853663 585.369413109 671.3674262 585.65415301 669.90625 586.223632812 c 0
 661.249023438 589.596679688 649.376953125 598.826171875 634.290039062 613.912109375 c 0
 612.255859375 635.946289062 599.3671875 646.962890625 595.624023438 646.962890625 c 0
 594.555664062 647.498046875 593.75390625 647.765625 593.219726562 647.765625 c 0
 590.825380679 645.364913292 589.627943578 641.947542334 589.627943578 637.512983812 c 0xffe9ffbf70
 589.627943578 636.505201538 589.689785839 635.444886085 589.813476562 634.33203125 c 0
 590.481445312 628.321289062 592.685546875 617.298828125 596.426757812 601.263671875 c 0
 600.8671875 582.236328125 603.086914062 568.357421875 603.086914062 559.625976562 c 0
 603.086914062 556.412109375 602.786132812 553.895507812 602.184570312 552.076171875 c 0
 598.313476562 540.365234375 592.120117188 534.509765625 583.60546875 534.509765625 c 0
 571.780273438 534.509765625 555.4765625 545.803710938 534.694335938 568.392578125 c 0
 516.103515625 586.983398438 504.3828125 596.278320312 499.532226562 596.278320312 c 0
 498.8046875 596.278320312 498.231445312 596.069335938 497.8125 595.651367188 c 0
 496.249023438 594.087890625 495.467773438 590.833007812 495.467773438 585.88671875 c 0
 495.467773438 579.393554688 496.815429688 569.985351562 499.509765625 557.662109375 c 0
 505.143554688 531.903320312 507.959960938 514.415039062 507.959960938 505.197265625 c 0
 507.959960938 502.59375 507.735351562 500.650390625 507.286132812 499.366210938 c 0
 505.24609375 493.536132812 501.6875 489.151367188 496.610351562 486.211914062 c 0
 492.789034362 483.999760314 488.924942508 482.893636928 485.018075998 482.893636928 c 0
 480.370435538 482.893636928 475.662261768 484.458986999 470.893554688 487.58984375 c 0
 462.115234375 493.352539062 452.380859375 501.4453125 441.690429688 511.868164062 c 0
 431 522.291015625 422.715820312 529.373046875 416.836914062 533.114257812 c 1
 415.232421875 529.373046875 413.094726562 526.43359375 410.422851562 524.295898438 c 2
 410.422851562 523.494140625 l 1
 409.62109375 522.693359375 l 1
 408.721679688 512.801757812 403.686523438 499.772460938 394.514648438 483.60546875 c 0
 383.205078125 463.668945312 377.55078125 451.168945312 377.55078125 446.10546875 c 0
 377.55078125 441.041992188 379.154296875 437.975585938 382.361328125 436.907226562 c 0
 387.631835938 436.907226562 398.5703125 441.583984375 415.176757812 450.9375 c 0
 440.322265625 465.099609375 456.984375 472.180664062 465.163085938 472.180664062 c 0
 465.451171875 472.180664062 465.728515625 472.171875 465.995117188 472.154296875 c 0
 473.84375 471.637695312 479.772460938 469.375 483.78125 465.366210938 c 0
 487.513814819 461.633646118 489.379980474 456.936091609 489.379980474 451.273780917 c 0
 489.379980474 447.813335487 488.68299005 443.992565228 487.2890625 439.811523438 c 0
 483.614257812 428.788085938 478.03515625 416.594726562 470.551757812 403.232421875 c 0
 463.069335938 389.870117188 458.66015625 380.916992188 457.323242188 376.374023438 c 0
 455.986328125 371.831054688 455.318359375 367.956054688 455.318359375 364.749023438 c 0xffe9ffbeb0
 455.318359375 361.541015625 456.788085938 359.9375 459.727539062 359.9375 c 0
 466.331054688 359.9375 478.471679688 364.748046875 496.149414062 374.369140625 c 0
 519.71875 387.197265625 536.575195312 393.611328125 546.717773438 393.611328125 c 0
 560.080078125 393.611328125 566.76171875 386.663085938 566.76171875 372.766601562 c 0
 566.76171875 362.399414062 562.21875 348.583007812 553.131835938 331.317382812 c 0
 539.75390625 305.8984375 533.064453125 290.87109375 533.064453125 286.235351562 c 0
 533.064453125 281.921875 534.80859375 279.765625 538.297851562 279.765625 c 0
 541.23828125 279.765625 545.11328125 280.43359375 549.923828125 281.76953125 c 0
 554.734375 283.106445312 563.8203125 287.783203125 577.182617188 295.799804688 c 0
 596.999023438 307.689453125 611.796875 313.634765625 621.575195312 313.634765625 c 0
 622.600585938 313.634765625 623.5703125 313.569335938 624.485351562 313.438476562 c 0
365.525390625 701.48046875 m 0
 351.475585938 704.291015625 344.452148438 710.201171875 344.452148438 719.208984375 c 0
 344.452148438 723.090820312 345.756835938 727.548828125 348.366210938 732.58203125 c 0
 351.356445312 738.348632812 360.752929688 745.595703125 376.555664062 754.323242188 c 0
 392.358398438 763.05078125 402.153320312 769.864257812 405.94140625 774.763671875 c 0
 406.084851384 774.949288647 406.15657419 775.134541562 406.15657419 775.319430619 c 0
 406.15657419 777.480775646 396.355288305 779.592397732 376.751953125 781.654296875 c 1
 330.250976562 774.171875 289.228515625 755.063476562 253.684570312 724.330078125 c 0
 218.140625 693.596679688 193.6875 656.048828125 180.325195312 611.686523438 c 1
 181.6640625 613.025390625 182.533203125 614.295898438 182.932617188 615.498046875 c 0
 184.609375 620.540039062 188.46875 626.510742188 194.510742188 633.41015625 c 0
 202.97265625 643.0703125 210.345703125 647.900390625 216.629882812 647.900390625 c 0
 218.227539062 647.900390625 219.754882812 647.587890625 221.211914062 646.963867188 c 0
 228.936523438 645.033203125 233.2734375 640.408203125 234.221679688 633.088867188 c 0
 234.827974488 628.408970663 235.131249521 622.931002315 235.131249521 616.654962144 c 0
 235.131249521 613.115305296 235.034780571 609.321789269 234.841796875 605.274414062 c 0
 234.541069555 598.963503238 234.390705896 593.659591367 234.390705896 589.362646715 c 0
 234.390705896 580.194347192 235.075249243 575.610351562 236.444335938 575.610351562 c 1
 236.444335938 575.075195312 236.711914062 574.807617188 237.247070312 574.807617188 c 2
 238.047851562 574.807617188 l 2
 241.740234375 576.040039062 247.620117188 583.255859375 255.6875 596.454101562 c 0
 269.444335938 615.124023438 281.012695312 624.458984375 290.392578125 624.458984375 c 0
 295.874023438 624.458984375 300.607421875 621.270507812 304.59375 614.89453125 c 0
 308.248046875 609.413085938 310.075195312 600.5078125 310.075195312 588.1796875 c 2
 309.8671875 574.525390625 l 2
 309.8671875 559.973632812 311.048828125 551.515625 313.412109375 549.15234375 c 1
 313.412109375 549.954101562 l 2
 315.9609375 550.802734375 321.141601562 556.760742188 328.953125 567.828125 c 0
 341.916015625 586.192382812 350.717773438 596.356445312 355.358398438 598.3203125 c 0
 357.734947854 599.326256696 360.239097935 599.829228795 362.870848681 599.829228795 c 0
 365.376966372 599.829228795 367.998792855 599.373131696 370.736328125 598.4609375 c 0
 379.020507812 595.69921875 383.163085938 585.944335938 383.163085938 569.196289062 c 1
 385.568450963 570.398971575 388.124340146 571.000106814 390.830341453 571.000106814 c 0
 391.732204508 571.000106814 392.650741609 570.933334354 393.5859375 570.799804688 c 2
 394.387695312 570.799804688 l 1
 394.387695312 571.6015625 l 1
 399.198242188 575.877929688 407.349609375 581.356445312 418.840820312 588.037109375 c 0
 436.74609375 598.447265625 445.698242188 604.995117188 445.698242188 607.6796875 c 0
 445.698242188 608.21484375 445.1640625 608.616210938 444.095703125 608.8828125 c 0
 443.026367188 609.149414062 440.754882812 609.817382812 437.28125 610.88671875 c 0
 433.806640625 611.956054688 425.7890625 612.7578125 413.228515625 613.291992188 c 0
 391.176757812 614.229492188 377.84765625 616.735351562 373.240234375 620.809570312 c 0
 366.475879257 626.789849187 363.093510262 632.323381557 363.093510262 637.410167423 c 0
 363.093510262 639.273494011 363.547359944 641.076875703 364.455078125 642.8203125 c 0
 367.840820312 649.323242188 371.671875 654.3125 375.948242188 657.787109375 c 0
 380.224609375 661.260742188 387.840820312 666.205078125 398.797851562 672.619140625 c 0
 416.703125 683.099609375 425.65625 689.647460938 425.65625 692.26171875 c 0xfff6ffde30
 425.65625 695.274414062 416.704101562 697.163085938 398.798828125 697.927734375 c 0
 380.893554688 698.692382812 369.802734375 699.876953125 365.525390625 701.48046875 c 0
419.245117188 784.86328125 m 1
 420.84765625 782.724609375 421.645507812 781.127929688 421.645507812 780.059570312 c 2
 421.645507812 779.256835938 l 2
 421.941993684 777.775162918 422.090240165 776.333323057 422.090240165 774.931316354 c 0
 422.090240165 769.092429089 419.518989648 763.9444252 414.375976562 759.487304688 c 0
 407.998046875 753.959960938 399.197265625 747.989257812 387.97265625 741.575195312 c 0
 369.969726562 731.287109375 360.967773438 724.553710938 360.967773438 721.375 c 0
 360.967773438 718.192382812 369.854492188 716.203125 387.627929688 715.407226562 c 0
 410.356445312 714.390625 425.704101562 711.888671875 433.670898438 707.901367188 c 0
 437.947265625 705.228515625 440.620117188 701.487304688 441.689453125 696.676757812 c 2
 441.689453125 695.875 l 2
 442.038973007 694.302639325 442.213729265 692.776551761 442.213729265 691.296729941 c 0
 442.213729265 685.230835796 439.277408216 679.942316277 433.405273438 675.430664062 c 0
 421.453125 666.249023438 405.5078125 655.959960938 385.569335938 644.564453125 c 0
 383.430664062 642.426757812 382.094726562 640.555664062 381.560546875 638.951171875 c 2
 380.7578125 638.150390625 l 1
 380.7578125 637.348632812 l 2
 380.7578125 634.623046875 389.443359375 632.471679688 406.814453125 630.89453125 c 0
 433.228515625 628.497070312 448.584960938 625.766601562 452.8828125 622.703125 c 0
 458.87109375 618.432617188 461.865234375 613.583007812 461.865234375 608.153320312 c 0
 461.865234375 602.048828125 458.080078125 595.2109375 450.509765625 587.640625 c 0
 445.69921875 583.899414062 439.686523438 579.890625 432.470703125 575.614257812 c 0
 425.254882812 571.337890625 418.70703125 567.0625 412.828125 562.787109375 c 1
 415.500976562 560.114257812 417.37109375 556.10546875 418.439453125 550.760742188 c 1
 424.565429688 549.229492188 434.381835938 542.032226562 447.888671875 529.16796875 c 0
 461.395507812 516.303710938 470.420898438 508.53515625 474.96484375 505.862304688 c 0
 480.919837599 502.359269378 484.767417945 500.60805247 486.508186285 500.60805247 c 0
 486.81337781 500.60805247 487.053812031 500.66187981 487.229492188 500.76953125 c 0
 489.833804446 502.367739898 491.136220628 505.483437073 491.136220628 510.116622774 c 0
 491.136220628 511.199310372 491.065099819 512.364863197 490.922851562 513.61328125 c 0
 490.171875 520.204101562 488.059570312 531.3828125 484.5859375 547.149414062 c 0
 480.735351562 564.626953125 478.809570312 577.766601562 478.809570312 586.568359375 c 0
 478.809570312 589.857421875 479.078125 592.541015625 479.616210938 594.618164062 c 0
 482.705078125 606.55859375 488.704101562 612.528320312 497.61328125 612.528320312 c 0
 503.586914062 612.528320312 510.870117188 609.84375 519.461914062 604.473632812 c 0
 525.341796875 600.197265625 534.161132812 592.1796875 545.919921875 580.420898438 c 0
 565.07421875 561.266601562 577.224609375 551.689453125 582.370117188 551.689453125 c 0
 584.260742188 551.689453125 585.206054688 552.981445312 585.206054688 555.56640625 c 0
 585.604492188 557.161132812 585.803710938 559.228515625 585.803710938 561.768554688 c 0xffe9ffdeb0
 585.803710938 568.873046875 584.245117188 579.677734375 581.12890625 594.181640625 c 0
 576.274414062 616.772460938 573.84765625 632.66015625 573.84765625 641.84375 c 0
 573.84765625 644.958007812 574.126953125 647.30078125 574.684570312 648.873046875 c 0
 578.375976562 659.276367188 584.345703125 664.477539062 592.59375 664.477539062 c 0xffe9ff9f30
 598.749023438 664.477539062 606.173828125 661.580078125 614.868164062 655.78515625 c 0
 620.212890625 651.508789062 628.764648438 643.08984375 640.5234375 630.529296875 c 0
 658.237304688 611.606445312 669.618164062 602.145507812 674.666015625 602.145507812 c 0
 675.47265625 602.145507812 676.1171875 602.38671875 676.600585938 602.870117188 c 0
 677.134765625 603.404296875 677.669921875 603.938476562 678.206054688 604.47265625 c 2
 679.006835938 609.282226562 l 1
 646.9375 664.334960938 604.98046875 708.698242188 553.135742188 742.37109375 c 1
 550.729492188 743.173828125 l 1
 511.711914062 769.897460938 467.883789062 783.793945312 419.245117188 784.86328125 c 1
283.345703125 766.830078125 m 0
 323.735351562 790.1015625 369.021484375 801.74609375 419.203125 801.766601562 c 0
 469.200195312 801.766601562 515.712890625 787.046875 558.741210938 757.608398438 c 1
 561.147460938 756.806640625 l 1
 561.94921875 756.004882812 l 1
 618.606445312 719.125 663.904296875 669.952148438 697.84375 608.486328125 c 0
 731.784179688 547.01953125 748.75390625 481.009765625 748.75390625 410.45703125 c 0
 748.75390625 317.956054688 722.296875 236.98046875 669.381835938 167.530273438 c 0
 615.341796875 96.6025390625 547.99609375 47.6962890625 467.344726562 20.8115234375 c 0
 425.654296875 6.9150390625 379.955078125 -0.033203125 330.247070312 -0.033203125 c 0
 280.5390625 -0.033203125 231.366210938 9.85546875 182.727539062 29.6318359375 c 0
 131.362304688 50.515625 87.5341796875 79.1103515625 51.2421875 115.416992188 c 1
 51.2421875 118.624023438 l 2
 51.2421875 138.729492188 55.6513671875 162.864257812 64.470703125 191.02734375 c 0
 73.2900390625 219.190429688 84.9150390625 245.03125 99.3466796875 268.548828125 c 0
 131.416015625 318.791992188 168.563476562 356.20703125 210.7890625 380.793945312 c 1
 172.3046875 430.501953125 153.0625 481.412109375 153.0625 533.524414062 c 0
 153.0625 585.63671875 164.688476562 631.736328125 187.939453125 671.823242188 c 0
 211.190429688 711.91015625 242.9921875 743.579101562 283.345703125 766.830078125 c 0
EndSplineSet
Validated: 524289
EndChar

StartChar: dollar
Encoding: 36 36 3
Width: 800
GlyphClass: 2
Flags: W
HStem: 0 16.001<437.251 461.967> 783.202 16.7998<480.639 506.822>
VStem: 287.001 16.9385<347.921 433.827> 373.307 16.6943<350.999 433.531> 398 16.5537<54.4793 177.855> 443.002 15.9561<659.252 750.471> 484.153 15.8486<56.4834 175.237> 528.951 16.0508<658.413 750.556>
LayerCount: 2
Fore
SplineSet
319 310 m 0
 297.666992188 330 287.000976562 355.334960938 287.000976562 386.001953125 c 0
 287.000976562 392.001953125 287.333984375 398.001953125 288.000976562 404.001953125 c 0
 292.66796875 442.668945312 309.334960938 476.668945312 338.001953125 506.001953125 c 0
 366.001953125 534.001953125 390.668945312 567.668945312 412.001953125 607.001953125 c 0
 432.668945312 645.001953125 443.001953125 676.668945312 443.001953125 702.001953125 c 0
 443.001953125 727.334960938 447.668945312 750.001953125 457.001953125 770.001953125 c 0
 466.334960938 790.001953125 478.334960938 800.001953125 493.001953125 800.001953125 c 0
 508.334960938 800.001953125 521.001953125 790.001953125 531.001953125 770.001953125 c 0
 540.334960938 750.668945312 545.001953125 727.001953125 545.001953125 699.001953125 c 0
 545.001953125 673.668945312 534.334960938 640.668945312 513.001953125 600.001953125 c 0
 492.334960938 560.668945312 467.66796875 526.668945312 439.000976562 498.001953125 c 0
 412.333984375 471.334960938 396.333984375 440.334960938 391.000976562 405.001953125 c 0
 390.333984375 400.334960938 390.000976562 395.334960938 390.000976562 390.001953125 c 0
 390.66796875 362.668945312 400.334960938 339.3359375 419.001953125 320.002929688 c 0
 441.001953125 297.3359375 460.001953125 266.668945312 476.001953125 228.001953125 c 0
 492.001953125 189.334960938 500.001953125 153.66796875 500.001953125 121.000976562 c 0
 500.001953125 70.333984375 490.668945312 33.6669921875 472.001953125 11 c 0
 465.334960938 3 457.66796875 -0.6669921875 449.000976562 0 c 0
 432.333984375 0.6669921875 419.666992188 13 411 37 c 0
 402.333007812 61 398 88.6669921875 398 120 c 0
 398 151.069335938 390.258789062 184.8359375 374.775390625 221.299804688 c 0
 357.591796875 261.766601562 339 291.333007812 319 310 c 0
470.58203125 759.202148438 m 0
 462.819335938 743.716796875 458.939453125 723.858398438 458.939453125 699.630859375 c 2
 458.958007812 696.247070312 l 2
 458.958007812 671.055664062 448.556640625 638.973632812 427.752929688 600 c 0
 406.686523438 560.533203125 382.01953125 526.666992188 353.752929688 498.400390625 c 0
 325.486328125 470.133789062 309.219726562 438.666992188 304.953125 404 c 0
 304.27734375 398.508789062 303.939453125 393.174804688 303.939453125 387.998046875 c 0
 303.939453125 360.493164062 313.477539062 337.427734375 332.553710938 318.80078125 c 0
 355.220703125 296.666992188 374.553710938 266.400390625 390.553710938 228.000976562 c 0
 406.553710938 189.6015625 414.553710938 154.53515625 414.553710938 122.801757812 c 0
 414.553710938 91.068359375 417.487304688 67.4677734375 423.353515625 52.0009765625 c 0
 429.220703125 36.5341796875 434.154296875 26.66796875 438.154296875 22.4013671875 c 0
 442.154296875 18.134765625 445.887695312 16.0009765625 449.353515625 16.0009765625 c 0
 457.797851562 16.0009765625 465.708984375 26.0009765625 473.086914062 46.0009765625 c 0
 480.46484375 66.0009765625 484.153320312 90.9345703125 484.153320312 120.80078125 c 0
 484.153320312 150.666992188 476.153320312 184.400390625 460.153320312 222.000976562 c 0
 444.153320312 259.6015625 424.686523438 289.868164062 401.752929688 312.801757812 c 0
 382.7890625 331.765625 373.306640625 356.108398438 373.306640625 385.831054688 c 0
 373.306640625 392.051757812 373.721679688 398.508789062 374.552734375 405.201171875 c 0
 379.352539062 443.868164062 396.15234375 477.6015625 424.952148438 506.401367188 c 0
 453.751953125 535.201171875 478.28515625 568.66796875 498.551757812 606.801757812 c 0
 518.818359375 644.935546875 528.951171875 675.735351562 528.951171875 699.202148438 c 0
 528.951171875 722.668945312 525.884765625 740.801757812 519.750976562 753.6015625 c 0
 510.294921875 773.334960938 501.741210938 783.202148438 494.08984375 783.202148438 c 0
 486.438476562 783.202148438 478.602539062 775.202148438 470.58203125 759.202148438 c 0
EndSplineSet
Validated: 524289
EndChar

StartChar: percent
Encoding: 37 37 4
Width: 800
GlyphClass: 2
Flags: W
HStem: -0.995117 21G<233.664 244.331> 261.004 14.9961<262.707 349.054 448.439 532.682> 288.004 14.9961<371.512 426.368> 528.006 14.9971<232.205 278.287 521.041 566.19> 581.928 16.0762<253.999 269.649 527.211 553.434> 679.004 16.002<633.645 645.996> 779.008 20G<160.333 168.333 388.328 409.661>
VStem: 143.998 13.9766<227.861 259.732> 214.997 14<15.9986 25.8974> 276.998 13.8604<424.347 504.351> 318.994 14.002<636.163 732.225> 464.997 14.9971<634.042 732.158> 506.999 13.9971<418.097 506.543> 640.223 13.7734<228.458 261.591 648.545 679.004>
LayerCount: 2
Fore
SplineSet
479 367 m 1
 497.666992188 401 506.999023438 434.00390625 506.999023438 466.00390625 c 0
 506.999023438 483.336914062 503.666015625 499.669921875 496.999023438 515.002929688 c 2
 482.999023438 549.002929688 l 1
 470.999023438 567.002929688 l 1
 490.999023438 560.002929688 l 2
 524.33203125 548.669921875 545.665039062 543.002929688 554.998046875 543.002929688 c 0
 556.331054688 543.002929688 557.6640625 543.3359375 558.997070312 544.002929688 c 0
 560.330078125 544.669921875 562.663085938 546.669921875 565.99609375 550.002929688 c 0
 597.329101562 578.669921875 621.99609375 616.336914062 639.99609375 663.00390625 c 0
 643.329101562 671.670898438 645.329101562 676.670898438 645.99609375 678.00390625 c 2
 645.99609375 679.00390625 l 1
 644.99609375 679.00390625 l 1
 634.99609375 674.336914062 620.329101562 660.669921875 600.99609375 638.002929688 c 0
 581.663085938 615.3359375 569.99609375 602.002929688 565.99609375 598.002929688 c 2
 556.99609375 589.002929688 l 2
 552.99609375 584.3359375 548.99609375 582.002929688 544.99609375 582.002929688 c 0
 535.663085938 582.669921875 520.330078125 591.002929688 498.997070312 607.002929688 c 2
 466.997070312 630.002929688 l 1
 464.997070312 632.002929688 l 1
 464.997070312 708.002929688 l 2
 464.997070312 720.002929688 457.6640625 735.3359375 442.997070312 754.002929688 c 0
 428.330078125 772.669921875 413.663085938 782.669921875 398.99609375 784.002929688 c 0
 383.663085938 782.669921875 368.99609375 773.002929688 354.99609375 755.002929688 c 0
 340.329101562 736.3359375 332.99609375 720.668945312 332.99609375 708.001953125 c 2
 332.99609375 632.001953125 l 1
 288.700195312 598.619140625 262.33203125 581.927734375 253.891601562 581.927734375 c 0
 253.56640625 581.927734375 253.268554688 581.952148438 252.997070312 582.001953125 c 0
 248.997070312 582.668945312 245.6640625 584.3359375 242.997070312 587.002929688 c 2
 230.997070312 599.002929688 l 2
 223.6640625 605.669921875 214.331054688 615.336914062 202.998046875 628.00390625 c 0
 184.331054688 649.336914062 171.6640625 661.00390625 164.997070312 663.00390625 c 0
 164.330078125 663.670898438 163.663085938 664.00390625 162.99609375 664.00390625 c 1
 162.99609375 663.00390625 l 2
 164.99609375 652.336914062 172.663085938 636.00390625 185.99609375 614.00390625 c 0
 197.329101562 596.00390625 207.99609375 580.670898438 217.99609375 568.00390625 c 0
 226.663085938 557.336914062 231.99609375 550.669921875 233.99609375 548.002929688 c 0
 235.99609375 545.3359375 237.663085938 544.002929688 238.99609375 544.002929688 c 1
 238.99609375 543.002929688 l 1
 243.99609375 543.002929688 l 2
 244.440429688 542.928710938 244.971679688 542.891601562 245.588867188 542.891601562 c 0
 250.52734375 542.891601562 260.99609375 545.26171875 276.99609375 550.002929688 c 2
 306.99609375 560.002929688 l 1
 325.99609375 568.002929688 l 1
 315.99609375 549.002929688 l 2
 299.237304688 519.830078125 290.858398438 493.8359375 290.858398438 471.020507812 c 0
 290.858398438 469.330078125 290.904296875 467.657226562 290.99609375 466.001953125 c 0
 291.663085938 451.334960938 294.330078125 435.66796875 298.997070312 419.000976562 c 0
 303.6640625 402.333984375 307.6640625 390.333984375 310.997070312 383.000976562 c 2
 315.997070312 374.000976562 l 1
 318.997070312 367.000976562 l 1
 312.997070312 363.000976562 l 1
 248.997070312 330.333984375 204.330078125 301.333984375 178.997070312 276.000976562 c 0
 164.997070312 262.000976562 157.997070312 251.66796875 157.997070312 245.000976562 c 0
 157.982421875 244.689453125 157.974609375 244.377929688 157.974609375 244.06640625 c 0
 157.974609375 230.362304688 172.315429688 216.33984375 200.997070312 201.999023438 c 0
 204.997070312 199.999023438 210.6640625 197.33203125 217.997070312 193.999023438 c 0
 220.6640625 192.666015625 226.6640625 189.333007812 235.997070312 184 c 0
 250.6640625 175.333007812 260.6640625 168 265.997070312 162 c 0
 269.330078125 158 283.997070312 139.333007812 309.997070312 106 c 1
 321.997070312 87 l 1
 262.997070312 50 l 2
 240.330078125 32 228.997070312 20.3330078125 228.997070312 15 c 0
 228.997070312 11 236.330078125 11.3330078125 250.997070312 16 c 0
 279.6640625 26 307.6640625 42.6669921875 334.997070312 66 c 0
 345.6640625 74.6669921875 350.6640625 80.6669921875 349.997070312 84 c 0
 348.6640625 95.3330078125 344.331054688 110.666015625 336.998046875 129.999023438 c 0
 327.665039062 154.666015625 319.33203125 170.999023438 311.999023438 178.999023438 c 0
 305.33203125 186.33203125 298.665039062 192.999023438 291.998046875 198.999023438 c 0
 285.998046875 205.666015625 279.665039062 211.333007812 272.998046875 216 c 0
 264.331054688 222 258.331054688 226.666992188 254.998046875 230 c 0
 248.998046875 236 242.998046875 240.666992188 236.998046875 244 c 2
 228.998046875 250 l 1
 237.998046875 256 l 2
 257.331054688 270 273.998046875 277 287.998046875 277 c 2
 289.998046875 277 l 1
 306.998046875 276 l 2
 338.998046875 276 361.665039062 285 374.998046875 303 c 1
 422.998046875 303 l 1
 430.998046875 291.666992188 441.998046875 284.333984375 455.998046875 281.000976562 c 0
 468.665039062 277.66796875 478.33203125 276.000976562 484.999023438 276.000976562 c 2
 485.999023438 276.000976562 l 1
 499.999023438 276.000976562 l 1
 505.999023438 276.000976562 l 2
 515.33203125 276.000976562 526.999023438 273.000976562 540.999023438 267.000976562 c 2
 559.999023438 257.000976562 l 1
 568.999023438 250.000976562 l 1
 559.999023438 244.000976562 l 2
 527.33203125 220.66796875 503.999023438 200.334960938 489.999023438 183.001953125 c 1
 488.999023438 183.001953125 l 1
 473.666015625 167.001953125 460.999023438 139.001953125 450.999023438 99.001953125 c 0
 448.33203125 88.3349609375 448.33203125 81.3349609375 450.999023438 78.001953125 c 0
 459.666015625 66.6689453125 474.333007812 55.001953125 495 43.001953125 c 0
 529 23.001953125 551.333007812 13.001953125 562 13.001953125 c 0
 564.666992188 13.001953125 566.666992188 13.3349609375 568 14.001953125 c 0
 570 15.3349609375 568.333007812 19.001953125 563 25.001953125 c 0
 557 31.6689453125 549 38.6689453125 539 46.001953125 c 2
 476 87.001953125 l 1
 508 138.334960938 532.666992188 168.66796875 550 178.000976562 c 0
 556 181.333984375 564.666992188 185.666992188 576 191 c 0
 618.815429688 211.1484375 640.22265625 228.62109375 640.22265625 243.416992188 c 0
 640.22265625 244.287109375 640.1484375 245.1484375 640 246 c 0
 639.333007812 250.666992188 638 254.666992188 636 258 c 0
 622.666992188 282 576 315.333007812 496 358 c 1
 485 363 l 1
 479 367 l 1
255.999023438 598.00390625 m 2
 259.33203125 598.00390625 280.327148438 612.0078125 318.994140625 640.0078125 c 1
 318.994140625 708.0078125 l 2
 318.994140625 724.0078125 327.327148438 742.674804688 343.994140625 764.0078125 c 0
 361.994140625 787.340820312 379.661132812 799.0078125 396.994140625 799.0078125 c 2
 399.994140625 799.0078125 l 2
 419.327148438 796.340820312 437.327148438 784.673828125 453.994140625 764.006835938 c 0
 471.327148438 742.673828125 479.994140625 724.006835938 479.994140625 708.006835938 c 2
 479.994140625 639.006835938 l 1
 515.994140625 611.673828125 537.327148438 598.006835938 543.994140625 598.006835938 c 0
 544.661132812 598.006835938 546.328125 599.33984375 548.995117188 602.006835938 c 0
 550.995117188 603.33984375 554.328125 606.672851562 558.995117188 612.005859375 c 0
 578.328125 633.338867188 588.995117188 645.005859375 590.995117188 647.005859375 c 0
 618.328125 679.005859375 637.328125 695.005859375 647.995117188 695.005859375 c 0
 650.662109375 695.005859375 652.662109375 694.672851562 653.995117188 694.005859375 c 0
 657.995117188 692.005859375 659.995117188 687.672851562 659.995117188 681.005859375 c 2
 660.008789062 680.287109375 l 2
 660 664.766601562 636.995117188 623.33984375 590.995117188 556.006835938 c 0
 580.995117188 541.33984375 572.328125 532.672851562 564.995117188 530.005859375 c 0
 561.662109375 528.672851562 558.329101562 528.005859375 554.99609375 528.005859375 c 0
 538.99609375 529.338867188 520.329101562 534.005859375 498.99609375 542.005859375 c 1
 513.663085938 515.338867188 520.99609375 488.338867188 520.99609375 461.005859375 c 0
 520.99609375 433.672851562 512.99609375 404.672851562 496.99609375 374.005859375 c 1
 521.663085938 361.338867188 546.99609375 346.671875 572.99609375 330.004882812 c 0
 626.99609375 294.671875 653.99609375 266.671875 653.99609375 246.004882812 c 0
 653.99609375 224.004882812 637.329101562 205.004882812 603.99609375 189.004882812 c 0
 583.99609375 179.004882812 570.99609375 172.004882812 564.99609375 168.004882812 c 0
 552.99609375 159.337890625 543.663085938 151.337890625 536.99609375 144.004882812 c 0
 528.99609375 135.337890625 515.663085938 117.670898438 496.99609375 91.00390625 c 1
 548.99609375 60.3369140625 577.663085938 36.00390625 582.99609375 18.00390625 c 0
 584.99609375 11.3369140625 583.329101562 6.3369140625 577.99609375 3.00390625 c 0
 571.99609375 -0.99609375 566.329101562 -2.6630859375 560.99609375 -1.99609375 c 0
 553.663085938 -1.3291015625 547.330078125 0.00390625 541.997070312 2.00390625 c 0
 512.6640625 12.00390625 482.997070312 29.6708984375 452.997070312 55.00390625 c 0
 440.330078125 65.6708984375 433.997070312 74.00390625 433.997070312 80.00390625 c 0
 433.997070312 92.6708984375 438.6640625 112.00390625 447.997070312 138.00390625 c 0
 456.6640625 162.00390625 467.331054688 181.00390625 479.998046875 195.00390625 c 0
 492.665039062 209.00390625 513.665039062 226.670898438 542.998046875 248.00390625 c 1
 526.998046875 257.336914062 516.665039062 262.00390625 511.998046875 262.00390625 c 2
 502.998046875 262.00390625 l 2
 500.998046875 261.336914062 497.331054688 261.00390625 491.998046875 261.00390625 c 0
 489.998046875 261.00390625 488.045898438 260.9609375 486.141601562 260.875 c 0
 458.045898438 260.9609375 435.665039062 270.00390625 418.998046875 288.00390625 c 1
 378.998046875 288.00390625 l 1
 362.331054688 270.00390625 337.998046875 261.00390625 305.998046875 261.00390625 c 2
 296.998046875 261.00390625 l 2
 290.331054688 261.670898438 286.6640625 262.00390625 285.997070312 262.00390625 c 0
 273.330078125 258.670898438 262.663085938 254.337890625 253.99609375 249.004882812 c 1
 283.329101562 227.004882812 304.329101562 209.004882812 316.99609375 195.004882812 c 0
 329.663085938 181.004882812 339.663085938 164.671875 346.99609375 146.004882812 c 0
 355.663085938 123.337890625 361.330078125 101.670898438 363.997070312 81.00390625 c 0
 364.6640625 75.6708984375 358.6640625 67.337890625 345.997070312 56.0048828125 c 0
 333.997070312 45.337890625 319.6640625 35.0048828125 302.997070312 25.0048828125 c 0
 273.6640625 7.671875 251.6640625 -0.9951171875 236.997070312 -0.9951171875 c 0
 230.330078125 -0.9951171875 224.997070312 0.337890625 220.997070312 3.0048828125 c 0
 216.997070312 5.671875 214.997070312 9.3388671875 214.997070312 14.005859375 c 0
 214.997070312 19.3388671875 217.6640625 26.005859375 222.997070312 34.005859375 c 0
 232.997070312 49.3388671875 258.997070312 68.3388671875 300.997070312 91.005859375 c 1
 274.997070312 129.005859375 255.330078125 153.005859375 241.997070312 163.005859375 c 0
 234.6640625 168.338867188 225.331054688 173.671875 213.998046875 179.004882812 c 0
 181.331054688 194.337890625 161.998046875 206.337890625 155.998046875 215.004882812 c 0
 147.998046875 226.337890625 143.998046875 236.670898438 143.998046875 246.00390625 c 0
 143.998046875 252.670898438 145.998046875 259.00390625 149.998046875 265.00390625 c 0
 169.998046875 294.336914062 219.998046875 330.669921875 299.998046875 374.002929688 c 1
 284.665039062 405.3359375 276.998046875 434.002929688 276.998046875 460.002929688 c 0
 276.998046875 486.669921875 284.331054688 514.002929688 298.998046875 542.002929688 c 1
 273.665039062 532.669921875 255.33203125 528.002929688 243.999023438 528.002929688 c 0
 241.33203125 528.002929688 238.33203125 528.669921875 234.999023438 530.002929688 c 0
 227.666015625 533.3359375 219.333007812 541.3359375 210 554.002929688 c 0
 182 593.3359375 166 617.3359375 162 626.002929688 c 0
 154 644.002929688 149.666992188 655.3359375 149 660.002929688 c 0
 148.333007812 666.669921875 150.333007812 672.336914062 155 677.00390625 c 0
 156.333007812 678.336914062 158.666015625 679.00390625 161.999023438 679.00390625 c 0
 174.666015625 677.670898438 191.999023438 664.670898438 213.999023438 640.00390625 c 2
 245.999023438 604.00390625 l 1
 253.999023438 598.00390625 l 1
 255.999023438 598.00390625 l 2
EndSplineSet
Validated: 524289
EndChar

StartChar: ampersand
Encoding: 38 38 5
Width: 842
GlyphClass: 2
Flags: W
HStem: 0.00878906 15.6758<266.878 352.933> 40.5596 16.2363<567.779 646.752> 237.595 16.0234<97.0136 171.16> 309.751 17.958<654.122 759.422> 324.62 18.5127<385.348 424.116> 460.942 15.1475<418.651 447.399> 479.429 16.7471<84.4743 197.556> 552.96 15.1865<671.517 745.569> 737.375 16.6113<184.921 269.905> 784.077 16.873<483.739 576.349>
VStem: -0.227539 15.6465<337.716 408.836> 106.397 16.9238<570.926 664.591> 189.318 15.9922<83.6164 163.13> 342.489 16.8311<371.259 419.81> 390.012 16.6709<534.152 702.024> 437.244 15.2031<102.62 210.173> 477.972 15.1465<382.666 430.278> 638.26 16.4463<634.879 716.369> 711.396 16.7812<131.117 222.399> 825.912 15.9502<395.764 470.081>
LayerCount: 2
Fore
SplineSet
424.116210938 325.462890625 m 1xeffff0
 419.06640625 324.620117188 l 2
 399.993164062 325.181640625 383.444335938 331.352539062 369.419921875 343.1328125 c 1
 313.649414062 294.899414062 272.217773438 252.266601562 245.125 215.234375 c 0
 218.58203125 178.953125 205.310546875 152.098632812 205.310546875 134.670898438 c 0
 205.310546875 100.147460938 213.87109375 72.3017578125 230.993164062 51.1328125 c 0
 250.107421875 27.5009765625 275.084960938 15.6845703125 305.92578125 15.6845703125 c 0
 315.576171875 15.6845703125 325.80078125 16.841796875 336.599609375 19.15625 c 0
 372.174804688 26.7802734375 397.700195312 41.6474609375 413.17578125 63.7568359375 c 0
 429.221679688 84.384765625 437.244140625 122.58203125 437.244140625 178.349609375 c 0
 437.244140625 200.717773438 435.953125 225.913085938 433.372070312 253.934570312 c 0
 431.127929688 279.1796875 428.04296875 303.022460938 424.116210938 325.462890625 c 1xeffff0
483.862304688 360.8046875 m 1
 473.764648438 344.53515625 459.178710938 333.595703125 440.104492188 327.985351562 c 1
 453.522460938 252.50390625 469.639648438 193.943359375 488.456054688 152.302734375 c 0
 507.272460938 110.662109375 524.25390625 85.6337890625 539.400390625 77.21875 c 0
 565.268554688 63.603515625 588.803710938 56.7958984375 610.005859375 56.7958984375 c 0
 638.315429688 56.7958984375 662.465820312 68.9326171875 682.456054688 93.20703125 c 0
 696.48046875 110.59765625 705.45703125 131.634765625 709.384765625 156.319335938 c 0
 710.725585938 164.748046875 711.396484375 172.80078125 711.396484375 180.477539062 c 0
 711.396484375 195.282226562 708.90234375 208.6875 703.915039062 220.694335938 c 0
 686.963867188 261.501953125 613.61328125 308.205078125 483.862304688 360.8046875 c 1
419.06640625 460.942382812 m 0
 402.797851562 460.942382812 388.7734375 455.052734375 376.9921875 443.272460938 c 0
 365.2109375 431.4921875 359.3203125 418.729492188 359.3203125 404.984375 c 0
 359.3203125 391.239257812 362.125 379.87890625 367.735351562 370.903320312 c 0
 379.305664062 352.389648438 395.1015625 343.1328125 415.123046875 343.1328125 c 0
 435.14453125 343.1328125 450.624023438 348.602539062 461.5625 359.541992188 c 0
 472.501953125 370.481445312 477.971679688 384.2265625 477.971679688 400.776367188 c 0
 477.971679688 417.326171875 472.221679688 431.491210938 460.721679688 443.271484375 c 0
 449.220703125 455.051757812 435.3359375 460.942382812 419.06640625 460.942382812 c 0
272.646484375 449.163085938 m 0
 207.913085938 469.338867188 158.529296875 479.428710938 124.493164062 479.428710938 c 0
 107.500976562 479.428710938 94.333984375 476.9140625 84.9931640625 471.885742188 c 0
 53.5771484375 453.93359375 32.8203125 432.615234375 22.72265625 407.930664062 c 0
 17.853515625 396.671875 15.4189453125 385.20703125 15.4189453125 373.536132812 c 0
 15.4189453125 363.689453125 17.1513671875 353.6953125 20.6171875 343.5546875 c 0
 28.1904296875 321.395507812 41.2333984375 302.041015625 59.74609375 285.491210938 c 0
 78.259765625 268.94140625 97.6142578125 258.703125 117.809570312 254.776367188 c 0
 121.78125 254.00390625 126.059570312 253.618164062 130.643554688 253.618164062 c 0
 175.423828125 253.618164062 249.405273438 290.46875 352.587890625 364.169921875 c 1
 345.85546875 375.951171875 342.489257812 386.469726562 342.489257812 395.7265625 c 0
 342.489257812 404.983398438 343.05078125 412.416992188 344.172851562 418.02734375 c 1
 319.48828125 428.125 302.09765625 435.55859375 292 440.327148438 c 0
 281.90234375 445.095703125 276.29296875 447.620117188 275.170898438 447.900390625 c 0
 274.048828125 448.180664062 273.20703125 448.6015625 272.646484375 449.163085938 c 0
484.704101562 439.908203125 m 1
 484.703125 437.379882812 l 1
 491.435546875 425.599609375 494.801757812 415.220703125 494.801757812 406.244140625 c 0
 494.801757812 397.267578125 494.240234375 390.536132812 493.118164062 386.048828125 c 2
 493.118164062 385.20703125 l 1
 563.0234375 356.609375 620.611328125 338.94140625 665.881835938 332.203125 c 0
 686.012695312 329.20703125 703.165039062 327.708984375 717.33984375 327.708984375 c 0xf7fff0
 735.041015625 327.708984375 748.09765625 330.045898438 756.508789062 334.71875 c 0
 787.924804688 352.110351562 808.401367188 372.306640625 817.938476562 395.307617188 c 0
 823.25390625 408.127929688 825.912109375 420.817382812 825.912109375 433.375976562 c 0
 825.912109375 443.349609375 824.236328125 453.240234375 820.883789062 463.048828125 c 0
 813.310546875 485.208007812 800.267578125 504.5625 781.754882812 521.112304688 c 0
 758.002929688 542.34375 734.897460938 552.959960938 712.438476562 552.959960938 c 0
 710.29296875 552.959960938 708.153320312 552.86328125 706.01953125 552.669921875 c 0
 670.111328125 550.275390625 616.255859375 526.432617188 544.452148438 481.141601562 c 0
 523.6953125 468.239257812 503.779296875 454.495117188 484.704101562 439.908203125 c 1
295.366210938 717.599609375 m 0
 270.682617188 730.502929688 251.46875 737.094726562 237.723632812 737.375 c 0
 223.978515625 737.655273438 214.30078125 737.514648438 208.690429688 736.953125 c 0
 186.250976562 733.026367188 167.73828125 721.946289062 153.15234375 703.713867188 c 0
 138.56640625 685.481445312 129.309570312 663.8828125 125.3828125 638.91796875 c 0
 124.008789062 630.180664062 123.321289062 621.837890625 123.321289062 613.890625 c 0
 123.321289062 599.131835938 125.69140625 585.735351562 130.431640625 573.702148438 c 0
 143.095703125 541.553710938 192.18359375 505.088867188 277.694335938 464.306640625 c 0
 278.254882812 464.306640625 284.42578125 462.203125 296.20703125 457.99609375 c 0
 307.98828125 453.7890625 326.782226562 447.197265625 352.588867188 438.221679688 c 1
 362.125 454.490234375 375.588867188 465.709960938 392.98046875 471.880859375 c 1
 362.293945312 618.499023438 329.755859375 700.405273438 295.366210938 717.599609375 c 0
609.435546875 752.1015625 m 0
 591.610351562 773.419921875 565.319335938 784.077148438 530.565429688 784.077148438 c 0
 504.893554688 784.077148438 483.5390625 778.466796875 466.501953125 767.247070312 c 0
 449.46484375 756.02734375 436.317382812 744.38671875 427.060546875 732.325195312 c 0
 413.475585938 714.624023438 406.682617188 679.294921875 406.682617188 626.338867188 c 0
 406.682617188 602.969726562 408.005859375 576.16796875 410.651367188 545.93359375 c 0
 412.896484375 521.249023438 415.982421875 497.967773438 419.909179688 476.08984375 c 1
 440.666015625 476.08984375 458.336914062 468.796875 472.922851562 454.209960938 c 1
 484.704101562 464.869140625 505.6015625 485.065429688 535.615234375 514.797851562 c 0
 604.044921875 582.587890625 638.259765625 633.431640625 638.259765625 667.328125 c 0
 638.259765625 700.862304688 628.651367188 729.120117188 609.435546875 752.1015625 c 0
536.03515625 800.90625 m 0
 572.3125 800.90625 600.737304688 788.5625 621.307617188 763.87890625 c 0
 643.573242188 737.16015625 654.706054688 704.696289062 654.706054688 666.487304688 c 0
 654.706054688 629.327148438 617.11328125 573.153320312 541.926757812 497.965820312 c 0
 541.365234375 497.405273438 541.365234375 497.125 541.926757812 497.125 c 0
 615.834960938 544.47265625 672.041015625 568.146484375 710.544921875 568.146484375 c 0
 715.5 568.146484375 720.162109375 567.75390625 724.53125 566.969726562 c 0
 748.655273438 562.481445312 771.235351562 551.26171875 792.272460938 533.309570312 c 0
 813.310546875 515.357421875 828.037109375 493.478515625 836.452148438 467.672851562 c 0
 840.05859375 456.61328125 841.862304688 445.501953125 841.862304688 434.338867188 c 0
 841.862304688 419.455078125 838.65625 404.479492188 832.245117188 389.413085938 c 0
 821.025390625 363.045898438 798.3046875 340.044921875 764.083007812 320.41015625 c 0
 752.114257812 313.303710938 736.655273438 309.750976562 717.706054688 309.750976562 c 0
 708.231445312 309.750976562 697.883789062 310.639648438 686.6640625 312.416015625 c 0
 653.00390625 317.74609375 615.977539062 326.58203125 575.5859375 338.922851562 c 1
 608.684570312 323.21484375 635.051757812 308.068359375 654.686523438 293.482421875 c 0
 688.908203125 270.481445312 710.2265625 248.8828125 718.641601562 228.6875 c 1
 718.641601562 227.845703125 l 1
 724.999023438 212.885742188 728.177734375 196.866210938 728.177734375 179.787109375 c 0
 728.177734375 171.247070312 727.3828125 162.442382812 725.79296875 153.373046875 c 0
 721.024414062 126.165039062 710.084960938 101.901367188 692.974609375 80.5830078125 c 0
 675.864257812 59.2646484375 653.284179688 46.361328125 625.234375 41.873046875 c 0
 619.76171875 40.9970703125 614.170898438 40.5595703125 608.462890625 40.5595703125 c 0
 584.916992188 40.5595703125 559.372070312 48.009765625 531.828125 62.91015625 c 0
 503.499023438 78.845703125 476.8515625 127.93359375 451.885742188 210.172851562 c 1
 452.259765625 201.196289062 452.447265625 192.079101562 452.447265625 182.821289062 c 0
 452.447265625 164.309570312 451.69921875 145.236328125 450.203125 125.602539062 c 0
 447.958984375 96.150390625 439.684570312 72.02734375 425.37890625 53.2333984375 c 0
 411.073242188 34.439453125 391.017578125 20.1337890625 365.211914062 10.31640625 c 0
 347.147460938 3.4443359375 328.876953125 0.0087890625 310.400390625 0.0087890625 c 0
 302.481445312 0.0087890625 294.525390625 0.6396484375 286.53125 1.90234375 c 0
 259.883789062 6.109375 237.443359375 19.0126953125 219.2109375 40.611328125 c 0
 199.282226562 64.21875 189.318359375 95.451171875 189.318359375 134.307617188 c 0
 189.318359375 177.487304688 235.887695312 242.326171875 329.02734375 328.825195312 c 1
 318.928710938 320.970703125 310.793945312 315.360351562 304.623046875 311.994140625 c 0
 228.495117188 262.39453125 170.65234375 237.594726562 131.094726562 237.594726562 c 0
 126.09375 237.594726562 121.384765625 237.991210938 116.96875 238.784179688 c 0
 92.8447265625 243.271484375 70.404296875 254.631835938 49.6474609375 272.865234375 c 0
 28.890625 291.09765625 14.1640625 313.1171875 5.4677734375 338.922851562 c 0
 1.6708984375 350.190429688 -0.2275390625 361.51171875 -0.2275390625 372.88671875 c 0
 -0.2275390625 387.5625 2.9326171875 402.328125 9.25390625 417.182617188 c 0
 20.4736328125 443.549804688 42.9140625 466.55078125 76.57421875 486.185546875 c 0
 87.791015625 492.845703125 103.395507812 496.17578125 123.387695312 496.17578125 c 0
 145.763671875 496.17578125 173.63671875 492.00390625 207.006835938 483.661132812 c 1
 155.680664062 514.82421875 125.38671875 542.313476562 116.125 566.127929688 c 0
 109.639648438 581.38671875 106.397460938 597.813476562 106.397460938 615.407226562 c 0
 106.397460938 623.6875 107.115234375 632.225585938 108.551757812 641.022460938 c 0
 113.040039062 668.51171875 123.55859375 692.775390625 140.107421875 713.8125 c 0
 156.65625 734.849609375 179.095703125 747.752929688 207.426757812 752.521484375 c 0
 213.229492188 753.498046875 219.166992188 753.986328125 225.240234375 753.986328125 c 0
 248.819335938 753.986328125 274.4375 746.625976562 302.095703125 731.905273438 c 0
 335.421875 713.158203125 365.435546875 652.2890625 392.135742188 549.298828125 c 0
 393.8203125 542.563476562 395.22265625 537.514648438 396.342773438 534.15234375 c 1
 396.342773438 536.396484375 396.203125 537.659179688 395.922851562 537.939453125 c 0
 395.642578125 538.219726562 394.240234375 550.702148438 391.715820312 575.38671875 c 0
 390.580078125 586.494140625 390.01171875 598.708984375 390.01171875 612.03125 c 0
 390.01171875 628.315429688 390.860351562 646.25390625 392.557617188 665.846679688 c 0
 395.643554688 701.469726562 403.778320312 727.9765625 416.961914062 745.3671875 c 0
 430.145507812 762.7578125 447.536132812 776.501953125 469.134765625 786.600585938 c 0
 489.596679688 796.166992188 510.688476562 800.950195312 532.411132812 800.950195312 c 0
 533.6171875 800.950195312 534.825195312 800.935546875 536.03515625 800.90625 c 0
EndSplineSet
Validated: 524289
EndChar

StartChar: quotesingle
Encoding: 39 39 6
Width: 800
GlyphClass: 2
Flags: W
HStem: -0.199219 21G<282.961 303.08 496.571 516.559> 230.201 16.3916<382.622 417.611> 399.8 15.2002<386.234 415.306> 535 16.001<387.352 413.33> 643 16.7998<387.306 414.35> 679 20G<132.561 165.208 211.761 236.756 562.825 587.76 634.393 666.96>
VStem: 282.961 16<1.60089 33.7862> 343.761 15.5869<327.001 366.029> 360.56 16.3789<562.858 631.476> 424.178 15.9902<563.2 631.641> 442.16 15.1992<327.001 365.254> 500.559 16<1.60089 34.9055>
LayerCount: 2
Fore
SplineSet
428.559570312 378.200195312 m 0
 421.09375 392.599609375 412.02734375 399.799804688 401.360351562 399.799804688 c 0
 390.693359375 399.799804688 381.09375 392.466796875 372.560546875 377.799804688 c 0
 363.751953125 362.661132812 359.34765625 343.594726562 359.34765625 320.599609375 c 0
 359.34765625 299.372070312 363.485351562 281.905273438 371.759765625 268.200195312 c 0
 380.29296875 254.06640625 389.759765625 246.866210938 400.16015625 246.599609375 c 0
 400.348632812 246.594726562 400.537109375 246.592773438 400.725585938 246.592773438 c 0
 410.893554688 246.592773438 419.905273438 253.662109375 427.759765625 267.799804688 c 0
 437.360351562 283.266601562 442.16015625 301.666992188 442.16015625 323 c 0
 442.16015625 344.333007812 437.626953125 362.733398438 428.559570312 378.200195312 c 0
400.559570312 535 m 0
 392.559570312 535 385.224609375 529.266601562 378.557617188 517.799804688 c 0
 372.147460938 506.774414062 368.942382812 493.161132812 368.942382812 476.958984375 c 0
 368.942382812 459.063476562 372.4140625 444.143554688 379.358398438 432.200195312 c 0
 386.025390625 420.733398438 392.692382812 415 399.359375 415 c 0
 406.026367188 415 411.759765625 417.93359375 416.559570312 423.799804688 c 2
 421.360351562 433.400390625 l 2
 428.036132812 445.639648438 431.374023438 460.624023438 431.374023438 478.354492188 c 0
 431.374023438 494.637695312 427.76953125 508.186523438 420.559570312 519 c 0
 415.2265625 529.666992188 408.559570312 535 400.559570312 535 c 0
400.557617188 643 m 0
 394.69140625 643 389.225585938 638.734375 384.159179688 630.201171875 c 0
 379.345703125 622.094726562 376.938476562 611.702148438 376.938476562 599.0234375 c 0
 376.938476562 584.604492188 379.478515625 572.596679688 384.55859375 563.000976562 c 0
 389.358398438 555.000976562 394.69140625 551.000976562 400.557617188 551.000976562 c 0
 406.424804688 551.000976562 411.891601562 555.401367188 416.958007812 564.201171875 c 0
 421.771484375 572.561523438 424.177734375 582.967773438 424.177734375 595.419921875 c 0
 424.177734375 609.512695312 421.637695312 621.639648438 416.557617188 631.799804688 c 0
 411.7578125 639.266601562 406.424804688 643 400.557617188 643 c 0
446.958984375 268.600585938 m 1
 435.579101562 243.000976562 420.055664062 230.201171875 400.3828125 230.201171875 c 0
 380.709960938 230.201171875 365.302734375 242.734375 354.161132812 267.80078125 c 1
 298.9609375 -0.19921875 l 1
 282.9609375 3.0009765625 l 1
 332.560546875 319.80078125 l 1
 343.760742188 327.000976562 l 1
 344.293945312 348.333984375 348.560546875 366.734375 356.560546875 382.201171875 c 1
 186.161132812 169.401367188 l 1
 173.361328125 178.201171875 l 1
 359.760742188 435.000976562 l 2
 358.161132812 439.267578125 356.828125 444.333984375 355.760742188 450.200195312 c 2
 132.560546875 687 l 1
 144.560546875 699 l 1
 348.560546875 501.400390625 l 1
 211.760742188 792.599609375 l 1
 226.161132812 799.799804688 l 1
 368.560546875 531 l 1
 372.293945312 536.866210938 376.293945312 541.1328125 380.560546875 543.799804688 c 1
 376.827148438 547.533203125 373.626953125 551 370.959960938 554.200195312 c 0
 364.026367188 565.93359375 360.559570312 580.200195312 360.559570312 597 c 0
 360.559570312 613.799804688 364.29296875 628.466796875 371.759765625 641 c 0
 379.2265625 653.533203125 388.826171875 659.799804688 400.559570312 659.799804688 c 0
 412.29296875 659.799804688 421.759765625 653.533203125 428.959960938 641 c 0
 436.431640625 627.993164062 440.16796875 611.473632812 440.16796875 591.44140625 c 0
 440.16796875 572.216796875 433.631835938 556.069335938 420.559570312 543 c 1
 424.826171875 539.799804688 428.559570312 535.799804688 431.759765625 531 c 1
 573.360351562 799.799804688 l 1
 587.759765625 792.599609375 l 1
 451.759765625 501.400390625 l 1
 654.959960938 699 l 1
 666.959960938 687 l 1
 445.360351562 451.799804688 l 2
 444.29296875 445.400390625 442.692382812 440.067382812 440.55859375 435.80078125 c 1
 626.159179688 178.201171875 l 1
 613.359375 169.401367188 l 1
 446.958984375 377.401367188 l 1
 453.892578125 362.467773438 457.359375 345.66796875 457.359375 327.000976562 c 1
 468.55859375 319.80078125 l 1
 516.55859375 3.0009765625 l 1
 500.55859375 -0.19921875 l 1
 446.958984375 268.600585938 l 1
EndSplineSet
Validated: 524289
EndChar

StartChar: parenleft
Encoding: 40 40 7
Width: 800
GlyphClass: 2
Flags: W
HStem: 0.207031 15.9941<349.763 458.9> 654.604 20G<70.5605 93.5836 711.541 734.563> 680.197 31.3495<340.164 364.036 441.886 459.254> 783.406 16.7998<384.462 421.274>
VStem: 276.964 16.8776<404.681 456.206 475.402 480.127> 289.158 16.7968<552.319 628.583> 301.326 16.55<44.8632 179.086> 330.23 16.3489<258.649 268.18> 340.162 27.998<685.162 711.389> 455.375 16.7751<259.624 269.005> 484.928 15.8898<43.002 172.052> 496.65 16.6691<552.261 631.513> 510.14 15.641<402.665 450.336>
LayerCount: 2
Fore
SplineSet
403 255 m 1xf260
 339.000976562 241.001953125 l 1
 324.91796875 184.126953125 317.875976562 137.594726562 317.875976562 101.404296875 c 0
 317.875976562 93.052734375 318.250976562 85.251953125 319.000976562 78.001953125 c 0
 321.66796875 55.3349609375 325.920898438 41.134765625 331.760742188 35.4013671875 c 0
 344.798828125 22.6015625 352.131835938 16.201171875 353.760742188 16.201171875 c 2
 449.760742188 16.201171875 l 2
 450.494140625 16.201171875 458.227539062 23.134765625 472.9609375 37.0009765625 c 0
 480.938476562 44.978515625 484.927734375 62.197265625 484.927734375 88.6572265625 c 0
 484.927734375 105.357421875 483.338867188 125.73828125 480.161132812 149.799804688 c 0
 477.029296875 176.731445312 471.162109375 207.3984375 462.559570312 241.799804688 c 1
 403 255 l 1xf260
584.161132812 312.202148438 m 1
 481.760742188 288.202148438 l 1
 480.9609375 285.801757812 l 1
 577.760742188 309.801757812 l 1
 612.161132812 291.40234375 l 1
 584.161132812 312.202148438 l 1
220.9609375 312.202148438 m 1
 192.9609375 291.40234375 l 1
 226.560546875 309.801757812 l 1
 320.9609375 287.40234375 l 1
 320.9609375 288.202148438 l 1
 320.427734375 288.202148438 320.161132812 288.46875 320.161132812 289.001953125 c 2
 220.9609375 312.202148438 l 1
604.161132812 522.6015625 m 1
 539.361328125 484.202148438 l 1
 524.161132812 480.202148438 l 1
 525.760742188 474.6015625 l 1
 604.161132812 522.6015625 l 1
200.9609375 522.6015625 m 1
 273.760742188 477.801757812 l 1
 278.560546875 475.40234375 l 1
 278.560546875 477.001953125 278.827148438 478.6015625 279.361328125 480.202148438 c 1
 265.760742188 484.202148438 l 1
 200.9609375 522.6015625 l 1
319.361328125 526.6015625 m 1
 318.454101562 523.53515625 314.455078125 516.604492188 307.362304688 505.8046875 c 0
 298.455078125 490.604492188 293.948242188 472.092773438 293.841796875 450.268554688 c 0
 293.948242188 438.092773438 295.254882812 425.138671875 297.76171875 411.405273438 c 0
 306.588867188 363.138671875 319.388671875 324.471679688 336.162109375 295.405273438 c 0
 343.1062509 283.618062397 346.578754905 273.80021664 346.578754905 265.952602653 c 0
 346.578754905 265.633437097 346.573011102 265.317530464 346.561523438 265.004882812 c 1
 347.362304688 264.205078125 l 1
 346.561523438 264.205078125 l 1
 346.61375339 263.825933788 346.639868366 263.455206674 346.639868366 263.092896784 c 0
 346.639868366 261.416160315 346.080550265 259.919699929 344.961914062 258.603515625 c 1
 402.561523438 271.404296875 l 1
 456.961914062 259.404296875 l 1
 455.903749805 262.835346047 455.374742931 265.959848873 455.374742931 268.777805354 c 0
 455.374742931 271.215754406 455.770694441 273.424259392 456.5625 275.403320312 c 0
 458.188476562 279.802734375 464.85546875 294.069335938 476.5625 318.202148438 c 0
 489.522460938 345.40234375 499.122070312 376.869140625 505.361328125 412.602539062 c 0
 508.547133212 430.066485806 510.140217755 441.478701428 510.140217755 446.839185929 c 0xf948
 510.140217755 448.927232019 509.898498695 450.097047647 509.415039062 450.348632812 c 0
 468.47265625 476.1171875 446.788085938 494.6015625 444.361328125 505.801757812 c 0
 444.202242635 506.616048056 444.122699891 507.403444854 444.122699891 508.163947857 c 0
 444.122699891 518.112812343 457.73544576 523.459140182 484.9609375 524.202148438 c 1
 402.560546875 459.40234375 l 1
 319.361328125 526.6015625 l 1
340.162109375 696.604492188 m 0xf0c0
 340.160921815 696.711601369 340.160328031 696.818129659 340.160328031 696.924077058 c 0
 340.160328031 706.314580762 344.825048956 711.141646222 354.16015625 711.405273438 c 0
 363.38671875 711.138671875 368.053710938 706.205078125 368.16015625 696.604492188 c 0
 368.053710938 692.205078125 366.720703125 688.338867188 364.161132812 685.005859375 c 0
 361.494726564 681.8014775 358.311106003 680.199286562 354.609403319 680.199286562 c 0
 354.460814606 680.199286562 354.311391122 680.201868126 354.161132812 680.20703125 c 0
 354.002658726 680.201868123 353.845336526 680.199286559 353.689166212 680.199286559 c 0
 349.798587517 680.199286559 346.622901904 681.801477497 344.162109375 685.005859375 c 0
 341.491216277 688.21563337 340.156205826 691.919910363 340.156205826 696.118690357 c 0
 340.156205826 696.27989538 340.158173692 696.441829323 340.162109375 696.604492188 c 0xf0c0
459.359375 709.8046875 m 1
 436.186138614 759.461622613 418.846477976 784.291180087 407.338939863 784.291180087 c 0
 406.147127128 784.291180087 405.01787167 784.024850032 403.951171875 783.4921875 c 0
 403.603633027 783.314401833 403.307187781 783.22558951 403.061836139 783.22558951 c 0
 402.85975237 783.22558951 402.692330428 783.285839664 402.559570312 783.40625 c 2
 400.16015625 783.40625 l 2
 391.38671875 783.139648438 380.586914062 773.672851562 367.759765625 755.005859375 c 0
 355.252929688 736.338867188 343.119140625 711.805664062 331.358398438 681.40625 c 0
 314.452148438 637.805664062 305.984375 604.669921875 305.955078125 581.999023438 c 0
 305.984375 578.669921875 306.185546875 575.405273438 306.55859375 572.205078125 c 0
 306.852539062 564.73828125 308.319335938 559.538085938 310.958984375 556.604492188 c 0
 313.65234375 553.538085938 315.65234375 550.471679688 316.958984375 547.405273438 c 1
 317.758789062 548.205078125 l 1
 402.55859375 480.205078125 l 1
 485.758789062 546.604492188 l 2
 487.918945312 551.538085938 490.052734375 555.138671875 492.159179688 557.405273438 c 0
 495.152939448 560.250432532 496.65020936 566.019631899 496.65020936 574.713651607 c 0xf450
 496.65020936 575.389721758 496.641155321 576.083478392 496.623046875 576.794921875 c 0
 496.654541493 577.649075509 496.670288801 578.527803556 496.670288801 579.431107947 c 0
 496.670288801 585.72612025 495.905518055 593.214686872 494.375976562 601.897460938 c 0
 490.791992188 625.96875 486.053710938 645.538085938 480.16015625 660.604492188 c 0
 472.719726562 680.205078125 468.186523438 691.538085938 466.559570312 694.604492188 c 1
 466.186523438 690.205078125 464.453125 686.73828125 461.359375 684.205078125 c 0
 458.585667026 681.532960934 455.423238941 680.196902339 451.871241793 680.196902339 c 0
 451.701509109 680.196902339 451.530886876 680.199953121 451.359375 680.206054688 c 0
 451.221478047 680.200891561 451.084136677 680.198309997 450.947350887 680.198309997 c 0
 447.539687402 680.198309997 444.476833461 681.800500936 441.758789062 685.004882812 c 0
 439.251953125 688.337890625 437.918945312 692.204101562 437.758789062 696.603515625 c 0
 437.904712677 706.565471649 441.902300767 711.546449661 449.752291993 711.546449661 c 0
 450.517939583 711.546449661 451.320235253 711.499065399 452.159179688 711.404296875 c 0
 454.71875 711.137695312 457.119140625 710.604492188 459.359375 709.8046875 c 1
400.16015625 800.206054688 m 2
 402.5625 800.206054688 l 2
 416.856445312 800.072265625 431.637695312 789.138671875 446.90625 767.405273438 c 0
 462.3046875 745.8046875 475.790039062 719.271484375 487.36328125 687.8046875 c 0
 504.45703125 641.938476562 513.109375 605.90625 513.319335938 579.708984375 c 0xf450
 513.109375 562.573242188 510.32421875 551.004882812 504.963867188 545.004882812 c 0
 500.206974223 539.626459851 497.828527741 536.048154419 497.828527741 534.2692631 c 0
 497.828527741 534.063679045 497.860294536 533.882128166 497.923828125 533.724609375 c 0
 498.643554688 531.911132812 501.5234375 527.004882812 506.563476562 519.004882812 c 0
 512.190429688 511.004882812 516.190429688 503.405273438 518.563476562 496.205078125 c 1
 532.963867188 500.205078125 l 1
 621.763671875 552.205078125 l 1
 681.763671875 569.8046875 l 1
 718.563476562 674.604492188 l 1
 734.563476562 669.8046875 l 1
 709.763671875 549.8046875 l 1
 633.763671875 521.004882812 l 1
 540.963867188 464.205078125 l 1
 525.763671875 453.8046875 l 1
 525.775397984 452.057282798 525.781260846 450.361699767 525.781260846 448.717938408 c 0
 525.781260846 427.911058955 524.841870499 415.407423235 522.963867188 411.20703125 c 0
 521.091232487 406.651923783 520.154915136 403.837575334 520.154915136 402.763985902 c 0
 520.154915136 402.706083256 520.157638737 402.653244205 520.163085938 402.60546875 c 1
 608.962890625 444.206054688 l 1
 665.762695312 425.805664062 l 1
 740.962890625 508.206054688 l 1
 753.762695312 497.805664062 l 1
 680.962890625 394.60546875 l 1
 616.962890625 413.005859375 l 1
 511.36328125 363.40625 l 1
 505.790039062 343.139648438 498.58984375 324.739257812 489.762695312 308.206054688 c 1
 587.36328125 330.60546875 l 1
 652.962890625 280.206054688 l 1
 696.163085938 214.60546875 l 1
 684.163085938 205.005859375 l 1
 622.5625 266.60546875 l 1
 576.163085938 291.40625 l 1
 472.163085938 267.40625 l 2
 472.154229038 267.328569298 472.149800588 267.247197095 472.149800588 267.162133389 c 0
 472.149800588 266.224871832 472.687432163 264.839447161 473.762695312 263.005859375 c 0
 475.922851562 259.672851562 479.509765625 245.896484375 484.5234375 221.676757812 c 0
 493.509765625 179.23046875 498.913085938 138.322265625 500.734375 98.9521484375 c 0
 500.789776571 97.5168541915 500.817491904 96.119757569 500.817491904 94.7608585699 c 0
 500.817491904 91.7363057871 500.680192682 88.9009805347 500.405273438 86.2548828125 c 0
 498.803710938 54.08984375 493.522460938 33.5400390625 484.5625 24.6064453125 c 0
 473.522460938 13.5400390625 462.72265625 5.4072265625 452.163085938 0.20703125 c 1
 349.762695312 0.20703125 l 1
 348.962890625 1.0068359375 l 2
 340.989257812 5.0068359375 330.85546875 12.740234375 318.561523438 24.20703125 c 1
 318.561523438 25.0068359375 l 1
 307.521484375 35.673828125 301.784179688 58.2177734375 301.349609375 92.6396484375 c 0
 301.333874281 93.7893726147 301.326006733 94.9527058882 301.326006733 96.129648258 c 0
 301.326006733 112.264187305 302.804577407 130.956322782 305.76171875 152.206054688 c 0
 309.254882812 180.739257812 313.703125 205.8671875 319.106445312 227.590820312 c 0
 324.369140625 249.201171875 327.654296875 261.005859375 328.9609375 263.005859375 c 0
 329.806906128 264.249609376 330.229890442 265.39025695 330.229890442 266.427802097 c 0
 330.229890442 267.058671255 330.073507691 267.651422119 329.760742188 268.206054688 c 2
 228.9609375 291.40625 l 1
 182.560546875 266.60546875 l 1
 120.9609375 205.005859375 l 1
 108.9609375 214.60546875 l 1
 151.361328125 280.206054688 l 1
 217.760742188 330.60546875 l 1
 312.161132812 308.206054688 l 1
 303.387695312 326.072265625 296.1875 345.5390625 290.560546875 366.60546875 c 1
 188.161132812 413.005859375 l 1
 124.161132812 394.60546875 l 1
 51.361328125 497.805664062 l 1
 64.1611328125 508.206054688 l 1
 139.361328125 425.805664062 l 1
 196.161132812 444.206054688 l 1
 282.560546875 403.40625 l 1
 281.520507812 403.805664062 280.720703125 405.938476562 280.161132812 409.8046875 c 0
 277.717182194 424.021767838 276.494872773 434.641414386 276.494872773 441.663627144 c 0
 276.494872773 442.610343075 276.517089115 443.49167309 276.561523438 444.307617188 c 0
 276.830234066 447.79189833 276.964212624 451.416662302 276.964212624 455.182662617 c 0xfb68
 276.964212624 455.522642081 276.963120731 455.863772586 276.9609375 456.206054688 c 2
 171.361328125 521.005859375 l 1
 95.361328125 549.805664062 l 1
 70.560546875 669.805664062 l 1
 86.560546875 674.60546875 l 1
 123.361328125 569.805664062 l 1
 183.361328125 552.206054688 l 1
 272.161132812 500.206054688 l 1
 284.161132812 496.206054688 l 1
 288.0546875 506.072265625 291.680664062 513.500976562 295.040039062 518.4921875 c 0
 300.918228336 527.057055049 303.857322974 532.707314039 303.857322974 535.442964471 c 0
 303.857322974 535.797794423 303.807876774 536.103590121 303.708984375 536.360351562 c 0
 303.237304688 538.791015625 300.854492188 542.33984375 296.560546875 547.006835938 c 0
 291.629450189 552.224568741 289.164359145 561.274051778 289.164359145 574.154370456 c 0
 289.164359145 574.438934444 289.16556235 574.725368254 289.16796875 575.013671875 c 0
 289.161486736 575.440404472 289.158245825 575.872612844 289.158245825 576.310297187 c 0
 289.158245825 583.389809847 290.00615975 591.90199096 291.701171875 601.84765625 c 0
 296.567382812 629.287109375 304.454101562 658.073242188 315.360351562 688.20703125 c 0
 333.787109375 736.073242188 353.787109375 769.672851562 375.360351562 789.005859375 c 0
 383.787109375 796.338867188 392.053710938 800.072265625 400.16015625 800.206054688 c 2
EndSplineSet
Validated: 524293
EndChar

StartChar: parenright
Encoding: 41 41 8
Width: 1000
GlyphClass: 2
HStem: 170 313
VStem: 979 21<195 458>
LayerCount: 2
Fore
SplineSet
193 339 m 1
 91 326 l 1
 189 314 l 1
 179 325 l 1
 193 339 l 1
305 352 m 1
 229 343 l 1
 209 325 l 1
 225 311 l 1
 303 302 l 1
 286 325 l 1
 305 352 l 1
412 364 m 1
 333 354 l 1
 312 325 l 1
 331 299 l 1
 412 289 l 1
 392 326 l 1
 412 364 l 1
520 377 m 1
 438 367 l 1
 415 326 l 1
 438 286 l 1
 520 276 l 1
 497 326 l 1
 520 377 l 1
625 390 m 1
 544 380 l 1
 520 326 l 1
 544 273 l 1
 618 265 l 1
 625 264 l 1
 603 326 l 1
 625 390 l 1
730 410 m 1
 648 394 l 1
 624 326 l 1
 648 259 l 1
 730 243 l 1
 707 326 l 1
 730 410 l 1
979 458 m 1
 754 414 l 1
 729 326 l 1
 754 238 l 1
 979 195 l 1
 979 458 l 1
1000 483 m 1
 1000 170 l 1
 615 244 l 1
 0 316 l 1
 0 337 l 1
 615 409 l 1
 1000 483 l 1
EndSplineSet
Validated: 1
EndChar

StartChar: asterisk
Encoding: 42 42 9
Width: 1000
GlyphClass: 2
HStem: 177.724 19.9268<285.034 408.373 591.662 715.337> 476.983 19.0146<196.353 352.297 643.998 800.704>
VStem: 488 20<628.053 643.998>
LayerCount: 2
Fore
SplineSet
968 546 m 1
 896.100585938 499.984375 807.7109375 476.9765625 702.833007812 476.9765625 c 0
 700.89453125 476.9765625 698.950195312 476.984375 697 477 c 0
 647 477 599.333007812 496.666992188 554 536 c 0
 524.666992188 561.333007812 506 592 498 628 c 1
 490 592 471.666992188 561.333007812 443 536 c 0
 398.41015625 496.655273438 351.5625 476.983398438 302.45703125 476.983398438 c 0
 301.638671875 476.983398438 300.819335938 476.989257812 300 477 c 0
 193.466796875 477 104.466796875 499.333007812 33 544 c 1
 43.9013671875 410.45703125 101.568359375 310.45703125 206 244 c 0
 255.076171875 213.100585938 302.270507812 197.650390625 347.583007812 197.650390625 c 0
 398.423828125 197.650390625 446.896484375 217.100585938 493 256 c 2
 500 262 l 1
 507 256 l 2
 551.295898438 216.705078125 598.8984375 197.057617188 649.806640625 197.057617188 c 0
 695.23828125 197.057617188 743.302734375 212.705078125 794 244 c 0
 846 276 887 317.666992188 917 369 c 0
 947 420.333007812 964 479.333007812 968 546 c 1
-0.0009765625 566 m 0
 -0.0009765625 573.333007812 3.16796875 576.999023438 9.5009765625 576.999023438 c 2
 13.0009765625 576.999023438 l 2
 16.333984375 576.999023438 19.0009765625 575.999023438 21.0009765625 573.999023438 c 0
 31.158203125 563.841796875 52.158203125 552.174804688 84.0009765625 538.998046875 c 0
 148.000976562 510.331054688 220.000976562 495.998046875 300.000976562 495.998046875 c 0
 344.000976562 495.998046875 387.66796875 514.665039062 431.000976562 551.998046875 c 0
 448.333984375 566.665039062 462.166992188 582.665039062 472.5 599.998046875 c 0
 482.833007812 617.331054688 488 631.998046875 488 643.998046875 c 1
 508 643.998046875 l 1
 508 631.998046875 513.333007812 617.331054688 524 599.998046875 c 0
 534.666992188 582.665039062 548.666992188 566.665039062 566 551.998046875 c 0
 608 514.665039062 651.666992188 495.998046875 697 495.998046875 c 0
 797.22265625 495.998046875 886.22265625 519.331054688 964 565.998046875 c 0
 966.666992188 567.331054688 969.333984375 568.998046875 972.000976562 570.998046875 c 0
 974.66796875 572.998046875 977.000976562 574.498046875 979.000976562 575.498046875 c 0
 981.000976562 576.498046875 982.333984375 576.998046875 983.000976562 576.998046875 c 2
 1000.00097656 576.998046875 l 1
 1000.00097656 565.998046875 l 2
 1000.00097656 491.998046875 982.66796875 426.331054688 948.000976562 368.998046875 c 0
 913.333984375 311.665039062 866.333984375 264.83203125 807.000976562 228.499023438 c 0
 751.724609375 194.650390625 700.643554688 177.725585938 653.756835938 177.725585938 c 0
 650.315429688 177.725585938 646.896484375 177.81640625 643.5 177.999023438 c 0
 593.833007812 180.666015625 546 200.666015625 500 237.999023438 c 1
 454 200.666015625 406.166992188 180.666015625 356.5 177.999023438 c 0
 353.07421875 177.815429688 349.62890625 177.723632812 346.1640625 177.723632812 c 0
 299.387695312 177.723632812 248.999023438 194.482421875 194.999023438 228 c 0
 114.094726562 277.890625 57.5947265625 344.057617188 25.4990234375 426.5 c 0
 8.4990234375 470.166992188 -0.0009765625 516.666992188 -0.0009765625 566 c 0
EndSplineSet
Validated: 524289
EndChar

StartChar: plus
Encoding: 43 43 10
Width: 800
GlyphClass: 2
Flags: W
HStem: -0.0585938 21G<362.245 464.212> 559.08 16.1553<378.379 453.506> 779.054 20G<111.497 120.654 676.646 717.988>
VStem: 362.245 101.809<11.9803 150.079> 375.092 15.1875<120.982 372.72> 450.318 16.1582<17.7197 368.374>
LayerCount: 2
Fore
SplineSet
115.807617188 776.432617188 m 1xec
 62.4775390625 719.870117188 l 1
 169.134765625 649.573242188 l 2
 194.452148438 634.491210938 221.385742188 614.560546875 249.935546875 589.782226562 c 0
 307.572265625 540.224609375 346.086914062 492.552734375 365.478515625 446.765625 c 0
 382.012695312 406.614257812 390.279296875 351.498046875 390.279296875 281.416992188 c 0
 390.279296875 270.884765625 390.092773438 260.014648438 389.71875 248.806640625 c 0
 388.103515625 224.567382812 384.602539062 150.770507812 379.215820312 27.416015625 c 1
 447.895507812 17.7197265625 l 1
 450.318359375 306.984375 l 1
 455.166992188 359.7734375 462.169921875 401.116210938 471.327148438 431.01171875 c 0
 480.484375 460.907226562 502.569335938 492.015625 537.58203125 524.3359375 c 0
 546.739257812 532.955078125 558.994140625 543.728515625 574.346679688 556.655273438 c 0
 589.69921875 569.583984375 602.223632812 581.569335938 611.919921875 592.611328125 c 0
 631.0078125 614.350585938 672.485351562 647.8828125 736.3515625 693.208007812 c 1
 699.9921875 744.112304688 l 1
 549.704101562 634.224609375 l 1
 499.66796875 584.127929688 456.036132812 559.080078125 418.807617188 559.080078125 c 0
 392.952148438 559.080078125 370.59765625 566.083007812 351.744140625 580.087890625 c 0
 345.231445312 584.971679688 334.176757812 595.081054688 318.580078125 610.415039062 c 0
 293.474609375 635.09765625 225.883789062 690.436523438 115.807617188 776.432617188 c 1xec
114.998046875 799.053710938 m 1
 126.309570312 789.357421875 160.515625 761.342773438 217.614257812 715.017578125 c 0
 274.712890625 668.692382812 307.16796875 642.297851562 314.978515625 635.833984375 c 0
 322.7890625 629.370117188 331.00390625 621.694335938 339.622070312 612.806640625 c 0
 348.240234375 603.918945312 355.51171875 597.3203125 361.436523438 593.010742188 c 0
 377.596679688 581.16015625 396.584960938 575.235351562 418.401367188 575.235351562 c 0
 451.5859375 575.235351562 491.8515625 598.936523438 539.197265625 646.33984375 c 1
 704.029296875 766.73046875 l 1
 758.165039062 689.163085938 l 1
 696.756835938 643.915039062 l 2
 657.434570312 613.2109375 629.962890625 588.702148438 614.340820312 570.387695312 c 0
 610.5703125 566.078125 605.048828125 561.095703125 597.77734375 555.440429688 c 0
 534.760742188 506.42578125 498.334960938 465.420898438 488.5 432.424804688 c 0
 478.666015625 399.4296875 471.325195312 357.615234375 466.4765625 306.981445312 c 1
 466.4765625 306.172851562 l 1xec
 464.053710938 -0.05859375 l 1
 362.245117188 12.869140625 l 1xf0
 374.364257812 250.421875 l 2
 374.849609375 257.534179688 375.091796875 265.349609375 375.091796875 273.868164062 c 0
 375.091796875 293.73828125 373.772460938 317.434570312 371.133789062 344.95703125 c 0
 367.362304688 384.280273438 360.62890625 416.061523438 350.93359375 440.301757812 c 0
 330.624023438 490.766601562 287.665039062 541.669921875 222.056640625 593.012695312 c 0
 206.573242188 605.130859375 196.305664062 612.874023438 191.25390625 616.241210938 c 0
 186.202148438 619.609375 182.060546875 622.505859375 178.829101562 624.930664062 c 0
 175.59765625 627.353515625 172.5 629.5078125 169.537109375 631.393554688 c 0
 166.575195312 633.279296875 164.5546875 634.760742188 163.4765625 635.837890625 c 2
 161.053710938 636.645507812 l 1
 161.053710938 637.454101562 l 1
 37.4287109375 717.446289062 l 1
 82.138671875 764.310546875 107.995117188 791.512695312 114.998046875 799.053710938 c 1
EndSplineSet
Validated: 524289
EndChar

StartChar: comma
Encoding: 44 44 11
Width: 800
GlyphClass: 2
Flags: W
HStem: -0.00390625 16.8018<260.845 420.837> 783.2 16.7939<352.372 479.572>
VStem: 53.7988 17.6006<115.577 175.255> 155.398 16.7998<477.56 603.348> 368.998 52.8008<521.047 561.758> 733 16.8008<332.996 492.03>
LayerCount: 2
Fore
SplineSet
416.200195312 783.200195312 m 0
 349 783.200195312 291.53125 759.462890625 243.797851562 711.99609375 c 0
 196.064453125 664.529296875 172.198242188 607.196289062 172.198242188 539.99609375 c 0
 172.198242188 485.596679688 189.264648438 435.73046875 223.3984375 390.397460938 c 1
 382.59765625 520.796875 l 1
 373.53125 526.129882812 368.998046875 532.129882812 368.998046875 538.796875 c 0
 368.998046875 545.463867188 369.797851562 550.397460938 371.3984375 553.59765625 c 0
 372.998046875 556.797851562 374.998046875 559.59765625 377.3984375 561.997070312 c 0
 382.46484375 567.063476562 388.59765625 569.596679688 395.797851562 569.596679688 c 0
 402.998046875 569.596679688 409.131835938 567.063476562 414.19921875 561.997070312 c 0
 419.265625 556.930664062 421.798828125 549.997070312 421.798828125 541.197265625 c 0
 421.798828125 532.397460938 417.265625 525.331054688 408.19921875 519.998046875 c 2
 232.999023438 376.797851562 l 1
 234.598632812 375.998046875 l 1
 225.798828125 371.198242188 l 2
 212.807617188 363.98046875 194.892578125 349.109375 172.0546875 326.584960938 c 0
 149.217773438 304.060546875 130.732421875 281.731445312 116.598632812 259.59765625 c 0
 102.465820312 237.46484375 91.666015625 214.665039062 84.19921875 191.198242188 c 0
 75.666015625 164.379882812 71.3994140625 141.712890625 71.3994140625 123.198242188 c 1
 107.1328125 90.130859375 148.06640625 64.130859375 194.200195312 45.1982421875 c 0
 240.333984375 26.2646484375 289.534179688 16.7978515625 341.80078125 16.7978515625 c 0
 394.067382812 16.7978515625 444.466796875 27.064453125 493 47.59765625 c 0
 541.533203125 68.1318359375 583.399414062 95.9990234375 618.599609375 131.19921875 c 0
 653.799804688 166.399414062 681.666992188 208.265625 702.200195312 256.798828125 c 0
 722.733398438 305.33203125 733 359.865234375 733 420.399414062 c 0
 733 480.932617188 716.866210938 540.532226562 684.599609375 599.19921875 c 0
 652.333007812 657.866210938 609 705.06640625 554.599609375 740.799804688 c 1
 552.200195312 741.599609375 l 1
 511.666992188 769.333007812 466.333984375 783.200195312 416.200195312 783.200195312 c 0
285.3984375 765.196289062 m 0
 325.665039062 788.396484375 370.778320312 799.994140625 420.733398438 799.994140625 c 0
 470.688476562 799.994140625 517.177734375 785.327148438 560.201171875 755.994140625 c 1
 562.600585938 755.194335938 l 1
 563.401367188 754.39453125 l 1
 619.934570312 717.594726562 665.134765625 668.528320312 699.000976562 607.1953125 c 0
 732.8671875 545.862304688 749.80078125 479.995117188 749.80078125 409.594726562 c 0
 749.80078125 317.293945312 723.400390625 236.494140625 670.600585938 167.1953125 c 0
 616.677734375 96.4208984375 549.477539062 47.62109375 469 20.7958984375 c 0
 427.399414062 6.9296875 381.798828125 -0.00390625 332.198242188 -0.00390625 c 0
 282.598632812 -0.00390625 233.666015625 9.99609375 185.399414062 29.99609375 c 0
 132.579101562 51.8828125 88.7119140625 80.283203125 53.798828125 115.196289062 c 1
 53.798828125 118.396484375 l 2
 53.798828125 138.454101562 58.19921875 162.53515625 66.9990234375 190.639648438 c 0
 75.798828125 218.744140625 87.3984375 244.529296875 101.797851562 267.99609375 c 0
 133.797851562 318.129882812 170.864257812 355.462890625 212.998046875 379.99609375 c 1
 174.598632812 429.596679688 155.3984375 480.396484375 155.3984375 532.396484375 c 0
 155.3984375 584.396484375 166.998046875 630.396484375 190.198242188 670.396484375 c 0
 213.3984375 710.396484375 245.131835938 741.99609375 285.3984375 765.196289062 c 0
EndSplineSet
Validated: 524289
EndChar

StartChar: hyphen
Encoding: 45 45 12
Width: 800
GlyphClass: 2
Flags: W
HStem: -0.00488281 16.002<330.886 471.102> 500.799 21.5957<428.901 434.72> 535.153 15.2422<274.797 307.275 494.659 525.506 566.219 604.954> 699.518 20G<92.5669 98.1201> 749.124 16.4707<252.135 267.519 536.049 549.68> 783.2 16.7959<394.713 407.785>
VStem: 230.545 16.2139<707.541 748.819> 276.879 15.6143<42.4013 114.488> 328.551 16.6641<278.844 434.37> 376.097 15.2031<522.239 780.66> 411.3 15.2012<521.594 782.265> 456.49 16.0371<283.148 433.226> 509.7 16.0234<42.4531 117.018> 554.755 15.9326<707.665 748.632>
LayerCount: 2
Fore
SplineSet
376.099609375 500.799804688 m 0
 366.693359375 500.799804688 356.561523438 515.729492188 345.701171875 545.595703125 c 0
 333.146484375 577.876953125 323.279296875 607.477539062 316.100585938 634.396484375 c 0
 289.90625 710.881835938 269.353515625 749.124023438 254.442382812 749.124023438 c 0
 253.645507812 749.124023438 252.864257812 749.014648438 252.099609375 748.795898438 c 0
 248.5390625 748.083984375 246.758789062 744.887695312 246.758789062 739.208007812 c 0
 246.758789062 722.369140625 262.40625 683.698242188 293.700195312 623.1953125 c 0
 313.721679688 584.486328125 323.732421875 561.62109375 323.732421875 554.599609375 c 0
 323.732421875 541.854492188 317.052734375 535.482421875 303.694335938 535.482421875 c 0
 290.69140625 535.482421875 271.360351562 541.51953125 245.701171875 553.594726562 c 0
 219.567382812 565.328125 193.43359375 578.928710938 167.299804688 594.395507812 c 0
 159.833007812 598.662109375 152.5 606.662109375 145.299804688 618.395507812 c 0
 138.099609375 630.12890625 129.966796875 644.395507812 120.900390625 661.1953125 c 0
 107.983398438 685.127929688 99.9833984375 698.328125 96.900390625 700.794921875 c 1
 96.900390625 694.149414062 102.233398438 678.48828125 112.900390625 653.811523438 c 0
 123.567382812 629.134765625 135.567382812 606.129882812 148.900390625 584.796875 c 0
 154.766601562 575.197265625 169.700195312 566.397460938 193.700195312 558.397460938 c 0
 244.065429688 544.000976562 274.790039062 532.268554688 285.874023438 523.200195312 c 0
 325.434570312 490.83203125 345.21484375 438.673828125 345.21484375 366.725585938 c 0
 345.21484375 341.123046875 342.709960938 313.013671875 337.700195312 282.397460938 c 0
 331.833984375 247.197265625 322.900390625 206.263671875 310.900390625 159.596679688 c 0
 298.62890625 111.873046875 292.493164062 80.53125 292.493164062 65.5712890625 c 0
 292.493164062 50.5029296875 299.6953125 38.7783203125 314.099609375 30.3974609375 c 0
 328.766601562 21.86328125 357.700195312 17.0634765625 400.900390625 15.9970703125 c 0
 444.633789062 17.0634765625 473.700195312 21.86328125 488.099609375 30.3974609375 c 0
 502.5 38.9306640625 509.700195312 50.9306640625 509.700195312 66.3974609375 c 0
 509.700195312 81.86328125 503.56640625 113.063476562 491.299804688 159.997070312 c 0
 479.033203125 206.930664062 469.966796875 247.463867188 464.099609375 281.596679688 c 0
 459.026367188 312.787109375 456.490234375 341.337890625 456.490234375 367.249023438 c 0
 456.490234375 440.734375 476.893554688 492.984375 517.700195312 523.998046875 c 1
 534.5 534.3984375 l 2
 545.166992188 538.665039062 559.166992188 543.33203125 576.5 548.399414062 c 0
 621.559570312 561.5703125 647.026367188 573.703125 652.900390625 584.798828125 c 0
 665.166992188 605.065429688 676.233398438 626.265625 686.099609375 648.399414062 c 0
 695.966796875 670.532226562 701.43359375 684.131835938 702.5 689.198242188 c 0
 703.56640625 694.265625 704.366210938 697.866210938 704.900390625 700 c 1
 700.099609375 695.19921875 692.6328125 683.065429688 682.499023438 663.599609375 c 0
 661.865234375 623.9609375 645.865234375 600.89453125 634.499023438 594.400390625 c 0
 567.76171875 554.90234375 522.452148438 535.153320312 498.571289062 535.153320312 c 0
 489.770507812 535.153320312 483.879882812 537.8359375 480.899414062 543.200195312 c 0
 479.6484375 545.28515625 479.022460938 547.930664062 479.022460938 551.135742188 c 0
 479.022460938 557.373046875 481.392578125 565.73046875 486.133789062 576.208007812 c 0
 493.310546875 592.068359375 500.899414062 607.865234375 508.899414062 623.598632812 c 0
 539.469726562 683.72265625 554.754882812 722.23046875 554.754882812 739.122070312 c 0
 554.754882812 744.73046875 553.069335938 747.956054688 549.69921875 748.798828125 c 0
 549.286132812 748.858398438 548.869140625 748.887695312 548.448242188 748.887695312 c 0
 533.288085938 748.887695312 512.638671875 710.724609375 486.499023438 634.399414062 c 0
 477.189453125 603.373046875 468.461914062 577.483398438 460.31640625 556.729492188 c 0
 447.434570312 523.908203125 439.895507812 507.131835938 437.69921875 506.399414062 c 0
 434.499023438 502.666015625 431.166015625 500.798828125 427.69921875 500.798828125 c 0
 419.584960938 500.798828125 414.823242188 505.732421875 413.4140625 515.598632812 c 0
 412.004882812 525.465820312 411.299804688 535.999023438 411.299804688 547.19921875 c 0
 411.299804688 558.399414062 411.43359375 569.333007812 411.700195312 580 c 0
 412.455078125 610.263671875 413.510742188 640.49609375 414.8671875 670.698242188 c 0
 415.420898438 683.046875 415.698242188 694.466796875 415.698242188 704.95703125 c 0
 415.698242188 738.295898438 412.8984375 762.243164062 407.299804688 776.799804688 c 0
 405.877929688 781.06640625 404.322265625 783.200195312 402.6328125 783.200195312 c 0
 392.295898438 783.200195312 387.126953125 754.891601562 387.126953125 698.275390625 c 0
 387.126953125 684.09375 387.451171875 668.135742188 388.099609375 650.400390625 c 0
 390.233398438 616.295898438 391.299804688 582.330078125 391.299804688 548.501953125 c 0
 391.299804688 516.5859375 386.790039062 500.627929688 377.76953125 500.627929688 c 0
 377.229492188 500.627929688 376.672851562 500.685546875 376.099609375 500.799804688 c 0
401.30078125 799.99609375 m 0
 415.986328125 799.99609375 424.791015625 785.592773438 427.71484375 756.79296875 c 0
 429.857421875 735.690429688 430.928710938 715.446289062 430.928710938 696.060546875 c 0
 430.928710938 688.990234375 430.786132812 682.034179688 430.500976562 675.192382812 c 0
 429.434570312 649.592773438 428.767578125 629.859375 428.500976562 615.993164062 c 0
 428.234375 602.126953125 427.833984375 589.993164062 427.30078125 579.592773438 c 0
 426.767578125 569.193359375 426.500976562 558.793945312 426.500976562 548.39453125 c 0
 426.500976562 537.994140625 427.034179688 529.060546875 428.100585938 521.59375 c 1
 428.901367188 522.39453125 l 2
 431.33203125 522.39453125 438.33984375 539.994140625 449.924804688 575.194335938 c 0
 461.509765625 610.39453125 471.168945312 639.594726562 478.90234375 662.794921875 c 0
 493.03515625 705.193359375 508.901367188 735.993164062 526.501953125 755.1953125 c 0
 535.03515625 763.728515625 543.834960938 767.061523438 552.90234375 765.1953125 c 0
 564.758789062 762.754882812 570.6875 754.32421875 570.6875 739.903320312 c 0
 570.6875 734.404296875 569.825195312 728.03515625 568.1015625 720.794921875 c 0
 562.008789062 697.942382812 551.15234375 670.896484375 535.532226562 639.65625 c 0
 509.778320312 588.147460938 496.1015625 558.393554688 494.502929688 550.395507812 c 1
 496.102539062 550.395507812 l 2
 506.8046875 550.395507812 525.080078125 556.26171875 550.928710938 567.995117188 c 0
 576.77734375 579.728515625 601.96875 593.061523438 626.501953125 607.995117188 c 1
 627.301757812 608.794921875 l 2
 636.1640625 613.717773438 647.1796875 628.948242188 660.348632812 654.486328125 c 0
 679.630859375 691.881835938 691.815429688 711.8515625 696.90234375 714.39453125 c 0
 702.235351562 718.661132812 706.90234375 720.260742188 710.90234375 719.193359375 c 0
 721.385742188 716.397460938 724.740234375 708.098632812 720.96484375 694.296875 c 0
 709.962890625 654.075195312 692.075195312 614.907226562 667.301757812 576.793945312 c 0
 657.25 561.3828125 632.18359375 547.783203125 592.1015625 535.995117188 c 0
 558.073242188 525.986328125 535.966796875 517.217773438 525.78125 509.689453125 c 0
 515.594726562 502.16015625 506.501953125 491.728515625 498.501953125 478.395507812 c 0
 481.185546875 449.3046875 472.52734375 411.892578125 472.52734375 366.159179688 c 0
 472.52734375 341.463867188 475.051757812 314.342773438 480.1015625 284.794921875 c 0
 485.434570312 251.728515625 494.234375 211.728515625 506.500976562 164.794921875 c 0
 519.31640625 115.764648438 525.723632812 83.8642578125 525.723632812 69.0947265625 c 0
 525.723632812 45.1279296875 516.783203125 27.9609375 498.901367188 17.5947265625 c 0
 480.500976562 6.927734375 447.833984375 1.0615234375 400.901367188 -0.0048828125 c 0
 355.034179688 1.0615234375 322.767578125 6.794921875 304.100585938 17.1943359375 c 0
 285.953125 27.3056640625 276.87890625 44.34765625 276.87890625 68.3212890625 c 0
 276.87890625 85.1142578125 283.153320312 117.272460938 295.701171875 164.794921875 c 0
 308.234375 212.26171875 316.901367188 252.26171875 321.701171875 284.794921875 c 0
 326.267578125 313.653320312 328.55078125 340.197265625 328.55078125 364.426757812 c 0
 328.55078125 410.948242188 320.133789062 448.9375 303.30078125 478.395507812 c 0
 295.30078125 491.728515625 285.967773438 502.395507812 275.30078125 510.395507812 c 2
 262.500976562 518.395507812 l 1
 261.701171875 518.395507812 l 1
 237.342773438 527.8671875 212.809570312 536.133789062 188.100585938 543.1953125 c 0
 160.3671875 552.794921875 142.767578125 563.995117188 135.30078125 576.794921875 c 0
 103.705078125 627.834960938 86.10546875 665.96875 82.5009765625 691.1953125 c 0
 79.80078125 702.89453125 79.6591796875 710.0859375 82.076171875 712.76953125 c 0
 86.1279296875 717.268554688 90.3603515625 719.517578125 94.7734375 719.517578125 c 0
 101.466796875 719.517578125 108.576171875 714.34375 116.1015625 703.995117188 c 0
 121.434570312 696.528320312 128.234375 684.528320312 136.500976562 667.995117188 c 0
 154.24609375 632.506835938 167.1796875 612.506835938 175.301757812 607.995117188 c 0
 241.12890625 569.595703125 284.862304688 550.395507812 306.501953125 550.395507812 c 2
 307.301757812 550.395507812 l 1
 305.524414062 559.283203125 302.280273438 568.571289062 297.569335938 578.260742188 c 0
 292.857421875 587.950195312 286.634765625 600.794921875 278.901367188 616.794921875 c 0
 271.16796875 632.794921875 265.16796875 644.26171875 260.901367188 651.1953125 c 0
 240.6640625 694.782226562 230.544921875 724.060546875 230.544921875 739.029296875 c 0
 230.544921875 754.611328125 236.9296875 763.466796875 249.700195312 765.594726562 c 0
 259.30078125 767.1953125 267.567382812 764.26171875 274.500976562 756.794921875 c 0
 295.158203125 734.547851562 320.891601562 674.415039062 351.701171875 576.395507812 c 0
 360.413085938 548.673828125 367.479492188 530.940429688 372.901367188 523.1953125 c 1
 372.901367188 522.395507812 l 1
 373.701171875 521.594726562 l 1
 375.297851562 533.57421875 376.096679688 545.489257812 376.096679688 557.33984375 c 0
 376.096679688 561.831054688 375.982421875 566.3125 375.752929688 570.784179688 c 0
 374.91796875 587.05859375 374.234375 602.262695312 373.701171875 616.396484375 c 0
 373.16796875 630.529296875 372.368164062 650.795898438 371.301757812 677.1953125 c 0
 370.890625 687.370117188 370.684570312 696.913085938 370.684570312 705.823242188 c 0
 370.684570312 768.60546875 380.889648438 799.99609375 401.30078125 799.99609375 c 0
EndSplineSet
Validated: 524289
EndChar

StartChar: period
Encoding: 46 46 13
Width: 800
GlyphClass: 2
Flags: W
HStem: 0 16.001<352.649 448.632> 79.2012 16<460.096 530.4> 155.201 16.002<217.6 238.036 564.802 584> 257.603 16.8037<179.203 246.791 554.373 622.403> 375.206 15.1982<172.009 229.609 568.843 628.808> 496.003 15.9971<172.81 241.32 561.704 626.41> 783.896 16.1045<319.158 480.247>
VStem: 143.21 15.999<390.404 481.26> 642.409 16<390.404 482.809>
LayerCount: 2
Fore
SplineSet
402 99 m 1
 360 87 316.666992188 79.8671875 272 77.6005859375 c 1
 311.466796875 36.5341796875 354.533203125 16.0009765625 401.200195312 16.0009765625 c 0
 447.8671875 16.0009765625 490.93359375 37.0673828125 530.400390625 79.201171875 c 1
 484.799804688 81.0673828125 442 87.6669921875 402 99 c 1
543.200195312 158.401367188 m 0
 540.533203125 156.267578125 526.666992188 148.934570312 501.599609375 136.401367188 c 0
 476.533203125 123.8671875 454.93359375 114.133789062 436.799804688 107.201171875 c 1
 477.8671875 99.201171875 513.8671875 95.201171875 544.799804688 95.201171875 c 1
 557.670898438 110.002929688 570.737304688 130.002929688 584 155.201171875 c 1
 568.533203125 155.734375 554.93359375 156.80078125 543.200195312 158.401367188 c 0
368.80078125 107.201171875 m 1
 323.823242188 123.692382812 287.2890625 141.026367188 259.200195312 159.201171875 c 1
 247.466796875 157.600585938 233.599609375 156.267578125 217.599609375 155.201171875 c 1
 228.133789062 135.186523438 241.734375 114.653320312 258.401367188 93.6005859375 c 1
 296.80078125 94.134765625 333.600585938 98.66796875 368.80078125 107.201171875 c 1
284 164.801757812 m 1
 312.794921875 147.083984375 352.529296875 130.28515625 403.201171875 114.403320312 c 1
 439.467773438 125.603515625 467.467773438 136.403320312 487.201171875 146.803710938 c 0
 506.934570312 157.203125 517.068359375 162.669921875 517.6015625 163.203125 c 1
 481.868164062 170.135742188 442.66796875 183.202148438 400.000976562 202.40234375 c 1
 365.333984375 186.935546875 326.666992188 174.40234375 284 164.801757812 c 1
194.401367188 208.802734375 m 1
 199.201171875 196.002929688 204.534179688 183.469726562 210.401367188 171.203125 c 1
 220.534179688 171.736328125 229.8671875 172.536132812 238.401367188 173.602539062 c 1
 223.467773438 183.203125 208.80078125 194.936523438 194.401367188 208.802734375 c 1
607.201171875 209.602539062 m 1
 596.000976562 198.40234375 581.869140625 186.135742188 564.801757812 172.802734375 c 1
 573.334960938 171.736328125 582.134765625 171.203125 591.202148438 171.203125 c 1
 597.068359375 183.469726562 602.401367188 196.26953125 607.201171875 209.602539062 c 1
539.203125 176.802734375 m 1
 584.861328125 210.009765625 612.594726562 236.41015625 622.403320312 256.002929688 c 1
 622.403320312 257.602539062 l 1
 587.203125 259.203125 555.736328125 264.002929688 528.002929688 272.002929688 c 1
 522.669921875 268.26953125 508.13671875 259.203125 484.403320312 244.803710938 c 0
 460.669921875 230.403320312 440.802734375 219.203125 424.802734375 211.203125 c 1
 470.668945312 192.536132812 508.802734375 181.069335938 539.203125 176.802734375 c 1
184.002929688 245.602539062 m 1
 193.649414062 230.598632812 219.78515625 207.6640625 262.405273438 176.801757812 c 1
 291.73828125 181.6015625 329.337890625 193.068359375 375.204101562 211.202148438 c 1
 366.13671875 215.46875 349.469726562 224.668945312 325.203125 238.802734375 c 0
 300.936523438 252.936523438 283.203125 264.002929688 272.002929688 272.002929688 c 1
 242.13671875 263.469726562 211.203125 258.669921875 179.203125 257.602539062 c 1
 179.736328125 256.002929688 180.403320312 253.736328125 181.203125 250.802734375 c 0
 182.002929688 247.870117188 182.669921875 245.870117188 183.203125 244.802734375 c 1
 184.002929688 245.602539062 l 1
292.004882812 277.6015625 m 1
 319.208984375 259.465820312 355.209960938 240.001953125 400.005859375 219.204101562 c 1
 430.939453125 232.537109375 455.073242188 244.669921875 472.40625 255.602539062 c 0
 489.739257812 266.536132812 501.338867188 273.602539062 507.205078125 276.802734375 c 1
 467.205078125 290.668945312 431.471679688 304.802734375 400.004882812 319.203125 c 1
 360.004882812 300.002929688 324.004882812 286.135742188 292.004882812 277.6015625 c 1
640.005859375 363.205078125 m 1
 627.182617188 346.436523438 596.25 320.037109375 547.206054688 284.004882812 c 1
 578.138671875 278.138671875 604.5390625 274.938476562 626.40625 274.405273438 c 1
 632.805664062 303.205078125 637.338867188 332.8046875 640.005859375 363.205078125 c 1
161.606445312 363.206054688 m 1
 164.2734375 332.272460938 168.80859375 302.672851562 175.208984375 274.40625 c 1
 198.141601562 275.47265625 224.274414062 278.40625 253.607421875 283.206054688 c 1
 208.780273438 315.727539062 178.11328125 342.39453125 161.606445312 363.206054688 c 1
172.008789062 375.206054688 m 1
 186.02734375 357.888671875 219.892578125 329.352539062 273.606445312 289.603515625 c 1
 292.801757812 293.869140625 306.93359375 298.135742188 316.002929688 302.403320312 c 0
 327.319335938 307.727539062 346.787109375 316.52734375 374.407226562 328.803710938 c 1
 371.20703125 330.404296875 367.33984375 332.538085938 362.806640625 335.205078125 c 0
 358.2734375 337.872070312 354.407226562 340.138671875 351.20703125 342.004882812 c 0
 348.006835938 343.87109375 344.2734375 346.137695312 340.006835938 348.8046875 c 0
 335.740234375 351.471679688 326.407226562 356.938476562 312.0078125 365.205078125 c 0
 297.608398438 373.471679688 284.541992188 381.872070312 272.80859375 390.40625 c 1
 240.80859375 381.338867188 207.208984375 376.272460938 172.008789062 375.206054688 c 1
525.607421875 390.403320312 m 1
 513.874023438 381.869140625 501.20703125 373.737304688 487.606445312 366.00390625 c 0
 474.006835938 358.270507812 461.607421875 350.9375 450.407226562 344.00390625 c 0
 439.20703125 337.0703125 430.673828125 332.00390625 424.807617188 328.803710938 c 1
 429.607421875 326.669921875 435.607421875 323.870117188 442.807617188 320.404296875 c 0
 450.0078125 316.9375 455.607421875 314.404296875 459.607421875 312.803710938 c 0
 463.607421875 311.204101562 468.673828125 309.071289062 474.807617188 306.404296875 c 0
 480.94140625 303.737304688 486.408203125 301.603515625 491.208007812 300.002929688 c 0
 504 295.73828125 515.733398438 292.271484375 526.408203125 289.602539062 c 1
 575.091796875 324.376953125 609.224609375 352.643554688 628.807617188 374.403320312 c 1
 605.875 374.403320312 571.474609375 379.736328125 525.607421875 390.403320312 c 1
293.607421875 396.004882812 m 1
 315.2578125 381.572265625 350.458007812 361.838867188 399.208007812 336.8046875 c 1
 428.049804688 350.874023438 462.983398438 370.607421875 504.0078125 396.004882812 c 1
 471.474609375 405.071289062 436.274414062 418.404296875 398.408203125 436.004882812 c 1
 360.541015625 418.404296875 325.607421875 405.071289062 293.607421875 396.004882812 c 1
163.208007812 482.405273438 m 1
 160.541015625 457.87109375 159.208984375 439.603515625 159.208984375 427.603515625 c 0
 159.208984375 415.603515625 159.475585938 403.204101562 160.008789062 390.404296875 c 1
 189.341796875 391.470703125 220.80859375 395.470703125 254.409179688 402.404296875 c 1
 236.80859375 415.204101562 222.408203125 426.670898438 211.208007812 436.8046875 c 0
 187.208007812 456.004882812 171.208007812 471.205078125 163.208007812 482.405273438 c 1
638.409179688 484.00390625 m 1
 621.607421875 464.401367188 590.407226562 437.201171875 544.80859375 402.404296875 c 1
 579.475585938 394.9375 611.7421875 390.9375 641.608398438 390.404296875 c 1
 642.142578125 403.204101562 642.409179688 415.603515625 642.409179688 427.603515625 c 0
 642.409179688 439.603515625 641.076171875 458.403320312 638.409179688 484.00390625 c 1
268.80859375 509.603515625 m 1
 241.608398438 501.603515625 209.609375 497.069335938 172.809570312 496.002929688 c 1
 192.54296875 474.669921875 207.342773438 459.736328125 217.208984375 451.203125 c 0
 227.075195312 442.669921875 246.674804688 428.26953125 276.0078125 408.002929688 c 1
 302.141601562 414.40234375 334.141601562 426.40234375 372.0078125 444.002929688 c 1
 367.202148438 446.40625 357.869140625 452.806640625 344.008789062 463.203125 c 0
 311.475585938 481.336914062 286.409179688 496.803710938 268.80859375 509.603515625 c 1
531.209960938 510.403320312 m 1
 509.44921875 493.89453125 471.581054688 471.758789062 417.608398438 444.000976562 c 1
 456.008789062 427.467773438 490.942382812 415.734375 522.409179688 408.80078125 c 1
 557.609375 434.401367188 577.076171875 448.268554688 580.809570312 450.40234375 c 0
 605.342773438 470.668945312 620.54296875 485.869140625 626.41015625 496.002929688 c 1
 600.809570312 496.536132812 569.076171875 501.3359375 531.209960938 510.403320312 c 1
402.409179688 558.401367188 m 1
 362.942382812 538.66796875 325.341796875 524.000976562 289.608398438 514.401367188 c 1
 335.168945312 486.364257812 371.702148438 465.831054688 399.208984375 452.80078125 c 1
 436.241210938 470.719726562 473.307617188 491.51953125 510.409179688 515.201171875 c 1
 477.341796875 524.267578125 441.341796875 538.66796875 402.409179688 558.401367188 c 1
183.208984375 584.80078125 m 1
 176.275390625 560.267578125 170.942382812 536 167.208984375 512 c 1
 192.80859375 512.533203125 220.80859375 515.733398438 251.208984375 521.599609375 c 1
 250.67578125 522.133789062 250.008789062 522.534179688 249.208984375 522.80078125 c 0
 248.409179688 523.067382812 247.7421875 523.467773438 247.208984375 524.000976562 c 0
 216.275390625 549.6015625 194.942382812 569.868164062 183.208984375 584.80078125 c 1
617.608398438 586.400390625 m 1
 599.475585938 563.466796875 576.276367188 542.133789062 548.009765625 522.400390625 c 1
 576.276367188 516.533203125 605.076171875 513.06640625 634.409179688 512 c 1
 630.67578125 536.533203125 625.075195312 561.333007812 617.608398438 586.400390625 c 1
532.009765625 644 m 1
 503.743164062 617.333007812 466.143554688 591.999023438 419.2109375 567.999023438 c 1
 458.143554688 549.865234375 494.676757812 536.532226562 528.810546875 527.999023438 c 1
 566.143554688 555.732421875 593.876953125 582.399414062 612.010742188 608 c 1
 610.41015625 612.799804688 607.4765625 620 603.209960938 629.599609375 c 1
 581.876953125 630.666992188 558.143554688 635.466796875 532.009765625 644 c 1
384.009765625 567.999023438 m 1
 343.2578125 588.375 305.125 613.977539062 269.610351562 644.801757812 c 1
 237.4921875 634.09765625 213.4921875 628.498046875 197.610351562 628.001953125 c 1
 193.876953125 618.401367188 190.943359375 611.201171875 188.809570312 606.401367188 c 1
 197.1171875 590.97265625 219.784179688 568.305664062 256.809570312 538.400390625 c 2
 272.009765625 526.400390625 l 1
 304.54296875 533.866210938 341.875976562 547.732421875 384.009765625 567.999023438 c 1
227.2109375 691.202148438 m 1
 219.2109375 678.40234375 211.743164062 662.935546875 204.809570312 644.801757812 c 1
 219.743164062 646.935546875 236.54296875 651.202148438 255.209960938 657.6015625 c 1
 243.4765625 668.801757812 234.143554688 680.001953125 227.2109375 691.202148438 c 1
573.609375 692.801757812 m 1
 564.54296875 678.40234375 555.209960938 666.401367188 545.609375 656.80078125 c 1
 563.743164062 651.467773438 580.54296875 648.000976562 596.009765625 646.401367188 c 1
 589.076171875 665.068359375 581.609375 680.53515625 573.609375 692.801757812 c 1
515.209960938 651.201171875 m 1
 477.059570312 664.711914062 438.391601562 681.778320312 399.208984375 702.400390625 c 1
 362.791015625 683.233398438 325.458007812 666.166992188 287.208984375 651.201171875 c 1
 323.022460938 621.118164062 361.422851562 596.318359375 402.41015625 576.801757812 c 1
 415.743164062 584.268554688 424.009765625 588.53515625 427.209960938 589.6015625 c 0
 460.809570312 610.401367188 490.142578125 630.934570312 515.209960938 651.201171875 c 1
383.208984375 711.201171875 m 1
 341.396484375 736.5859375 314.729492188 757.918945312 303.208984375 775.201171875 c 1
 283.970703125 767.100585938 262.103515625 744.43359375 237.608398438 707.201171875 c 1
 244.008789062 694.934570312 255.7421875 680.267578125 272.80859375 663.201171875 c 1
 307.098632812 675.544921875 343.8984375 691.544921875 383.208984375 711.201171875 c 1
416.80859375 711.201171875 m 1
 456.27734375 691.466796875 493.342773438 675.466796875 528.0078125 663.201171875 c 1
 544.541015625 680.80078125 556.274414062 695.734375 563.208007812 708.000976562 c 1
 550.408203125 727.734375 537.341796875 743.734375 524.008789062 756.000976562 c 0
 516.541992188 765.067382812 507.475585938 771.734375 496.80859375 776.000976562 c 1
 485.978515625 758.671875 459.311523438 737.072265625 416.80859375 711.201171875 c 1
393.708007812 783.201171875 m 2
 356.41015625 783.201171875 l 2
 340.678710938 783.201171875 328.01171875 782.134765625 318.409179688 780.000976562 c 1
 326.942382812 769.333984375 335.7421875 760.80078125 344.809570312 754.401367188 c 0
 353.875976562 748.000976562 372.275390625 737.333984375 400.008789062 722.401367188 c 1
 440.80859375 745.600585938 l 2
 458.942382812 757.8671875 472.275390625 769.333984375 480.80859375 780.000976562 c 1
 468.848632812 782.658203125 455.625976562 783.986328125 441.140625 783.986328125 c 0
 438.950195312 783.986328125 436.73046875 783.956054688 434.481445312 783.895507812 c 0
 417.365234375 783.432617188 403.774414062 783.201171875 393.708007812 783.201171875 c 2
401.209960938 799.201171875 m 1
 436.41015625 800 l 1
 453.209960938 800 l 2
 487.830078125 800 515.4296875 789.06640625 536.009765625 767.200195312 c 0
 565.342773438 737.8671875 590.142578125 700.666992188 610.409179688 655.599609375 c 0
 630.67578125 610.533203125 644.275390625 560.533203125 651.208984375 505.599609375 c 0
 656.008789062 473.599609375 658.409179688 449.599609375 658.409179688 433.599609375 c 0
 658.409179688 417.599609375 658.142578125 402.666015625 657.608398438 388.799804688 c 2
 657.608398438 388 l 1
 653.341796875 284.533203125 628.80859375 196.266601562 584.008789062 123.200195312 c 0
 552.6328125 71.2666015625 514.766601562 35.2666015625 470.41015625 15.2001953125 c 0
 448.009765625 5.06640625 424.943359375 0 401.209960938 0 c 0
 377.4765625 -0 354.276367188 5.06640625 331.609375 15.2001953125 c 0
 287.083007812 35.1064453125 249.083007812 71.1064453125 217.609375 123.200195312 c 0
 168.009765625 203.733398438 143.209960938 300.799804688 143.209960938 414.400390625 c 0
 143.209960938 513.366210938 162.41015625 600.965820312 200.809570312 677.200195312 c 0
 238.791015625 752.60546875 281.991210938 793.272460938 330.41015625 799.201171875 c 0
 337.165039062 799.912109375 344.631835938 800.267578125 352.809570312 800.267578125 c 0
 356.8984375 800.267578125 361.165039062 800.178710938 365.609375 800.000976562 c 2
 401.209960938 799.201171875 l 1
EndSplineSet
Validated: 524289
EndChar

StartChar: slash
Encoding: 47 47 14
Width: 980
GlyphClass: 2
Flags: W
HStem: 0.115234 21G<148.955 431.346> 253.006 19.6587<315.49 384.876> 717.075 78.8008G<11.8262 38.2207 559.58 599.433 959.934 973.091>
VStem: 210.437 19.0608<414.034 509.03> 567.012 19.3711<567.855 694.576> 955.004 24.1221<492.054 627.319>
LayerCount: 2
Fore
SplineSet
129.360351562 98.1201171875 m 1
 154.181640625 48.47265625 167.25 22.9921875 168.561523438 21.6796875 c 2
 584.08203125 50.099609375 l 1
 569.245117188 91.9140625 535.271484375 135.6875 482.162109375 181.419921875 c 0
 457.334960938 202.979492188 432.018554688 220.456054688 406.211914062 233.849609375 c 0
 381.60546875 246.620117188 362.938476562 253.005859375 350.211914062 253.005859375 c 0
 337.365234375 253.005859375 324.834960938 249.234375 312.62109375 241.690429688 c 0
 296.723632812 231.872070312 278.866210938 216.595703125 259.047851562 195.861328125 c 0
 239.229492188 175.126953125 224.583984375 160.186523438 215.110351562 151.040039062 c 0
 189.4453125 126.260742188 160.862304688 108.62109375 129.360351562 98.1201171875 c 1
67.6220703125 755.700195312 m 1
 97.875 721.233398438 123.02734375 689.545898438 143.081054688 660.638671875 c 0
 200.691929115 575.998528652 229.497366329 509.68794432 229.497366329 461.707815241 c 0
 229.497366329 460.317487794 229.473179115 458.942551977 229.424804688 457.583007812 c 0
 229.142578125 450.52734375 228.618164062 443.895507812 227.8515625 437.688476562 c 0
 219.28515625 385.895507812 182.208984375 342.612304688 116.622070312 307.838867188 c 0
 90.208984375 293.9453125 63.095703125 284.145507812 35.2822265625 278.439453125 c 1
 41.76171875 266.145507812 69.8544921875 211.591796875 119.560546875 114.778320312 c 1
 141.1875 121.591796875 160.788085938 131.881835938 178.361328125 145.6484375 c 0
 202.12109375 164.547851562 223.354492188 184.637695312 242.060546875 205.91796875 c 0
 278.020507812 244.637695312 302.84765625 265.0546875 316.541015625 267.16796875 c 0
 335.522598237 270.839629546 346.028425074 272.675883917 348.05764819 272.675883917 c 0
 348.15545562 272.675883917 348.233570317 272.671617956 348.291992188 272.663085938 c 0
 348.453340258 272.66405748 348.614909723 272.664543251 348.776700583 272.664543251 c 0
 385.856480961 272.664543251 434.565028683 247.149409042 494.90234375 196.119140625 c 0
 549.635742188 150.0390625 584.916015625 104.6328125 600.743164062 59.8994140625 c 1
 642.25 97.298828125 686.0234375 138.78515625 732.063476562 184.358398438 c 0
 847.982421875 300.751953125 912.3359375 380.458984375 925.124023438 423.479492188 c 0
 945.043945312 488.4921875 955.00390625 541.999023438 955.00390625 583.999023438 c 1
 950.603515625 627.319335938 l 1
 912.204101562 559.10546875 877.904296875 511.412109375 847.704101562 484.239257812 c 0
 826.5703125 464.74609375 794.23046875 445.47265625 750.68359375 426.418945312 c 2
 731.083984375 418.579101562 l 1
 721.284179688 413.678710938 l 1
 718.34375 424.458984375 l 2
 698.784179688 492.15234375 680.491210938 541.96875 663.46484375 573.909179688 c 0
 646.491210938 605.302734375 619.704101562 645.646484375 583.103515625 694.940429688 c 1
 584.065429688 687.333007812 585.158203125 669.444335938 586.3828125 641.2734375 c 0
 586.170898438 598.65234375 579.524414062 565.25390625 566.443359375 541.079101562 c 0
 554.149414062 518.359375 526.545898438 486.01953125 483.6328125 444.059570312 c 0
 477.212890625 438.01953125 473.456054688 434.426757812 472.36328125 433.280273438 c 1
 420.123046875 502.426757812 377.670898438 554.346679688 345.006835938 589.041015625 c 0
 307.00390625 629.013671875 277.916015625 657.453125 257.743164062 674.360351562 c 0
 223.25 702.787109375 162.163085938 729.573242188 74.4833984375 754.719726562 c 0
 72.0632281312 755.411203793 70.1026281887 755.757202047 68.60159861 755.757202047 c 0
 68.2498525039 755.757202047 67.9233430714 755.738202029 67.6220703125 755.700195312 c 1
566.44140625 658.678710938 m 2
 559.580078125 728.254882812 l 1
 559.580078125 730.21484375 l 1
 577.219726562 737.075195312 l 1
 621.646484375 680.235351562 654.313476562 632.541992188 675.219726562 593.995117188 c 1
 675.219726562 593.014648438 l 1
 694.166015625 556.427734375 713.439453125 505.794921875 733.040039062 441.115234375 c 1
 774.853515625 458.1015625 808.5 477.538085938 833.98046875 499.424804688 c 0
 859.4609375 521.311523438 887.553710938 558.061523438 918.259765625 609.674804688 c 2
 956.48046875 682.1953125 l 1
 969.219726562 709.634765625 l 1
 975.099609375 679.254882812 l 1
 977.784179688 636.3125 979.125976562 603.33984375 979.125976562 580.3359375 c 0
 979.125976562 522.381835938 966.5390625 466.140625 941.365234375 411.612304688 c 0
 908.034179688 339.415039062 819.482421875 236.22265625 675.708984375 102.03515625 c 0
 651.208984375 79.1689453125 632.751953125 61.85546875 620.338867188 50.0947265625 c 2
 600.739257812 32.455078125 l 1
 156.798828125 0.115234375 l 1
 141.111328125 27.5703125 94.0712890625 119.690429688 15.6787109375 276.475585938 c 1
 0.9794921875 290.1953125 l 1
 19.5986328125 294.115234375 l 2
 48.345703125 299.995117188 77.74609375 310.122070312 107.799804688 324.495117188 c 0
 167.90625 355.201171875 201.716796875 394.23828125 209.23046875 441.60546875 c 0
 210.034179688 446.672851562 210.436523438 451.9921875 210.436523438 457.564453125 c 0
 210.436523438 504.077148438 182.431640625 568.174804688 126.420898438 649.856445312 c 0
 97.9365234375 692.58203125 69.189453125 729.658203125 40.1806640625 761.0859375 c 0
 25.2841796875 777.224609375 14.8310546875 788.821289062 8.8212890625 795.875976562 c 1
 38.220703125 789.015625 l 2
 71.51171875 782.775390625 111.684570312 769.9453125 158.739257812 750.526367188 c 0
 205.793945312 731.107421875 242.387695312 710.6171875 268.520507812 689.056640625 c 0
 326.013671875 644.629882812 394.614257812 569.169921875 474.321289062 462.676757812 c 1
 507.640625 492.73046875 531.977539062 520.170898438 547.331054688 544.998046875 c 0
 560.451171875 566.213867188 567.01171875 596.971679688 567.01171875 637.271484375 c 0
 567.01171875 644.130859375 566.821289062 651.266601562 566.44140625 658.678710938 c 2
EndSplineSet
Validated: 524289
EndChar

StartChar: zero
Encoding: 48 48 15
Width: 800
GlyphClass: 2
Flags: W
HStem: 0.149414 14.1953<294.389 357.814> 412.62 20.7783<239.436 341.806> 611.384 14.7832<331.345 459.517> 779.799 20G<397.167 435.103>
VStem: 184.869 16.9336<169.204 235.945> 205.608 16.4941<367.011 412.442> 218.751 18.5039<434.998 517.33> 246.087 17.1104<38.9363 69.343> 462.899 33.2021<617.847 654.84> 553.674 15.8799<566.296 630.134> 560.901 21.5957<338.749 366.199> 620.902 15.3857<215.376 315.721 419.911 458.338>
LayerCount: 2
Fore
SplineSet
575.299804688 310.200195312 m 1xf990
 563.30078125 276.598632812 l 2
 551.034179688 251.532226562 521.567382812 220.999023438 474.900390625 184.999023438 c 0
 428.233398438 148.999023438 386.233398438 123.798828125 348.900390625 109.399414062 c 1
 348.099609375 109.399414062 l 1
 327.299804688 103.532226562 309.033203125 95.6650390625 293.299804688 85.798828125 c 0
 273.231445312 73.2138671875 263.197265625 62.5400390625 263.197265625 53.7763671875 c 0
 263.197265625 52.259765625 263.498046875 50.80078125 264.098632812 49.3994140625 c 0
 266.232421875 44.06640625 272.098632812 37.3994140625 281.698242188 29.3994140625 c 0
 291.298828125 21.3994140625 302.899414062 16.599609375 316.5 14.9990234375 c 0
 320.209960938 14.5625 323.790039062 14.3447265625 327.241210938 14.3447265625 c 0
 336.444335938 14.3447265625 344.73046875 15.896484375 352.099609375 18.9990234375 c 0
 362.233398438 23.265625 372.5 27.798828125 382.900390625 32.5986328125 c 0
 411.977539062 46.01953125 433.712890625 54.841796875 448.107421875 59.0654296875 c 0
 462.502929688 63.2890625 480.3671875 73.1337890625 501.700195312 88.599609375 c 0
 523.033203125 104.06640625 543.299804688 122.200195312 562.5 143 c 0
 581.700195312 163.799804688 597.166992188 185 608.900390625 206.599609375 c 0
 619.436523438 225.995117188 624.704101562 241.090820312 624.704101562 251.88671875 c 2
 621.700195312 292.599609375 l 2
 621.166992188 306.466796875 620.233398438 314.200195312 618.900390625 315.80078125 c 0
 616.767578125 318.360351562 603.567382812 321.026367188 579.299804688 323.799804688 c 1
 577.166015625 315.266601562 576.099609375 310.733398438 576.099609375 310.200195312 c 1
 575.299804688 310.200195312 l 1xf990
567.30078125 366.19921875 m 1
 525.166992188 342.19921875 484.233398438 325.797851562 444.5 316.998046875 c 1
 293.700195312 298.998046875 l 2
 280.3671875 297.931640625 266.900390625 293.264648438 253.299804688 284.998046875 c 0
 239.700195312 276.731445312 228.633789062 265.931640625 220.099609375 252.598632812 c 0
 207.901367188 235.395507812 201.802734375 218.559570312 201.802734375 202.090820312 c 0
 201.802734375 190.477539062 204.834960938 179.046875 210.900390625 167.798828125 c 0
 225.567382812 140.598632812 242.500976562 123.265625 261.701171875 115.798828125 c 0
 268.505859375 113.15234375 276.333007812 111.829101562 285.181640625 111.829101562 c 0
 301.297851562 111.829101562 320.8046875 116.21875 343.701171875 124.999023438 c 0
 379.16796875 138.599609375 419.16796875 162.866210938 463.701171875 197.799804688 c 0
 508.234375 232.732421875 536.3671875 261.665039062 548.100585938 284.59765625 c 0
 548.627929688 286.178710938 552.627929688 296.3125 560.100585938 314.999023438 c 1
 560.901367188 315.798828125 l 1xf9b0
 564.634765625 331.798828125 566.767578125 348.598632812 567.30078125 366.19921875 c 1
501.701171875 516.59765625 m 1
 490.500976562 513.930664062 479.834960938 511.264648438 469.701171875 508.59765625 c 0
 439.834960938 497.930664062 415.702148438 483.263671875 397.302734375 464.596679688 c 0
 379.41015625 446.4453125 361.41015625 432.845703125 343.301757812 423.796875 c 1
 342.501953125 422.997070312 l 1
 327.678710938 416.079101562 311.633789062 412.620117188 294.368164062 412.620117188 c 0
 283.680664062 412.620117188 272.525390625 413.9453125 260.90234375 416.596679688 c 0
 248.102539062 419.263671875 238.501953125 418.463867188 232.1015625 414.197265625 c 0
 225.702148438 409.930664062 222.369140625 403.930664062 222.102539062 396.197265625 c 0xfd90
 221.8359375 388.463867188 223.703125 380.197265625 227.703125 371.397460938 c 0
 231.703125 362.59765625 237.169921875 356.331054688 244.102539062 352.59765625 c 0
 264.90234375 340.864257812 282.235351562 328.864257812 296.1015625 316.59765625 c 1
 377.115234375 321.80078125 444.848632812 333.000976562 499.301757812 350.198242188 c 0
 531.532226562 364.2109375 553.399414062 374.877929688 564.90234375 382.198242188 c 2
 574.501953125 387.797851562 l 2
 604.901367188 404.865234375 620.368164062 422.46484375 620.90234375 440.59765625 c 0
 620.90234375 454.098632812 609.702148438 465.565429688 587.301757812 474.998046875 c 0
 532.3125 491.818359375 503.912109375 504.751953125 502.100585938 513.797851562 c 0
 501.833984375 515.130859375 501.701171875 516.064453125 501.701171875 516.59765625 c 1
496.1015625 608.598632812 m 2
 495.301757812 606.198242188 494.5 604.598632812 493.700195312 603.798828125 c 2
 492.900390625 603.798828125 l 2
 491.298828125 602.19921875 489.032226562 601.399414062 486.099609375 601.399414062 c 2
 476.900390625 601.399414062 l 2
 473.166992188 601.932617188 466.100585938 602.999023438 455.701171875 604.598632812 c 0
 426.301757812 609.122070312 401.352539062 611.383789062 380.854492188 611.383789062 c 0
 354.0703125 611.383789062 334.885742188 607.522460938 323.30078125 599.798828125 c 0
 291.833984375 580.065429688 268.3671875 557.131835938 252.901367188 530.998046875 c 0
 242.470703125 513.373046875 237.254882812 493.080078125 237.254882812 470.119140625 c 0
 237.254882812 459.034179688 238.470703125 447.327148438 240.901367188 434.998046875 c 1
 241.701171875 434.998046875 l 2
 249.701171875 434.998046875 257.16796875 434.46484375 264.100585938 433.3984375 c 2
 264.901367188 433.3984375 l 2
 275.41796875 431.215820312 285.463867188 430.124023438 295.0390625 430.124023438 c 0
 315.720703125 430.124023438 334.208007812 435.215820312 350.501953125 445.3984375 c 0
 359.568359375 451.797851562 368.1015625 458.731445312 376.1015625 466.198242188 c 0
 412.170898438 499.86328125 449.104492188 521.596679688 486.90234375 531.3984375 c 2
 508.1015625 536.59765625 l 1
 508.90234375 536.59765625 l 1
 538.75 549.505859375 553.673828125 568.75390625 553.673828125 594.342773438 c 0xfbd0
 553.673828125 599.138671875 553.149414062 604.157226562 552.1015625 609.3984375 c 0
 548.901367188 626.998046875 536.368164062 655.264648438 514.501953125 694.198242188 c 0
 504.901367188 710.198242188 482.234375 730.198242188 446.500976562 754.198242188 c 1
 463.83203125 729.098632812 474.765625 696.698242188 479.301757812 656.998046875 c 0
 480.369140625 647.665039062 481.302734375 639.931640625 482.102539062 633.797851562 c 0
 482.90234375 627.6640625 485.168945312 623.397460938 488.90234375 620.998046875 c 0
 493.702148438 617.913085938 496.1015625 615.11328125 496.1015625 612.598632812 c 2
 496.1015625 608.598632812 l 2
400.099609375 799.798828125 m 0
 470.106445312 760.778320312 513.038085938 728.514648438 528.8984375 703.001953125 c 0
 528.8984375 700.865234375 531.565429688 695.53125 536.8984375 687 c 0
 542.231445312 678.467773438 546.630859375 670.6015625 550.096679688 663.401367188 c 0
 553.563476562 656.201171875 556.23046875 650.600585938 558.096679688 646.600585938 c 0
 561.39453125 639.536132812 564.685546875 627.037109375 567.970703125 609.102539062 c 0
 569.026367188 603.337890625 569.553710938 597.783203125 569.553710938 592.438476562 c 0xfbd0
 569.553710938 581.15625 567.201171875 570.810546875 562.497070312 561.401367188 c 0
 555.563476562 547.534179688 540.629882812 535.000976562 517.697265625 523.80078125 c 1
 516.096679688 521.401367188 l 1
 525.1640625 512.333984375 550.497070312 501.666992188 592.096679688 489.400390625 c 0
 621.557617188 479.202148438 636.288085938 464.250976562 636.288085938 444.546875 c 0
 636.288085938 420.477539062 619.958007812 397.828125 587.296875 376.598632812 c 1
 587.296875 366.999023438 585.697265625 354.732421875 582.497070312 339.798828125 c 1
 599.030273438 338.19921875 610.763671875 336.599609375 617.696289062 334.999023438 c 0
 624.629882812 333.3984375 629.4296875 330.198242188 632.096679688 325.3984375 c 0
 634.763671875 320.598632812 636.497070312 310.998046875 637.296875 296.59765625 c 0
 638.096679688 282.198242188 639.030273438 270.46484375 640.096679688 261.3984375 c 0
 640.366210938 258.896484375 640.500976562 256.3515625 640.500976562 253.763671875 c 0
 640.500976562 220.491210938 618.233398438 180.102539062 573.697265625 132.59765625 c 0
 528.497070312 83.7333984375 487.963867188 53.8671875 452.09765625 42.9990234375 c 0
 436.118164062 38.560546875 418.923828125 31.8505859375 400.514648438 22.8701171875 c 0
 382.104492188 13.8896484375 369.166015625 8.3330078125 361.69921875 6.19921875 c 0
 349.598632812 2.166015625 337.876953125 0.1494140625 326.533203125 0.1494140625 c 0
 304.876953125 0.1494140625 284.598632812 7.4990234375 265.69921875 22.19921875 c 0
 252.624023438 32.9658203125 246.086914062 43.3798828125 246.086914062 53.44140625 c 0
 246.086914062 56.59765625 246.73046875 59.7197265625 248.016601562 62.806640625 c 0
 253.404296875 75.734375 263.83203125 86.998046875 279.298828125 96.59765625 c 1
 246.970703125 98.3955078125 218.970703125 120.529296875 195.298828125 162.998046875 c 0
 188.345703125 177.33984375 184.869140625 191.318359375 184.869140625 204.934570312 c 0
 184.869140625 222.806640625 190.859375 240.052734375 202.838867188 256.672851562 c 0
 223.9453125 285.956054688 248.365234375 304.331054688 276.098632812 311.797851562 c 1
 263.298828125 321.931640625 250.765625 330.598632812 238.499023438 337.798828125 c 0
 216.572265625 350.668945312 205.608398438 369.483398438 205.608398438 394.2421875 c 0xfdb0
 205.608398438 408.96875 211.23828125 419.887695312 222.499023438 426.999023438 c 2
 223.298828125 427.798828125 l 1
 224.098632812 427.798828125 l 1
 220.533203125 442.248046875 218.750976562 456.0703125 218.750976562 469.264648438 c 0
 218.750976562 493.571289062 224.80078125 515.75 236.899414062 535.799804688 c 0
 255.56640625 566.732421875 281.432617188 592.33203125 314.499023438 612.598632812 c 0
 328.971679688 621.64453125 351.625976562 626.166992188 382.4609375 626.166992188 c 0
 401.491210938 626.166992188 423.637695312 624.444335938 448.900390625 620.999023438 c 0
 454.766601562 620.19921875 459.966796875 619.532226562 464.5 618.999023438 c 0
 469.033203125 618.465820312 472.6328125 617.932617188 475.299804688 617.399414062 c 1
 468.900390625 626.999023438 465.43359375 633.532226562 464.900390625 636.999023438 c 0
 464.366210938 640.465820312 463.965820312 644.599609375 463.69921875 649.399414062 c 0
 463.432617188 654.19921875 463.166015625 659.265625 462.899414062 664.598632812 c 0
 460.654296875 709.467773438 437.854492188 748.934570312 394.5 782.999023438 c 1
 391.299804688 786.19921875 l 1
 391.299804688 795.265625 394.233398438 799.798828125 400.099609375 799.798828125 c 0
EndSplineSet
Validated: 524289
EndChar

StartChar: one
Encoding: 49 49 16
Width: 801
GlyphClass: 2
Flags: W
HStem: -0.00195312 16.2578<321.107 386.398 402.403 479.677> 393.599 16<16.915 195.201 591.998 783.998> 783.738 16.2617<323.687 386.401 402.401 479.623>
VStem: 0.801758 16.0498<322.171 393.599 409.599 476.234> 386.398 16.0049<16.2559 201.599 599.201 783.738> 784.802 15.9971<321.31 476.163>
LayerCount: 2
Fore
SplineSet
400.799804688 800 m 0
 455.200195312 800 507.065429688 789.465820312 556.3984375 768.399414062 c 0
 605.731445312 747.33203125 648.264648438 718.931640625 683.998046875 683.198242188 c 0
 719.731445312 647.46484375 748.131835938 604.797851562 769.19921875 555.198242188 c 0
 790.265625 505.59765625 800.798828125 456.53125 800.798828125 407.998046875 c 0
 800.798828125 359.46484375 793.999023438 314.665039062 780.399414062 273.59765625 c 0
 766.798828125 232.53125 747.732421875 195.731445312 723.19921875 163.198242188 c 0
 698.666015625 130.665039062 669.999023438 102.131835938 637.19921875 77.59765625 c 0
 568.034179688 25.8642578125 489.234375 -0.001953125 400.799804688 -0.001953125 c 0
 346.400390625 -0.001953125 294.534179688 10.53125 245.201171875 31.59765625 c 0
 195.868164062 52.6650390625 153.334960938 81.0654296875 117.6015625 116.798828125 c 0
 81.8681640625 152.532226562 53.46875 195.065429688 32.40234375 244.3984375 c 0
 11.3349609375 293.731445312 0.8017578125 345.46484375 0.8017578125 399.59765625 c 0
 0.8017578125 453.731445312 11.3349609375 505.598632812 32.40234375 555.19921875 c 0
 53.46875 604.798828125 81.8681640625 647.465820312 117.6015625 683.19921875 c 0
 153.334960938 718.932617188 195.868164062 747.333007812 245.201171875 768.400390625 c 0
 294.534179688 789.466796875 346.400390625 800 400.799804688 800 c 0
591.998046875 409.598632812 m 1
 783.998046875 409.598632812 l 1
 783.998046875 393.598632812 l 1
 591.998046875 393.598632812 l 1
 591.998046875 409.598632812 l 1
386.3984375 201.598632812 m 1
 402.403320312 201.600585938 l 1
 402.403320312 16.00390625 l 1
 454.084960938 16.208984375 502.416992188 25.96875 547.399414062 45.283203125 c 0
 592.381835938 64.59765625 631.124023438 89.3603515625 663.625976562 119.572265625 c 1
 500.001953125 282.401367188 l 1
 512.001953125 294.401367188 l 1
 675.396484375 131.006835938 l 1
 708.391601562 164.521484375 734.875 204.666015625 754.845703125 251.439453125 c 0
 774.81640625 298.212890625 784.801757812 347.599609375 784.801757812 399.599609375 c 0
 784.801757812 451.599609375 774.766601562 501.103515625 754.696289062 548.110351562 c 0
 734.625976562 595.1171875 707.858398438 635.611328125 674.39453125 669.592773438 c 1
 512.001953125 507.200195312 l 1
 500.001953125 518.400390625 l 1
 663.036132812 680.643554688 l 1
 630.666015625 710.82421875 592.0546875 735.543945312 547.202148438 754.802734375 c 0
 502.349609375 774.061523438 454.083007812 783.79296875 402.401367188 783.998046875 c 1
 402.401367188 599.201171875 l 1
 386.401367188 599.201171875 l 1
 386.401367188 783.73828125 l 1
 287.844726562 780.130859375 202.966796875 743.49609375 131.767578125 673.833984375 c 1
 287.201171875 518.400390625 l 1
 276.000976562 507.200195312 l 1
 120.662109375 662.5390625 l 1
 53.83203125 591.8828125 19.25 507.569335938 16.9150390625 409.598632812 c 1
 195.201171875 409.598632812 l 1
 195.201171875 393.598632812 l 1
 16.8515625 393.598632812 l 1
 18.4150390625 294.98828125 52.75 209.874023438 119.856445312 138.255859375 c 1
 276.000976562 294.400390625 l 1
 287.201171875 282.400390625 l 1
 131.307617188 126.506835938 l 1
 144.529296875 113.462890625 162.75 98.18359375 185.969726562 80.669921875 c 0
 209.189453125 63.15625 239.264648438 48.3701171875 276.1953125 36.310546875 c 0
 313.125976562 24.2509765625 349.860351562 17.56640625 386.3984375 16.255859375 c 1
 386.3984375 201.598632812 l 1
EndSplineSet
Validated: 524289
EndChar

StartChar: two
Encoding: 50 50 17
Width: 800
GlyphClass: 2
Flags: W
HStem: -0.201172 15.9932<321.749 477.798> 247.791 310.402<316.679 475.097> 782.193 16.0068<323.477 478.897>
VStem: -0.200195 15.9951<322.513 477.929> 241.394 309.601<324.299 482.907> 783.796 16.002<322.656 475.635>
LayerCount: 2
Fore
SplineSet
399.799804688 798.200195312 m 0
 454.200195312 798.200195312 506.064453125 787.662109375 555.397460938 766.594726562 c 0
 604.73046875 745.528320312 647.263671875 717.12890625 682.997070312 681.395507812 c 0
 718.73046875 645.662109375 747.130859375 603.12890625 768.198242188 553.795898438 c 0
 789.264648438 504.462890625 799.797851562 452.86328125 799.797851562 398.997070312 c 0
 799.797851562 345.130859375 789.264648438 293.53125 768.198242188 244.198242188 c 0
 747.130859375 194.865234375 718.59765625 152.33203125 682.59765625 116.598632812 c 0
 646.59765625 80.865234375 604.064453125 52.4658203125 554.998046875 31.3994140625 c 0
 505.931640625 10.33203125 454.198242188 -0.201171875 399.797851562 -0.201171875 c 0
 345.3984375 -0.201171875 293.532226562 10.33203125 244.19921875 31.3994140625 c 0
 194.866210938 52.4658203125 152.333007812 80.865234375 116.599609375 116.598632812 c 0
 80.8662109375 152.33203125 52.466796875 194.732421875 31.400390625 243.798828125 c 0
 10.3330078125 292.866210938 -0.2001953125 344.733398438 -0.2001953125 399.400390625 c 0
 -0.2001953125 454.067382812 10.3330078125 505.80078125 31.400390625 554.600585938 c 0
 52.466796875 603.400390625 81 645.666992188 117 681.400390625 c 0
 153 717.133789062 195.533203125 745.533203125 244.599609375 766.599609375 c 0
 293.666992188 787.666992188 345.400390625 798.200195312 399.799804688 798.200195312 c 0
548.997070312 751.794921875 m 0
 501.796875 772.061523438 454.727539062 782.193359375 407.793945312 782.193359375 c 0
 360.861328125 782.193359375 317.794921875 775.66015625 278.594726562 762.592773438 c 0
 202.615234375 737.266601562 139.8203125 691.716796875 90.2099609375 625.942382812 c 0
 40.599609375 560.16796875 15.794921875 484.78515625 15.794921875 399.79296875 c 0
 15.794921875 347.526367188 25.9287109375 297.526367188 46.1953125 249.79296875 c 0
 66.4619140625 202.059570312 93.794921875 161.125976562 128.1953125 126.9921875 c 0
 162.594726562 92.8583984375 203.39453125 65.7919921875 250.594726562 45.7919921875 c 0
 297.794921875 25.7919921875 347.528320312 15.7919921875 399.794921875 15.7919921875 c 0
 452.061523438 15.7919921875 501.794921875 25.7919921875 548.995117188 45.7919921875 c 0
 596.1953125 65.7919921875 636.862304688 92.8583984375 670.99609375 126.9921875 c 0
 705.129882812 161.125976562 732.462890625 202.059570312 752.99609375 249.79296875 c 0
 773.529296875 297.526367188 783.795898438 347.393554688 783.795898438 399.393554688 c 0
 783.795898438 451.393554688 773.663085938 500.993164062 753.396484375 548.193359375 c 0
 733.129882812 595.393554688 705.796875 636.060546875 671.397460938 670.194335938 c 0
 636.997070312 704.328125 596.197265625 731.528320312 548.997070312 751.794921875 c 0
395.793945312 558.193359375 m 0
 438.4609375 558.193359375 474.994140625 543.126953125 505.39453125 512.993164062 c 0
 535.793945312 482.859375 550.994140625 446.458984375 550.994140625 403.791992188 c 0
 550.994140625 361.125 535.793945312 324.458007812 505.39453125 293.791015625 c 0
 474.994140625 263.124023438 438.4609375 247.791015625 395.793945312 247.791015625 c 0
 353.126953125 247.791015625 316.7265625 263.124023438 286.592773438 293.791015625 c 0
 256.459960938 324.458007812 241.393554688 361.125 241.393554688 403.791992188 c 0
 241.393554688 446.458984375 256.459960938 482.859375 286.592773438 512.993164062 c 0
 316.7265625 543.126953125 353.126953125 558.193359375 395.793945312 558.193359375 c 0
EndSplineSet
Validated: 524289
EndChar

StartChar: three
Encoding: 51 51 18
Width: 1000
GlyphClass: 2
HStem: 521.999 17.502<433.524 565.133> 666.997 113G<120.003 137.003 390.37 459.003 541.003 609.636 863.003 880.003>
VStem: 0.00292969 17<213.762 235.797> 120.003 17<471.997 518.001 642.209 666.997> 269.003 16.001<379.032 399.716> 715.004 15.999<378.592 403.394> 863.003 17<471.997 518.001 642.256 666.997> 983.003 17<213.762 235.797>
LayerCount: 2
Fore
SplineSet
392 220 m 2
 378.000976562 230 l 1
 359.000976562 213 l 1
 261.000976562 170 l 1
 195.000976562 111 l 1
 171.000976562 66 l 1
 222.000976562 36 l 1
 209.000976562 105 l 1
 279.000976562 137 l 1
 365.000976562 193 l 1
 442.000976562 197 l 1
 426.66796875 201 414.66796875 205.5 406.000976562 210.5 c 0
 397.333984375 215.5 392.666992188 218.666992188 392 220 c 2
622.000976562 230 m 1
 599 214 l 2
 585.666992188 206.666992188 572.333984375 201 559.000976562 197 c 1
 635.000976562 193 l 1
 721.000976562 137 l 1
 791.000976562 105 l 1
 778.000976562 36 l 1
 829.000976562 66 l 1
 805.000976562 111 l 1
 739.000976562 170 l 1
 641.000976562 213 l 1
 622.000976562 230 l 1
771 271 m 1
 648.000976562 262.000976562 l 1
 647.000976562 262.000976562 l 1
 644.333984375 257.333984375 642.666992188 253.666992188 642 251 c 1
 761 258 l 1
 843 229 l 1
 911 186 l 1
 924 159 l 1
 916 192 l 1
 853 245 l 1
 771 271 l 1
229.000976562 271.000976562 m 1
 147.000976562 245.000976562 l 1
 84.0009765625 192.000976562 l 1
 76.0009765625 159.000976562 l 1
 89.0009765625 186.000976562 l 1
 157.000976562 229.000976562 l 1
 239.000976562 258.000976562 l 1
 358.000976562 251.000976562 l 1
 356.66796875 253.000976562 355.000976562 256.66796875 353.000976562 262.000976562 c 1
 352.000976562 262.000976562 l 1
 229.000976562 271.000976562 l 1
904.000976562 353.000976562 m 1
 816.000976562 344.000976562 l 1
 665.000976562 292.000976562 l 1
 660.000976562 283.000976562 l 1
 819.000976562 334.000976562 l 1
 902.000976562 344.000976562 l 1
 977.000976562 291.000976562 l 1
 979.000976562 282.000976562 l 1
 979.000976562 297.000976562 l 1
 904.000976562 353.000976562 l 1
96.0009765625 353.000976562 m 1
 21.0009765625 297.000976562 l 1
 21.0009765625 282.000976562 l 1
 23.0009765625 291.000976562 l 1
 98.0009765625 344.000976562 l 1
 181.000976562 334.000976562 l 1
 340.000976562 283.000976562 l 1
 335.000976562 292.000976562 l 1
 184.000976562 344.000976562 l 1
 96.0009765625 353.000976562 l 1
689.000976562 335.000976562 m 2
 688.000976562 331.500976562 l 2
 688.000976562 331.16796875 687.66796875 330.66796875 687.000976562 330.000976562 c 1
 793.000976562 369.000976562 l 1
 880.000976562 470.000976562 l 1
 876.000976562 518.000976562 l 1
 875.000976562 465.000976562 l 1
 794.000976562 383.000976562 l 1
 703.000976562 350.000976562 l 2
 697.000976562 344.000976562 692.333984375 339.000976562 689.000976562 335.000976562 c 2
124.000976562 518.000976562 m 1
 120.002929688 470.000976562 l 1
 208.002929688 369.000976562 l 1
 312.002929688 330.000976562 l 1
 311.3359375 330.66796875 311.168945312 331.16796875 311.501953125 331.500976562 c 0
 311.834960938 331.833984375 311.66796875 332.500976562 311.000976562 333.500976562 c 2
 308.000976562 338.000976562 l 2
 302.223632812 346.66796875 298.556640625 351.000976562 297.000976562 351.000976562 c 2
 206.000976562 383.000976562 l 1
 125.000976562 465.000976562 l 1
 124.000976562 518.000976562 l 1
676.002929688 343.000976562 m 1
 676.002929688 345.498046875 l 2
 676.002929688 346.498046875 681.669921875 352.665039062 693.002929688 363.998046875 c 1
 694.002929688 363.998046875 l 1
 700.669921875 369.998046875 707.336914062 374.998046875 714.00390625 378.998046875 c 0
 714.670898438 379.665039062 715.00390625 381.83203125 715.00390625 385.499023438 c 0
 715.00390625 389.166015625 712.50390625 396.666015625 707.50390625 407.999023438 c 0
 702.50390625 419.33203125 691.00390625 433.999023438 673.00390625 451.999023438 c 0
 624.336914062 498.666015625 566.336914062 521.999023438 499.00390625 521.999023438 c 0
 431.670898438 521.999023438 374.00390625 498.666015625 326.00390625 451.999023438 c 0
 308.670898438 435.33203125 297.50390625 420.83203125 292.50390625 408.499023438 c 0
 287.50390625 396.166015625 285.00390625 388.333007812 285.00390625 385 c 0
 285.00390625 381.666992188 285.336914062 379.666992188 286.00390625 379 c 0
 306.670898438 366.333007812 326.170898438 343.166015625 344.50390625 309.499023438 c 0
 362.836914062 275.83203125 376.336914062 254.83203125 385.00390625 246.499023438 c 0
 393.670898438 238.166015625 403.337890625 231.333007812 414.004882812 226 c 2
 415.004882812 225 l 1
 428.004882812 219 l 2
 428.671875 219 429.504882812 218.833007812 430.504882812 218.5 c 0
 442.171875 214.611328125 449.004882812 212.555664062 451.004882812 212.333007812 c 2
 474.004882812 209 l 2
 475.337890625 209 478.004882812 208.666992188 482.004882812 208 c 0
 486.004882812 207.333007812 496.171875 207.166015625 512.504882812 207.499023438 c 0
 536.483398438 207.98828125 555.650390625 211.821289062 570.004882812 218.999023438 c 1
 572.004882812 218.999023438 l 1
 587.004882812 225.999023438 l 2
 599.884765625 233.359375 610.104492188 241.033203125 617.6640625 249.01953125 c 0
 625.223632812 257.005859375 633.669921875 269.833007812 643.002929688 287.5 c 0
 652.3359375 305.166992188 657.3359375 314.333984375 658.002929688 315.000976562 c 2
 658.002929688 316.000976562 l 1
 664.002929688 328.000976562 670.002929688 337.000976562 676.002929688 343.000976562 c 1
682.002929688 466.998046875 m 2
 683.002929688 464.998046875 684.0859375 463.665039062 685.252929688 462.998046875 c 0
 686.419921875 462.331054688 690.669921875 456.998046875 698.002929688 446.998046875 c 1
 699.002929688 447.998046875 l 1
 705.002929688 439.998046875 l 1
 705.002929688 438.998046875 l 1
 706.002929688 438.998046875 l 1
 712.669921875 430.331054688 717.669921875 423.331054688 721.002929688 417.998046875 c 1
 774.002929688 513.998046875 l 1
 758.002929688 583.998046875 l 1
 690.002929688 702.998046875 l 1
 658.002929688 685.998046875 l 1
 643.002929688 639.998046875 l 1
 698.002929688 569.998046875 l 1
 704.002929688 509.998046875 l 1
 682.002929688 466.998046875 l 2
309.002929688 703.998046875 m 1
 241.002929688 584.997070312 l 1
 226.002929688 514.997070312 l 1
 279.002929688 418.997070312 l 1
 286.203125 432.197265625 294.169921875 443.1640625 302.903320312 451.897460938 c 2
 317.002929688 465.997070312 l 2
 317.669921875 466.6640625 318.002929688 467.331054688 318.002929688 467.998046875 c 2
 296.002929688 510.998046875 l 1
 302.002929688 571.998046875 l 1
 357.002929688 639.998046875 l 1
 342.002929688 685.998046875 l 1
 309.002929688 703.998046875 l 1
582.002929688 726.997070312 m 1
 631.002929688 655.997070312 l 1
 641.002929688 685.997070312 l 1
 582.002929688 726.997070312 l 1
419.002929688 728.997070312 m 1
 359.002929688 686.997070312 l 1
 369.002929688 655.997070312 l 1
 419.002929688 728.997070312 l 1
608.002929688 759.997070312 m 1
 651.002929688 700.997070312 l 1
 677.002929688 714.997070312 l 1
 608.002929688 759.997070312 l 1
393.002929688 761.997070312 m 1
 321.002929688 715.997070312 l 1
 349.002929688 700.997070312 l 1
 393.002929688 761.997070312 l 1
421.002929688 799.997070312 m 1
 433.002929688 787.997070312 l 1
 387.002929688 726.997070312 l 1
 447.002929688 768.997070312 l 1
 459.002929688 756.997070312 l 1
 374.002929688 633.997070312 l 1
 317.002929688 564.997070312 l 1
 312.002929688 514.997070312 l 1
 331.002929688 478.997070312 l 1
 379.935546875 519.333007812 435.754882812 539.500976562 498.459960938 539.500976562 c 0
 498.973632812 539.500976562 499.48828125 539.5 500.002929688 539.497070312 c 0
 563.3359375 539.1640625 619.3359375 518.997070312 668.002929688 478.997070312 c 1
 687.002929688 512.997070312 l 1
 683.002929688 562.997070312 l 1
 626.002929688 632.997070312 l 1
 541.002929688 755.997070312 l 1
 554.002929688 767.997070312 l 1
 612.002929688 725.997070312 l 1
 567.002929688 786.997070312 l 1
 579.002929688 798.997070312 l 1
 700.002929688 719.997070312 l 1
 774.002929688 589.997070312 l 1
 792.002929688 511.997070312 l 1
 729.002929688 397.997070312 l 1
 730.3359375 391.997070312 731.002929688 387.997070312 731.002929688 385.997070312 c 0
 731.002929688 383.997070312 730.669921875 381.330078125 730.002929688 377.997070312 c 1
 785.002929688 396.997070312 l 1
 858.002929688 471.997070312 l 1
 863.002929688 665.997070312 l 1
 863.002929688 666.997070312 l 1
 880.002929688 666.997070312 l 1
 880.002929688 665.997070312 l 1
 897.002929688 463.997070312 l 1
 804.002929688 356.997070312 l 1
 812.002929688 359.997070312 l 1
 909.002929688 369.997070312 l 1
 994.002929688 305.997070312 l 1
 1000.00292969 214.997070312 l 1
 983.002929688 211.997070312 l 1
 963.002929688 279.997070312 l 1
 898.002929688 325.997070312 l 1
 822.002929688 317.997070312 l 1
 715.002929688 282.997070312 l 1
 773.002929688 286.997070312 l 1
 860.002929688 260.997070312 l 1
 932.002929688 200.997070312 l 1
 955.002929688 94.9970703125 l 1
 955.002929688 92.9970703125 l 1
 940.002929688 87.9970703125 l 1
 898.002929688 173.997070312 l 1
 836.002929688 213.997070312 l 1
 758.002929688 240.997070312 l 1
 643.002929688 233.997070312 l 1
 649.002929688 227.997070312 l 1
 748.002929688 184.997070312 l 1
 818.002929688 120.997070312 l 1
 852.002929688 60.9970703125 l 1
 756.002929688 2.9970703125 l 1
 772.002929688 95.9970703125 l 1
 713.002929688 121.997070312 l 1
 629.002929688 176.997070312 l 1
 500.002929688 183.997070312 l 1
 371.002929688 176.997070312 l 1
 287.002929688 121.997070312 l 1
 228.002929688 95.9970703125 l 1
 244.002929688 2.9970703125 l 1
 148.002929688 60.9970703125 l 1
 182.002929688 120.997070312 l 1
 251.002929688 184.997070312 l 1
 351.002929688 227.997070312 l 1
 357.002929688 233.997070312 l 1
 241.002929688 240.997070312 l 1
 164.002929688 213.997070312 l 1
 102.002929688 173.997070312 l 1
 60.0029296875 87.9970703125 l 1
 45.0029296875 92.9970703125 l 1
 45.0029296875 94.9970703125 l 1
 68.0029296875 200.997070312 l 1
 140.002929688 260.997070312 l 1
 227.002929688 286.997070312 l 1
 285.002929688 282.997070312 l 1
 178.002929688 317.997070312 l 1
 102.002929688 325.997070312 l 1
 37.0029296875 279.997070312 l 1
 17.0029296875 211.997070312 l 1
 0.0029296875 214.997070312 l 1
 6.0029296875 305.997070312 l 1
 91.0029296875 369.997070312 l 1
 188.002929688 359.997070312 l 1
 196.002929688 356.997070312 l 1
 103.002929688 463.997070312 l 1
 120.002929688 665.997070312 l 1
 120.002929688 666.997070312 l 1
 137.002929688 666.997070312 l 1
 137.002929688 665.997070312 l 1
 142.002929688 471.997070312 l 1
 215.002929688 396.997070312 l 1
 270.002929688 377.997070312 l 1
 269.002929688 383.997070312 l 2
 269.002929688 388.6640625 269.669921875 393.997070312 271.002929688 399.997070312 c 1
 208.002929688 512.997070312 l 1
 227.002929688 590.997070312 l 1
 300.002929688 720.997070312 l 1
 421.002929688 799.997070312 l 1
EndSplineSet
Validated: 524293
EndChar

StartChar: four
Encoding: 52 52 19
Width: 1000
GlyphClass: 2
HStem: 137.856 20<408.774 582.994> 396 21<196.889 382 615 843> 405 21<144 328.889> 657.152 21.0752<404.635 589.302>
LayerCount: 2
Fore
SplineSet
615 417 m 1xd0
 843 417 l 1
 843 396 l 1
 615 396 l 1
 615 417 l 1xd0
144 426 m 1xb0
 382 417 l 1
 382 396 l 1xd0
 143 405 l 1
 144 426 l 1xb0
490 657 m 0
 394 653.666992188 295.000976562 622.669921875 193.000976562 564.002929688 c 0
 151.66796875 540.002929688 116.000976562 513.8359375 86.0009765625 485.502929688 c 0
 56.0009765625 457.169921875 35.333984375 431.336914062 24.0009765625 408.00390625 c 1
 34.66796875 384.670898438 55.3349609375 358.837890625 86.001953125 330.504882812 c 0
 116.668945312 302.171875 152.668945312 275.671875 194.001953125 251.004882812 c 0
 296.001953125 191.671875 394.668945312 160.671875 490.001953125 158.004882812 c 0
 493.3984375 157.904296875 496.810546875 157.853515625 500.239257812 157.853515625 c 0
 587.666015625 157.853515625 685.586914062 190.5703125 794.001953125 256.00390625 c 0
 835.334960938 281.336914062 872.334960938 308.169921875 905.001953125 336.502929688 c 0
 937.668945312 364.8359375 960.3359375 388.668945312 973.002929688 408.001953125 c 1
 960.3359375 427.334960938 937.668945312 451.16796875 905.001953125 479.500976562 c 0
 872.334960938 507.833984375 835.334960938 534.666992188 794.001953125 560 c 0
 685.626953125 624.768554688 587.73828125 657.15234375 500.3359375 657.15234375 c 0
 496.874023438 657.15234375 493.428710938 657.1015625 490 657 c 0
489.000976562 678.002929688 m 0
 493.205078125 678.153320312 497.43359375 678.227539062 501.685546875 678.227539062 c 0
 591.818359375 678.227539062 692.590820312 644.485351562 804.001953125 577.001953125 c 0
 849.334960938 549.668945312 889.66796875 520.8359375 925.000976562 490.502929688 c 0
 960.333984375 460.169921875 984.333984375 434.336914062 997.000976562 413.00390625 c 2
 1000.00097656 408.00390625 l 1
 997.000976562 402.00390625 l 2
 983.66796875 380.670898438 959.66796875 355.00390625 925.000976562 325.00390625 c 0
 890.333984375 295.00390625 850.000976562 266.336914062 804.000976562 239.00390625 c 0
 691.615234375 171.572265625 590.055664062 137.856445312 499.322265625 137.856445312 c 0
 495.866210938 137.856445312 492.42578125 137.905273438 489.000976562 138.002929688 c 0
 390.333984375 141.3359375 289.000976562 173.002929688 185.000976562 233.002929688 c 0
 139.66796875 259.669921875 100.66796875 288.002929688 68.0009765625 318.002929688 c 0
 35.333984375 348.002929688 13.333984375 376.669921875 2.0009765625 404.002929688 c 2
 0.0009765625 408.002929688 l 1
 2.0009765625 412.002929688 l 2
 13.333984375 439.3359375 35.0009765625 468.002929688 67.0009765625 498.002929688 c 0
 99.0009765625 528.002929688 138.000976562 556.3359375 184.000976562 583.002929688 c 0
 288.000976562 643.002929688 389.66796875 674.669921875 489.000976562 678.002929688 c 0
EndSplineSet
Validated: 524289
EndChar

StartChar: five
Encoding: 53 53 20
Width: 800
GlyphClass: 2
Flags: W
HStem: -0.160156 16.002<296.947 360.666> 11.04 17.5869<493.261 528.361> 161.441 16.001<263.537 509.888> 233.442 15.999<274.027 483.973> 357.441 16.8008<369.04 413.909> 443.041 16<369.643 413.04> 779.84 20G<392.172 408.172>
VStem: 173.896 16.8965<200.717 261.442 276.331 384.698> 340.173 16.7988<386.284 430.637> 392.172 16<696.081 799.84> 425.774 15.998<386.447 430.195> 588.173 16.7988<209.971 267.841 281.796 364.51>
LayerCount: 2
Fore
SplineSet
425.772460938 57.4404296875 m 1x7ff0
 392.857421875 19.0400390625 360.858398438 -0.16015625 329.7734375 -0.16015625 c 0xbff0
 306.83984375 -0.16015625 280.040039062 10.6396484375 249.373046875 32.240234375 c 0
 218.706054688 53.83984375 200.318359375 73.724609375 194.209960938 91.8955078125 c 0
 188.1015625 110.06640625 182.768554688 152.200195312 178.209960938 218.295898438 c 0
 175.333984375 259.99609375 173.896484375 293 173.896484375 317.307617188 c 0
 173.896484375 331.528320312 174.388671875 342.772460938 175.373046875 351.040039062 c 0
 178.040039062 373.439453125 185.7734375 401.573242188 198.573242188 435.440429688 c 0
 211.373046875 469.306640625 227.506835938 500.639648438 246.973632812 529.439453125 c 0
 266.439453125 558.239257812 314.838867188 616.373046875 392.171875 703.83984375 c 1
 392.171875 799.83984375 l 1
 408.171875 799.83984375 l 1
 408.171875 703.040039062 l 1
 435.905273438 666.240234375 464.705078125 624.374023438 494.571289062 577.44140625 c 0
 554.837890625 481.44140625 589.504882812 408.908203125 598.572265625 359.840820312 c 0
 602.838867188 337.44140625 604.971679688 313.575195312 604.971679688 288.2421875 c 0
 604.971679688 225.954101562 594.490234375 158.904296875 573.528320312 87.0927734375 c 0
 567.291015625 65.724609375 558.572265625 48.240234375 547.372070312 34.6396484375 c 0
 536.171875 21.0400390625 525.504882812 13.173828125 515.37109375 11.0400390625 c 2
 514.571289062 11.0400390625 l 2
 513.73828125 10.9013671875 512.849609375 10.83203125 511.904296875 10.83203125 c 0
 503.829101562 10.83203125 491.663085938 15.9033203125 475.407226562 26.0458984375 c 0
 457.25 37.375 440.705078125 47.83984375 425.772460938 57.4404296875 c 1x7ff0
400.172851562 686.240234375 m 1
 323.90625 599.83984375 277.106445312 543.840820312 259.7734375 518.241210938 c 0
 242.440429688 492.640625 227.374023438 463.041015625 214.57421875 429.44140625 c 0
 201.774414062 395.840820312 194.44140625 371.307617188 192.575195312 355.840820312 c 0
 191.38671875 345.998046875 190.79296875 332.052734375 190.79296875 314.004882812 c 0
 190.79296875 303.690429688 190.987304688 292.036132812 191.375 279.041015625 c 1
 245.774414062 259.307617188 304.708007812 249.44140625 368.174804688 249.44140625 c 0
 403.375 249.44140625 442.44140625 252.108398438 485.375 257.44140625 c 0
 528.30859375 262.774414062 562.575195312 272.107421875 588.174804688 285.440429688 c 1
 588.174804688 311.573242188 586.041992188 335.306640625 581.775390625 356.639648438 c 0
 573.241210938 403.573242188 539.374023438 474.240234375 480.173828125 568.639648438 c 0
 453.506835938 611.306640625 426.83984375 650.506835938 400.172851562 686.240234375 c 1
391.373046875 459.041015625 m 0
 405.239257812 459.041015625 417.10546875 454.107421875 426.971679688 444.241210938 c 0
 436.838867188 434.375 441.772460938 422.375 441.772460938 408.241210938 c 0
 441.772460938 394.107421875 436.838867188 382.107421875 426.971679688 372.241210938 c 0
 417.10546875 362.375 405.239257812 357.44140625 391.373046875 357.44140625 c 0
 377.506835938 357.44140625 365.506835938 362.375 355.373046875 372.241210938 c 0
 345.239257812 382.107421875 340.172851562 394.107421875 340.172851562 408.241210938 c 0
 340.172851562 422.375 345.239257812 434.375 355.373046875 444.241210938 c 0
 365.506835938 454.107421875 377.506835938 459.041015625 391.373046875 459.041015625 c 0
391.373046875 443.041015625 m 0
 381.772460938 443.041015625 373.638671875 439.57421875 366.971679688 432.640625 c 0
 360.3046875 425.708007812 356.971679688 417.575195312 356.971679688 408.2421875 c 0
 356.971679688 398.909179688 360.3046875 390.909179688 366.971679688 384.2421875 c 0
 373.638671875 377.575195312 381.772460938 374.2421875 391.373046875 374.2421875 c 0
 400.973632812 374.2421875 409.107421875 377.575195312 415.774414062 384.2421875 c 0
 422.44140625 390.909179688 425.774414062 398.909179688 425.774414062 408.2421875 c 0
 425.774414062 417.575195312 422.44140625 425.708007812 415.774414062 432.640625 c 0
 409.107421875 439.57421875 400.973632812 443.041015625 391.373046875 443.041015625 c 0
588.172851562 267.840820312 m 1
 539.439453125 244.908203125 466.106445312 233.442382812 368.172851562 233.442382812 c 0
 305.240234375 233.442382812 246.83984375 242.775390625 192.97265625 261.442382812 c 1
 194.040039062 235.841796875 194.70703125 221.575195312 194.973632812 218.641601562 c 0
 195.240234375 215.708984375 195.506835938 212.375976562 195.7734375 208.642578125 c 0
 196.040039062 204.909179688 196.439453125 202.2421875 196.97265625 200.641601562 c 0
 237.506835938 185.708984375 300.973632812 177.975585938 387.373046875 177.442382812 c 2
 398.573242188 177.442382812 l 2
 423.639648438 177.442382812 443.239257812 177.708984375 457.373046875 178.2421875 c 0
 501.20703125 179.895507812 543.20703125 190.028320312 583.373046875 208.640625 c 1
 586.040039062 228.907226562 587.639648438 248.640625 588.172851562 267.840820312 c 1
423.373046875 78.2421875 m 1
 476.29296875 45.1669921875 506.166015625 28.626953125 512.987304688 28.626953125 c 0x7ff0
 518.916015625 28.626953125 526.778320312 34.3642578125 536.57421875 45.83984375 c 0
 551.918945312 63.8154296875 566.452148438 111.682617188 580.173828125 189.44140625 c 1
 557.241210938 179.840820312 532.840820312 172.907226562 506.973632812 168.640625 c 0
 481.107421875 164.374023438 461.907226562 162.107421875 449.374023438 161.840820312 c 0
 436.840820312 161.57421875 416.173828125 161.44140625 387.374023438 161.44140625 c 0
 304.368164062 161.44140625 241.434570312 168.375 198.57421875 182.241210938 c 1
 202.506835938 137.0078125 206.567382812 107.970703125 210.755859375 95.1298828125 c 0
 214.943359375 82.2890625 230.893554688 65.8642578125 258.60546875 45.85546875 c 0
 286.317382812 25.8466796875 310.573242188 15.841796875 331.373046875 15.841796875 c 0
 352.172851562 15.841796875 376.439453125 29.708984375 404.172851562 57.4423828125 c 2
 418.573242188 73.4423828125 l 1
 423.373046875 78.2421875 l 1
EndSplineSet
Validated: 524289
EndChar

StartChar: six
Encoding: 54 54 21
Width: 842
GlyphClass: 2
Flags: W
HStem: -0.00390625 21G<156.999 170.999 630.999 671.666 672.778 686> 224.996 15.4998<397.026 419.995 419.995 441.983> 445.902 15.7515<194.715 339.146 503.738 626.074> 485.999 17<5.99902 22.2189> 779 20G<413 428.996>
VStem: 295 17.0108<258.109 326.536> 410.904 16.8096<357.86 517.552 727.294 798.997> 532.996 15.9362<281.37 332.197>
LayerCount: 2
Fore
SplineSet
413 799 m 1
 428.99609375 798.997070312 l 1
 428.99609375 796.997070312 l 1
 446.329101562 638.997070312 465.99609375 535.997070312 487.99609375 487.997070312 c 0
 492.663085938 477.997070312 497.830078125 470.997070312 503.497070312 466.997070312 c 0
 508.543562733 463.435010109 519.847458354 461.653943281 537.408757174 461.653943281 c 0
 561.449958049 461.653943281 597.218328052 464.991888952 644.713867188 471.66796875 c 0
 726.903320312 483.220703125 790.331054688 493.330078125 834.998046875 501.997070312 c 1
 835.998046875 502.997070312 l 1
 840.998046875 486.997070312 l 1
 840.331054688 486.997070312 827.6640625 481.997070312 802.997070312 471.997070312 c 0
 778.330078125 461.997070312 738.330078125 443.1640625 682.997070312 415.497070312 c 0
 627.6640625 387.830078125 587.331054688 362.330078125 561.998046875 338.997070312 c 0
 553.287543393 330.908159734 548.932291652 323.690299504 548.932291652 317.343489622 c 0
 548.932291652 316.889908879 548.954535581 316.440776922 548.999023438 315.99609375 c 0
 550.33203125 289.329101562 571.999023438 231.99609375 613.999023438 143.99609375 c 0
 632.666015625 104.663085938 656.333007812 60.330078125 685 10.9970703125 c 2
 686 8.9970703125 l 1
 673 -0.0029296875 l 1
 672.555447101 0.885525226593 672.110894203 1.32975268364 671.666341304 1.32975268364 c 0
 670.999023438 0.99609375 l 1
 590.999023438 94.99609375 528.666015625 158.329101562 483.999023438 190.99609375 c 0
 453.33203125 213.663085938 432.33203125 224.99609375 420.999023438 224.99609375 c 2
 419.999023438 224.99609375 l 2
 395.33203125 224.99609375 345.999023438 187.99609375 271.999023438 113.99609375 c 0
 238.666015625 80.6630859375 204.999023438 42.99609375 170.999023438 0.99609375 c 1
 169.999023438 -0.00390625 l 1
 156.999023438 9.99609375 l 1
 157.666015625 10.6630859375 164.333007812 20.830078125 177 40.4970703125 c 0
 189.666992188 60.1640625 212.5 101.331054688 245.5 163.998046875 c 0
 278.5 226.665039062 295 272.665039062 295 301.998046875 c 0
 295 306.665039062 294 311.665039062 292 316.998046875 c 0
 282.666992188 340.998046875 231.666992188 376.665039062 139 423.998046875 c 0
 90.3330078125 448.665039062 44.666015625 469.33203125 1.9990234375 485.999023438 c 1
 0.9990234375 486.999023438 l 1
 5.9990234375 502.999023438 l 2
 9.33203125 502.999023438 22.4990234375 500.166015625 45.4990234375 494.499023438 c 0
 68.4990234375 488.83203125 108.33203125 481.83203125 164.999023438 473.499023438 c 0
 221.666015625 465.166015625 263.499023438 460.999023438 290.499023438 460.999023438 c 0
 317.499023438 460.999023438 333.999023438 463.999023438 339.999023438 469.999023438 c 1
 340.999023438 469.999023438 l 1
 347.666015625 474.666015625 355.999023438 493.333007812 365.999023438 526 c 0
 386.666015625 596 402.333007812 686.333007812 413 797 c 1
 413 799 l 1
420.99609375 736.997070312 m 1
 400.329101562 571.6640625 376.662109375 478.330078125 349.995117188 456.997070312 c 0
 339.995117188 448.997070312 315.162109375 444.997070312 275.495117188 444.997070312 c 0
 235.828125 444.997070312 166.995117188 454.997070312 68.9951171875 474.997070312 c 1
 212.995117188 410.997070312 292.995117188 360.330078125 308.995117188 322.997070312 c 0
 310.995117188 318.997070312 311.995117188 312.6640625 311.995117188 303.997070312 c 0
 312.005543715 303.486414731 312.010756977 302.96997602 312.010756977 302.447754174 c 0
 312.010756977 269.563081807 291.338566555 213.746497678 249.995117188 134.997070312 c 0
 243.328125 122.330078125 230.328125 100.663085938 210.995117188 69.99609375 c 1
 310.995117188 183.99609375 380.662109375 240.99609375 419.995117188 240.99609375 c 1
 419.995117188 240.662597656 420.078369141 240.495849609 420.244995118 240.495849609 c 0
 420.411621094 240.495849609 420.661621094 240.662597656 420.995117188 240.99609375 c 0
 423.569054981 242.665652988 426.676523923 243.500432052 430.317524016 243.500432052 c 0
 461.569566444 243.500432052 532.129089688 181.998752069 641.99609375 58.99609375 c 1
 623.99609375 92.3291015625 609.99609375 118.329101562 599.99609375 136.99609375 c 0
 555.329101562 219.663085938 532.99609375 278.99609375 532.99609375 314.99609375 c 0
 532.99609375 315.663085938 533.329101562 317.663085938 533.99609375 320.99609375 c 0
 541.891601562 359.595703125 622.224609375 411.262695312 774.99609375 475.99609375 c 1
 670.99609375 455.99609375 594.99609375 445.99609375 546.99609375 445.99609375 c 0
 544.55990553 445.933648608 542.195056272 445.90242563 539.901545975 445.90242563 c 0
 517.840969053 445.90242563 502.380622998 448.79115379 493.520507812 454.569335938 c 0
 466.50390625 472.1875 442.329101562 566.330078125 420.99609375 736.997070312 c 1
410.904296875 517.551757812 m 1
 427.713867188 517.551757812 l 1
 427.713867188 357.860351562 l 1
 579 415.013671875 l 1
 584.04296875 400.724609375 l 1
 433.596679688 343.573242188 l 1
 524.369140625 235.150390625 l 1
 511.76171875 224.223632812 l 1
 420.1484375 333.486328125 l 1
 333.580078125 219.180664062 l 1
 320.131835938 229.266601562 l 1
 405.861328125 342.731445312 l 1
 262.139648438 398.204101562 l 1
 267.182617188 413.331054688 l 1
 410.904296875 357.860351562 l 1
 410.904296875 517.551757812 l 1
EndSplineSet
Validated: 524289
EndChar

StartChar: seven
Encoding: 55 55 22
Width: 801
GlyphClass: 2
Flags: W
HStem: -0.00292969 15.999<321.841 476.99> 127.694 16.1006<225.755 260.502 553.715 581.399> 324.273 15.0391<127.113 222.946 350.997 366.213 594.916 675.546> 441.614 16.083<124.344 223.456 575.811 681.543> 651.195 20G<355.407 375.794 427.794 448.795> 783.997 16<323.712 477.478>
VStem: 0.595703 16.7998<320.371 479.55> 173.061 15.4432<182.399 214.889> 335.433 15.8262<535.729 635.822> 452.279 16.1172<535.333 636.55> 618.426 16.0762<184.11 220.446> 783.795 16.7998<320.876 478.509>
LayerCount: 2
Fore
SplineSet
374.200195312 324.799804688 m 1
 388.599609375 320 l 1
 362.126953125 241.841796875 330.393554688 186.908203125 293.400390625 155.19921875 c 0
 273.133789062 136.862304688 252.430664062 127.694335938 231.291015625 127.694335938 c 0
 229.065429688 127.694335938 226.834960938 127.795898438 224.599609375 127.999023438 c 1
 226.200195312 143.999023438 l 2
 227.78515625 143.86328125 229.37109375 143.794921875 230.958984375 143.794921875 c 0
 263.69140625 143.794921875 297.038085938 172.663085938 331 230.399414062 c 0
 346.428710938 257.142578125 359.228515625 284.076171875 369.400390625 311.200195312 c 2
 374.200195312 324.799804688 l 1
433.400390625 328 m 1
 444.067382812 295.466796875 457.797851562 264.666015625 474.59765625 235.598632812 c 0
 509.005859375 176.067382812 543.462890625 146.301757812 577.96875 146.301757812 c 0
 579.112304688 146.301757812 580.255859375 146.333984375 581.399414062 146.399414062 c 2
 582.999023438 130.399414062 l 1
 580.528320312 130.174804688 578.077148438 130.0625 575.645507812 130.0625 c 0
 554.975585938 130.0625 533.458007812 140.201171875 511.092773438 160.479492188 c 0
 487.012695312 182.3125 463.915039062 217.352539062 441.798828125 265.599609375 c 0
 438.866210938 272 436.06640625 278 433.399414062 283.599609375 c 0
 428.362304688 294.178710938 423.295898438 307.112304688 418.200195312 322.400390625 c 1
 433.400390625 328 l 1
365.397460938 344.798828125 m 1
 370.197265625 330.399414062 l 1
 337.6640625 319.732421875 306.864257812 305.999023438 277.796875 289.19921875 c 0
 218.268121718 254.792613511 188.503745077 220.308107847 188.503745077 185.74481393 c 0
 188.503745077 184.629762652 188.53472328 183.514629372 188.596679688 182.399414062 c 1
 173.397460938 180.798828125 l 1
 173.172851562 183.26953125 173.060546875 185.720703125 173.060546875 188.15234375 c 0
 173.060546875 208.822265625 181.650390625 228.630859375 198.829101562 247.578125 c 0
 233.952148438 286.317382812 284.674804688 317.390625 350.997070312 340.798828125 c 1
 365.397460938 344.798828125 l 1
442.197265625 347.19921875 m 1
 520.354492188 320.7265625 575.288085938 288.9921875 606.997070312 251.998046875 c 0
 625.333984375 231.731445312 634.501953125 211.028320312 634.501953125 189.888671875 c 0
 634.501953125 187.663085938 634.400390625 185.432617188 634.197265625 183.197265625 c 1
 618.197265625 184.796875 l 2
 618.349609375 186.571289062 618.42578125 188.34375 618.42578125 190.11328125 c 0
 618.42578125 232.447265625 574.8828125 273.208984375 487.796875 312.3984375 c 0
 471.263671875 319.598632812 458.73046875 324.798828125 450.197265625 327.999023438 c 2
 437.397460938 332.798828125 l 1
 442.197265625 347.19921875 l 1
340.596679688 374.3984375 m 1
 272.61328125 340.981445312 213.852539062 324.2734375 164.319335938 324.2734375 c 0
 129.842773438 324.2734375 104.334960938 334.315429688 87.7958984375 354.3984375 c 1
 101.396484375 364.797851562 l 1
 115.240234375 347.807617188 139.125976562 339.3125 173.053710938 339.3125 c 0
 206.981445312 339.3125 256.162109375 353.407226562 320.596679688 381.59765625 c 2
 333.397460938 387.998046875 l 1
 340.596679688 374.3984375 l 1
470.1953125 389.59765625 m 1
 500.594726562 374.665039062 531.184570312 362.943359375 561.962890625 354.435546875 c 0
 592.741210938 345.927734375 620.587890625 341.673828125 645.501953125 341.673828125 c 0
 670.416015625 341.673828125 689.314453125 349.6484375 702.196289062 365.59765625 c 1
 714.99609375 355.998046875 l 1
 698.723632812 336.23828125 673.635742188 326.358398438 639.732421875 326.358398438 c 0
 605.829101562 326.358398438 563.983398438 335.3046875 514.1953125 353.197265625 c 0
 497.127929688 359.331054688 484.594726562 364.53125 476.594726562 368.797851562 c 2
 462.995117188 375.198242188 l 1
 470.1953125 389.59765625 l 1
333.396484375 394.397460938 m 1
 269.314453125 425.875 213.559570312 441.614257812 166.137695312 441.614257812 c 0
 135.784179688 441.614257812 114.203125 433.075195312 101.39453125 415.997070312 c 1
 87.7939453125 426.397460938 l 1
 104.487304688 447.263671875 130.151367188 457.697265625 164.786132812 457.697265625 c 0
 186.321289062 457.697265625 213.349609375 453.2421875 245.87109375 444.333007812 c 0
 278.392578125 435.423828125 305.701171875 425.4453125 327.795898438 414.397460938 c 2
 340.595703125 408.796875 l 1
 333.396484375 394.397460938 l 1
462.993164062 409.596679688 m 1
 530.158203125 442.610351562 588.546875 459.115234375 638.159179688 459.115234375 c 0
 673.318359375 459.115234375 699.196289062 448.7421875 715.79296875 427.99609375 c 1
 702.193359375 417.595703125 l 1
 688.690429688 434.16796875 666.837890625 442.454101562 636.63671875 442.454101562 c 0
 606.435546875 442.454101562 567.62109375 433.901367188 520.193359375 416.795898438 c 0
 503.926757812 410.9296875 491.526367188 405.86328125 482.993164062 401.596679688 c 2
 470.193359375 395.197265625 l 1
 462.993164062 409.596679688 l 1
404.592773438 426.395507812 m 1
 436.3828125 491.109375 452.279296875 547.01171875 452.279296875 594.1015625 c 0
 452.279296875 623.663085938 444.1171875 645.094726562 427.793945312 658.395507812 c 1
 438.994140625 671.1953125 l 1
 458.595703125 655.052734375 468.396484375 630.126953125 468.396484375 596.41796875 c 0
 468.396484375 562.708984375 459.262695312 520.834960938 440.994140625 470.794921875 c 0
 434.860351562 453.995117188 429.66015625 441.328125 425.393554688 432.794921875 c 2
 418.993164062 419.1953125 l 1
 404.592773438 426.395507812 l 1
383.793945312 419.1953125 m 1
 351.552734375 484.7890625 335.432617188 543.0078125 335.432617188 593.846679688 c 0
 335.432617188 628.963867188 345.419921875 654.747070312 365.39453125 671.197265625 c 1
 375.793945312 658.397460938 l 1
 359.4375 645.069335938 351.258789062 622.869140625 351.258789062 591.796875 c 0
 351.258789062 560.724609375 361.170898438 519.057617188 380.994140625 466.795898438 c 0
 383.927734375 459.0625 386.861328125 452.12890625 389.793945312 445.995117188 c 2
 398.994140625 426.395507812 l 1
 383.793945312 419.1953125 l 1
400.594726562 783.997070312 m 0
 348.328125 783.997070312 298.594726562 773.73046875 251.39453125 753.197265625 c 0
 204.194335938 732.6640625 163.39453125 705.331054688 128.995117188 671.197265625 c 0
 94.595703125 637.063476562 67.3955078125 596.263671875 47.3955078125 548.796875 c 0
 27.3955078125 501.330078125 17.3955078125 454.263671875 17.3955078125 407.596679688 c 0
 17.3955078125 360.9296875 23.662109375 317.99609375 36.1953125 278.795898438 c 0
 60.16015625 203.840820312 105.370117188 141.301757812 171.825195312 91.1796875 c 0
 238.280273438 41.0576171875 314.537109375 15.99609375 400.594726562 15.99609375 c 0
 452.861328125 15.99609375 502.594726562 26.1298828125 549.794921875 46.396484375 c 0
 596.995117188 66.6630859375 637.794921875 93.86328125 672.1953125 127.997070312 c 0
 706.594726562 162.130859375 733.794921875 202.930664062 753.794921875 250.397460938 c 0
 773.794921875 297.86328125 783.794921875 347.596679688 783.794921875 399.596679688 c 0
 783.794921875 451.596679688 773.794921875 501.330078125 753.794921875 548.796875 c 0
 733.794921875 596.263671875 706.594726562 637.197265625 672.1953125 671.596679688 c 0
 637.794921875 705.997070312 596.995117188 733.330078125 549.794921875 753.596679688 c 0
 502.594726562 773.86328125 452.861328125 783.997070312 400.594726562 783.997070312 c 0
400.594726562 799.997070312 m 0
 454.995117188 799.997070312 506.862304688 789.46484375 556.1953125 768.3984375 c 0
 605.528320312 747.331054688 648.061523438 718.930664062 683.794921875 683.197265625 c 0
 719.528320312 647.463867188 747.928710938 604.796875 768.995117188 555.197265625 c 0
 790.061523438 505.596679688 800.594726562 456.396484375 800.594726562 407.596679688 c 0
 800.594726562 358.796875 793.927734375 313.997070312 780.594726562 273.197265625 c 0
 755.165039062 195.3828125 707.583007812 130.395507812 637.848632812 78.236328125 c 0
 568.114257812 26.0771484375 489.029296875 -0.0029296875 400.594726562 -0.0029296875 c 0
 346.1953125 -0.0029296875 294.329101562 10.5302734375 244.99609375 31.5966796875 c 0
 195.663085938 52.6640625 153.129882812 81.064453125 117.396484375 116.797851562 c 0
 81.6630859375 152.53125 53.2626953125 195.064453125 32.1962890625 244.397460938 c 0
 11.12890625 293.73046875 0.595703125 345.463867188 0.595703125 399.596679688 c 0
 0.595703125 453.73046875 11.12890625 505.463867188 32.1962890625 554.796875 c 0
 53.2626953125 604.129882812 81.6630859375 646.796875 117.396484375 682.796875 c 0
 153.129882812 718.796875 195.663085938 747.330078125 244.99609375 768.397460938 c 0
 294.329101562 789.463867188 346.1953125 799.997070312 400.594726562 799.997070312 c 0
EndSplineSet
Validated: 524289
EndChar

StartChar: eight
Encoding: 56 56 23
Width: 1000
GlyphClass: 2
HStem: 650 20G<851.306 881>
LayerCount: 2
Fore
SplineSet
863 670 m 1
 881 660 l 1
 706 363 l 1
 1000 168 l 1
 989 151 l 1
 691 350 l 1
 5 181 l 1
 0 200 l 1
 687 369 l 1
 863 670 l 1
EndSplineSet
Validated: 1
EndChar

